{"glyphs":{"0":{"ha":965,"x_min":38,"x_max":946,"o":"m 553 1008 q 738 975 663 1008 q 859 888 813 942 q 926 767 906 835 q 946 631 946 699 q 934 486 946 561 q 897 338 922 411 q 832 199 872 265 q 735 83 792 133 q 605 4 679 33 q 436 -25 531 -25 q 249 8 325 -25 q 125 95 172 42 q 58 216 78 149 q 38 353 38 283 q 49 497 38 422 q 87 645 61 572 q 153 784 113 718 q 250 900 193 850 q 382 979 307 950 q 553 1008 457 1008 m 526 742 q 454 708 486 742 q 400 622 422 674 q 367 508 378 569 q 356 393 356 447 q 378 290 356 332 q 450 247 401 247 q 520 280 489 247 q 574 363 551 313 q 607 476 596 414 q 618 596 618 538 q 597 699 618 657 q 526 742 576 742 z "},"1":{"ha":965,"x_min":149,"x_max":813,"o":"m 315 0 l 429 646 l 243 546 l 149 789 l 517 983 l 813 983 l 639 0 l 315 0 z "},"2":{"ha":965,"x_min":8,"x_max":917,"o":"m 8 0 l 54 254 l 501 568 q 553 612 526 586 q 579 664 579 638 q 563 713 579 693 q 506 732 546 732 q 427 700 457 732 q 385 615 397 668 l 89 658 q 147 804 107 739 q 244 915 188 869 q 375 986 301 961 q 536 1011 449 1011 q 674 994 606 1011 q 796 942 742 978 q 883 851 850 907 q 917 717 917 794 q 895 598 917 649 q 840 508 874 547 q 765 439 807 469 q 683 382 724 408 l 515 269 l 865 269 l 818 0 l 8 0 z "},"3":{"ha":965,"x_min":15,"x_max":919,"o":"m 869 315 q 830 160 869 225 q 728 53 790 94 q 589 -8 665 11 q 439 -28 513 -28 q 291 -10 361 -28 q 165 44 221 8 q 71 137 110 81 q 15 271 32 193 l 310 342 q 357 268 322 294 q 444 242 392 242 q 479 246 461 242 q 512 259 497 250 q 536 281 526 268 q 546 314 546 294 q 508 378 546 363 q 404 393 471 393 l 313 393 l 350 613 l 456 613 q 508 617 482 613 q 554 630 535 621 q 586 653 574 639 q 599 690 599 668 q 576 738 599 725 q 521 751 553 751 q 447 731 481 751 q 401 675 414 710 l 119 750 q 190 867 146 818 q 290 949 235 917 q 410 996 346 981 q 543 1011 475 1011 q 676 999 608 1011 q 797 954 743 986 q 885 869 851 922 q 919 735 919 815 q 901 652 919 689 q 856 588 883 615 q 797 544 829 561 q 733 521 764 528 l 732 515 q 833 440 797 492 q 869 315 869 388 z "},"4":{"ha":965,"x_min":1,"x_max":938,"o":"m 758 175 l 728 0 l 436 0 l 467 175 l 1 175 l 49 438 l 496 983 l 896 983 l 797 426 l 938 426 l 893 175 l 758 175 m 556 688 l 550 688 l 338 426 l 510 426 l 556 688 z "},"5":{"ha":965,"x_min":21,"x_max":926,"o":"m 871 354 q 831 181 871 253 q 731 62 792 108 q 594 -6 669 15 q 447 -28 518 -28 q 297 -9 367 -28 q 172 47 228 10 q 78 140 117 85 q 21 265 39 194 l 319 346 q 365 272 331 300 q 447 244 400 244 q 481 249 464 244 q 513 263 499 253 q 538 288 528 272 q 547 328 547 304 q 506 399 547 382 q 399 417 464 417 q 265 408 340 417 q 125 386 190 399 l 264 983 l 926 983 l 879 715 l 489 715 l 469 636 q 508 641 486 639 q 544 643 529 643 q 663 629 604 643 q 768 582 722 615 q 842 493 814 549 q 871 354 871 438 z "},"6":{"ha":965,"x_min":28,"x_max":897,"o":"m 586 665 q 600 667 593 667 q 613 667 607 667 q 733 642 681 667 q 823 578 786 618 q 878 488 860 539 q 897 385 897 438 q 867 228 897 303 q 776 98 836 154 q 631 8 717 42 q 435 -25 544 -25 q 278 -6 351 -25 q 149 53 204 13 q 60 159 93 94 q 28 315 28 224 q 65 483 28 400 q 189 664 101 567 l 478 983 l 896 983 l 608 689 l 586 665 m 346 328 q 376 258 346 283 q 446 232 407 232 q 538 268 504 232 q 571 363 571 304 q 541 433 571 408 q 475 458 511 458 q 380 421 414 458 q 346 328 346 383 z "},"7":{"ha":965,"x_min":60,"x_max":976,"o":"m 443 0 l 60 0 l 568 715 l 153 715 l 200 983 l 976 983 l 936 754 l 443 0 z "},"8":{"ha":965,"x_min":49,"x_max":903,"o":"m 354 299 q 378 238 354 258 q 433 217 403 217 q 515 244 489 217 q 542 313 542 272 q 519 370 542 344 q 460 396 496 396 q 383 368 413 396 q 354 299 354 340 m 701 511 q 753 481 726 500 q 801 435 779 463 q 836 374 822 408 q 850 301 850 340 q 819 158 850 219 q 733 56 789 97 q 599 -5 678 15 q 424 -25 521 -25 q 294 -12 361 -25 q 174 34 228 1 q 84 119 119 67 q 49 251 49 172 q 69 356 49 310 q 121 435 89 401 q 192 492 153 469 q 271 524 232 514 l 271 529 q 181 602 213 554 q 150 711 150 650 q 186 842 150 786 q 280 935 222 899 q 410 990 338 972 q 556 1008 482 1008 q 686 994 624 1008 q 797 949 749 979 q 874 871 844 918 q 903 757 903 824 q 884 661 903 703 q 836 590 865 619 q 772 542 807 561 q 701 515 736 524 l 701 511 m 432 688 q 451 636 432 660 q 508 613 471 613 q 576 638 550 613 q 601 700 601 663 q 581 757 601 736 q 526 778 561 778 q 458 753 483 778 q 432 688 432 728 z "},"9":{"ha":965,"x_min":63,"x_max":932,"o":"m 374 318 q 360 317 367 317 q 347 317 353 317 q 226 341 279 317 q 137 405 174 365 q 81 495 100 444 q 63 599 63 546 q 93 755 63 681 q 183 885 124 829 q 328 975 243 942 q 525 1008 414 1008 q 682 990 608 1008 q 811 930 756 971 q 899 824 867 889 q 932 668 932 760 q 895 500 932 583 q 771 319 858 417 l 482 0 l 64 0 l 351 294 l 374 318 m 614 656 q 583 726 614 700 q 514 751 553 751 q 422 715 456 751 q 389 621 389 679 q 419 550 389 575 q 485 525 449 525 q 580 563 546 525 q 614 656 614 600 z "},"\u0000":{"ha":694,"x_min":0,"x_max":0,"o":""},"\r":{"ha":0,"x_min":0,"x_max":0,"o":""}," ":{"ha":347,"x_min":0,"x_max":0,"o":""},"!":{"ha":610,"x_min":88,"x_max":557,"o":"m 122 358 l 233 983 l 557 983 l 446 358 l 122 358 m 249 -18 q 181 -6 211 -18 q 131 25 151 6 q 99 70 110 44 q 88 124 88 96 q 101 195 88 161 q 138 255 114 229 q 197 295 163 281 q 272 310 231 310 q 338 298 308 310 q 388 267 367 286 q 420 222 408 247 q 432 168 432 196 q 419 95 432 129 q 381 36 406 61 q 323 -3 357 11 q 249 -18 289 -18 z "},"\"":{"ha":764,"x_min":129,"x_max":736,"o":"m 435 593 l 503 983 l 736 983 l 667 593 l 435 593 m 129 593 l 199 983 l 433 983 l 364 593 l 129 593 z "},"#":{"ha":858,"x_min":25,"x_max":840,"o":"m 676 540 l 644 443 l 753 443 l 721 261 l 589 261 l 504 0 l 308 0 l 390 261 l 329 261 l 246 0 l 50 0 l 132 261 l 25 261 l 57 443 l 189 443 l 222 540 l 114 540 l 146 722 l 278 722 l 361 983 l 558 983 l 475 722 l 538 722 l 621 983 l 817 983 l 733 722 l 840 722 l 808 540 l 676 540 m 417 540 l 386 443 l 449 443 l 481 540 l 417 540 z "},"$":{"ha":965,"x_min":-14,"x_max":899,"o":"m 492 1092 l 635 1092 l 615 994 q 777 957 700 988 q 899 881 854 926 l 697 686 q 638 731 674 714 q 553 747 601 747 q 484 731 515 747 q 453 682 453 715 q 479 639 453 654 q 556 608 506 624 q 750 502 681 568 q 819 326 819 436 q 788 185 819 246 q 705 84 756 125 q 590 20 654 43 q 460 -8 525 -3 l 440 -115 l 299 -115 l 318 -10 q 133 32 222 -3 q -14 124 44 67 l 201 322 q 288 263 233 285 q 388 240 343 240 q 463 256 433 240 q 492 301 492 272 q 467 344 492 325 q 379 385 443 364 q 281 422 326 401 q 203 474 236 443 q 151 548 169 506 q 132 651 132 590 q 156 776 132 718 q 226 880 181 835 q 333 955 271 925 q 472 994 396 985 l 492 1092 z "},"%":{"ha":1271,"x_min":72,"x_max":1239,"o":"m 325 478 q 224 492 271 478 q 144 535 178 507 q 91 606 110 564 q 72 701 72 647 q 94 818 72 764 q 154 913 115 872 q 248 977 193 954 q 368 1000 303 1000 q 470 985 424 1000 q 551 941 517 969 q 604 871 585 913 q 624 775 624 829 q 601 658 624 713 q 539 564 579 604 q 444 501 499 524 q 325 478 389 478 m 429 758 q 411 808 429 788 q 358 828 393 828 q 292 797 317 828 q 267 721 267 765 q 285 669 267 689 q 336 650 303 650 q 404 682 379 650 q 429 758 429 714 m 940 -15 q 840 -1 886 -15 q 759 42 793 14 q 706 113 725 71 q 688 208 688 154 q 709 325 688 271 q 769 420 731 379 q 863 484 808 461 q 983 507 918 507 q 1085 492 1039 507 q 1166 448 1132 476 q 1219 378 1200 419 q 1239 282 1239 336 q 1217 165 1239 219 q 1155 71 1194 111 q 1060 8 1115 31 q 940 -15 1006 -15 m 1044 265 q 1026 315 1044 294 q 974 335 1008 335 q 907 303 932 335 q 882 228 882 272 q 900 176 882 196 q 951 157 918 157 q 1019 189 994 157 q 1044 265 1044 221 m 326 -54 l 207 26 l 965 1026 l 1086 949 l 326 -54 z "},"&":{"ha":1158,"x_min":14,"x_max":1121,"o":"m 396 383 q 340 351 364 374 q 315 288 315 328 q 342 233 315 253 q 401 214 369 214 q 456 223 431 214 q 501 251 482 232 l 396 383 m 611 743 q 594 788 611 771 q 547 806 578 806 q 492 783 513 806 q 471 729 471 761 q 482 682 471 706 q 511 643 493 658 q 583 685 556 658 q 611 743 611 711 m 268 554 q 217 640 232 594 q 203 725 203 685 q 228 833 203 782 q 299 924 253 885 q 409 988 344 964 q 553 1011 474 1011 q 681 995 622 1011 q 781 948 739 979 q 846 869 822 917 q 869 758 869 821 q 807 596 869 660 q 639 492 744 532 l 696 428 l 782 538 l 1121 538 l 869 253 l 1089 0 l 706 0 l 653 65 q 526 1 594 24 q 382 -21 457 -21 q 244 -6 311 -21 q 126 42 178 8 q 44 128 75 75 q 14 256 14 181 q 81 438 14 363 q 268 554 147 513 z "},"'":{"ha":458,"x_min":129,"x_max":431,"o":"m 129 593 l 197 983 l 431 983 l 361 593 l 129 593 z "},"(":{"ha":500,"x_min":-6,"x_max":519,"o":"m 115 -250 q 63 -142 86 -200 q 25 -23 40 -85 q 2 102 10 39 q -6 226 -6 165 q 19 456 -6 343 q 88 674 43 569 q 194 874 132 779 q 332 1050 257 969 l 519 951 q 296 599 372 785 q 219 226 219 414 q 226 122 219 176 q 245 14 232 68 q 278 -91 258 -40 q 324 -186 297 -142 l 115 -250 z "},")":{"ha":500,"x_min":-53,"x_max":472,"o":"m 351 1050 q 403 942 381 1000 q 442 823 426 885 q 465 698 457 761 q 472 574 472 635 q 448 344 472 457 q 379 126 424 231 q 272 -74 335 21 q 135 -250 210 -169 l -53 -151 q 171 201 94 15 q 247 574 247 386 q 241 678 247 624 q 222 786 235 732 q 189 891 208 840 q 143 986 169 942 l 351 1050 z "},"*":{"ha":726,"x_min":93,"x_max":747,"o":"m 689 519 l 521 404 l 418 536 l 319 411 l 153 526 l 256 650 l 93 701 l 160 882 l 318 829 l 318 983 l 525 983 l 525 828 l 686 876 l 747 696 l 589 649 l 689 519 z "},"+":{"ha":925,"x_min":68,"x_max":857,"o":"m 351 525 l 351 800 l 571 800 l 571 525 l 857 525 l 857 317 l 574 317 l 574 42 l 354 42 l 354 317 l 68 317 l 68 525 l 351 525 z "},",":{"ha":492,"x_min":-92,"x_max":392,"o":"m 158 -167 l -92 -167 l 97 264 l 392 264 l 158 -167 z "},"-":{"ha":465,"x_min":8,"x_max":429,"o":"m 8 276 l 50 510 l 429 510 l 388 276 l 8 276 z "},".":{"ha":492,"x_min":15,"x_max":375,"o":"m 183 -17 q 113 -5 144 -17 q 60 28 82 7 q 27 75 39 49 q 15 131 15 101 q 29 206 15 171 q 69 268 43 242 q 130 310 94 294 q 208 325 165 325 q 276 313 246 325 q 328 281 307 301 q 363 233 350 260 q 375 178 375 207 q 361 102 375 138 q 322 40 347 67 q 262 -1 297 14 q 183 -17 226 -17 z "},"/":{"ha":626,"x_min":-90,"x_max":724,"o":"m 110 -81 l -90 -15 l 521 1064 l 724 999 l 110 -81 z "},":":{"ha":521,"x_min":32,"x_max":447,"o":"m 189 -7 q 74 35 117 -7 q 32 132 32 76 q 45 203 32 169 q 82 260 58 236 q 139 299 106 285 q 213 314 172 314 q 276 303 247 314 q 326 272 306 292 q 358 228 347 253 q 369 176 369 203 q 356 106 369 139 q 319 47 343 72 q 263 8 296 22 q 189 -7 229 -7 m 267 410 q 152 451 194 410 q 110 549 110 493 q 123 619 110 586 q 160 677 136 653 q 217 716 183 701 q 290 731 250 731 q 354 719 325 731 q 404 689 383 708 q 436 644 425 669 q 447 593 447 619 q 434 522 447 556 q 397 464 421 489 q 340 424 374 439 q 267 410 307 410 z "},";":{"ha":521,"x_min":-62,"x_max":447,"o":"m 190 -167 l -62 -167 l 128 264 l 422 264 l 190 -167 m 267 410 q 152 451 194 410 q 110 549 110 493 q 123 619 110 586 q 160 677 136 653 q 217 716 183 701 q 290 731 250 731 q 354 719 325 731 q 404 689 383 708 q 436 644 425 669 q 447 593 447 619 q 434 522 447 556 q 397 464 421 489 q 340 424 374 439 q 267 410 307 410 z "},"<":{"ha":925,"x_min":108,"x_max":817,"o":"m 817 44 q 463 185 639 115 q 108 326 286 256 l 108 513 q 463 653 286 583 q 817 794 639 724 l 817 569 q 626 492 721 529 q 436 415 532 456 q 626 344 532 379 q 817 272 721 308 l 817 44 l 817 44 z "},"=":{"ha":925,"x_min":78,"x_max":847,"o":"m 847 656 l 847 456 l 78 456 l 78 656 l 847 656 m 847 392 l 847 192 l 78 192 l 78 392 l 847 392 z "},">":{"ha":925,"x_min":108,"x_max":817,"o":"m 108 794 q 463 653 286 724 q 817 513 639 583 l 817 326 q 463 185 639 256 q 108 44 286 115 l 108 272 q 299 344 204 308 q 489 415 393 379 q 299 492 393 456 q 108 569 204 529 l 108 794 l 108 794 z "},"?":{"ha":810,"x_min":81,"x_max":843,"o":"m 613 458 q 564 421 578 439 q 546 382 550 403 l 540 346 l 253 346 l 261 397 q 284 469 268 439 q 322 525 300 500 q 372 572 344 550 q 433 615 400 593 l 463 635 q 510 674 499 658 q 522 711 522 689 q 505 747 522 736 q 465 757 488 757 q 393 724 418 757 q 361 646 368 690 l 81 696 q 142 839 100 779 q 240 937 183 899 q 365 993 297 975 q 503 1011 432 1011 q 633 998 571 1011 q 742 954 694 985 q 816 874 789 924 q 843 753 843 825 q 828 656 843 697 q 783 581 813 614 q 711 518 754 547 q 613 458 668 489 m 371 -18 q 303 -6 333 -18 q 253 25 274 6 q 221 70 232 44 q 210 124 210 96 q 223 195 210 161 q 260 255 236 229 q 319 295 285 281 q 394 310 353 310 q 460 298 431 310 q 510 267 489 286 q 542 222 531 247 q 554 168 554 196 q 541 95 554 129 q 503 36 528 61 q 445 -3 479 11 q 371 -18 411 -18 z "},"@":{"ha":1111,"x_min":29,"x_max":1107,"o":"m 758 222 q 661 244 703 222 q 613 306 619 265 l 610 306 q 547 249 590 275 q 453 222 503 222 q 315 277 360 222 q 269 415 269 332 q 290 543 269 478 q 352 660 311 608 q 452 746 393 713 q 586 779 511 779 q 672 756 644 779 q 703 707 699 732 l 706 707 l 718 742 l 903 742 l 847 585 q 812 481 828 531 q 796 411 796 432 q 826 389 796 389 q 912 443 878 389 q 946 593 946 497 q 923 718 946 667 q 859 802 900 769 q 761 849 818 835 q 636 864 704 864 q 471 835 549 864 q 335 753 393 807 q 242 621 276 699 q 207 446 207 543 q 233 308 207 368 q 306 207 258 247 q 420 146 353 167 q 569 125 488 125 q 717 150 644 125 q 853 222 789 175 l 936 107 q 769 13 867 50 q 554 -25 671 -25 q 344 5 440 -25 q 178 92 247 35 q 69 235 108 150 q 29 429 29 319 q 80 672 29 564 q 215 854 131 779 q 411 969 300 929 q 643 1008 522 1008 q 817 983 733 1008 q 965 908 900 957 q 1068 785 1029 858 q 1107 618 1107 713 q 1088 478 1107 549 q 1026 350 1068 407 q 917 258 983 293 q 758 222 851 222 m 635 564 q 620 603 635 588 q 581 618 606 618 q 541 601 560 618 q 507 558 522 583 q 483 502 492 532 q 474 447 474 472 q 526 390 474 390 q 569 408 549 390 q 603 451 589 425 q 626 507 618 476 q 635 564 635 538 z "},"A":{"ha":1076,"x_min":-115,"x_max":1000,"o":"m 667 0 l 644 150 l 325 150 l 243 0 l -115 0 l 489 983 l 828 983 l 1000 0 l 667 0 m 589 649 l 449 396 l 618 396 l 589 649 z "},"B":{"ha":958,"x_min":10,"x_max":922,"o":"m 633 983 q 736 972 685 983 q 829 935 788 961 q 897 869 871 910 q 922 768 922 828 q 866 603 922 667 q 724 517 810 540 l 724 514 q 787 490 757 507 q 840 447 817 474 q 876 383 863 419 q 889 304 889 347 q 858 172 889 229 q 770 77 826 115 q 636 19 714 39 q 467 0 558 0 l 10 0 l 183 983 l 633 983 m 436 735 l 414 600 l 503 600 q 540 603 521 600 q 574 614 558 606 q 599 637 589 622 q 608 675 608 651 q 583 721 608 707 q 517 735 557 735 l 436 735 m 379 399 l 353 250 l 435 250 q 486 253 461 250 q 530 266 511 257 q 560 291 549 275 q 571 332 571 307 q 546 381 571 364 q 474 399 521 399 l 379 399 z "},"C":{"ha":953,"x_min":43,"x_max":1008,"o":"m 910 113 q 842 62 881 88 q 756 17 804 36 q 647 -15 707 -3 q 513 -28 586 -28 q 315 3 401 -28 q 167 90 228 33 q 75 228 107 147 q 43 407 43 308 q 87 643 43 533 q 210 835 131 753 q 397 964 289 917 q 635 1011 506 1011 q 860 972 763 1011 q 1008 874 957 932 l 785 643 q 719 697 760 679 q 626 714 678 714 q 531 692 574 714 q 457 634 488 671 q 410 549 426 597 q 393 444 393 500 q 438 322 393 372 q 574 272 483 272 q 672 294 626 272 q 751 349 718 317 l 910 113 l 910 113 z "},"D":{"ha":1093,"x_min":10,"x_max":1063,"o":"m 183 983 l 590 983 q 758 960 674 983 q 909 888 842 938 q 1019 758 976 838 q 1063 564 1063 678 q 1017 330 1063 435 q 892 152 972 225 q 701 40 811 79 q 463 0 592 0 l 10 0 l 183 983 m 372 276 l 476 276 q 586 298 539 276 q 665 355 633 319 q 713 435 697 390 q 729 529 729 481 q 718 600 729 567 q 683 658 707 633 q 623 697 660 682 q 536 711 586 711 l 450 711 l 372 276 z "},"E":{"ha":822,"x_min":10,"x_max":826,"o":"m 10 0 l 183 983 l 826 983 l 779 715 l 439 715 l 422 621 l 747 621 l 703 371 l 378 371 l 360 268 l 740 268 l 693 0 l 10 0 z "},"F":{"ha":790,"x_min":10,"x_max":817,"o":"m 450 714 l 429 600 l 732 600 l 686 339 l 385 339 l 325 0 l 10 0 l 183 983 l 817 983 l 769 714 l 450 714 z "},"G":{"ha":1060,"x_min":43,"x_max":1008,"o":"m 792 646 q 728 704 768 682 q 626 726 689 726 q 533 706 578 726 q 453 649 488 686 q 399 560 419 613 q 378 440 378 507 q 425 305 378 358 q 575 251 472 251 q 623 256 599 251 q 663 267 647 260 l 678 353 l 517 353 l 561 606 l 1007 606 l 913 69 q 740 1 836 29 q 535 -28 643 -28 q 333 1 424 -28 q 178 85 243 29 q 78 222 114 140 q 43 407 43 303 q 86 643 43 533 q 206 835 129 753 q 391 964 283 917 q 628 1011 499 1011 q 856 974 756 1011 q 1008 874 956 938 l 792 646 z "},"H":{"ha":1108,"x_min":10,"x_max":1106,"o":"m 611 0 l 678 378 l 397 378 l 331 0 l 10 0 l 183 983 l 503 983 l 443 646 l 724 646 l 783 983 l 1106 983 l 932 0 l 611 0 z "},"I":{"ha":510,"x_min":10,"x_max":507,"o":"m 10 0 l 183 983 l 507 983 l 333 0 l 10 0 z "},"J":{"ha":781,"x_min":-67,"x_max":792,"o":"m 679 354 q 647 222 668 289 q 583 99 625 154 q 469 8 540 43 q 286 -28 397 -28 q 58 38 149 -28 q -67 221 -32 103 l 228 325 q 247 283 232 301 q 290 265 263 265 q 336 289 322 265 q 357 349 350 313 l 469 983 l 792 983 l 679 354 l 679 354 z "},"K":{"ha":1028,"x_min":10,"x_max":1135,"o":"m 613 0 l 397 414 l 394 414 l 322 0 l 10 0 l 183 983 l 494 983 l 428 607 l 432 607 l 743 983 l 1135 983 l 693 508 l 997 0 l 613 0 z "},"L":{"ha":760,"x_min":10,"x_max":714,"o":"m 10 0 l 183 983 l 507 983 l 382 275 l 714 275 l 665 0 l 10 0 z "},"M":{"ha":1393,"x_min":10,"x_max":1390,"o":"m 904 0 l 1014 569 l 1006 569 l 715 0 l 489 0 l 401 569 l 394 569 l 310 0 l 10 0 l 183 983 l 593 983 l 679 444 l 686 444 l 942 983 l 1390 983 l 1217 0 l 904 0 z "},"N":{"ha":1099,"x_min":10,"x_max":1096,"o":"m 599 0 l 404 488 l 399 488 l 322 0 l 10 0 l 183 983 l 499 983 l 697 471 l 703 471 l 783 983 l 1096 983 l 922 0 l 599 0 z "},"O":{"ha":1157,"x_min":43,"x_max":1129,"o":"m 531 -25 q 322 8 413 -25 q 169 100 231 40 q 75 242 107 160 q 43 422 43 324 q 86 651 43 544 q 207 838 129 758 q 395 963 285 917 q 640 1008 506 1008 q 851 976 760 1008 q 1003 883 942 943 q 1097 742 1065 824 q 1129 561 1129 660 q 1087 332 1129 439 q 966 146 1044 225 q 777 21 888 67 q 531 -25 667 -25 m 794 538 q 783 608 794 575 q 748 665 771 640 q 691 703 725 689 q 614 717 657 717 q 516 694 560 717 q 442 633 472 671 q 394 547 411 596 q 378 449 378 499 q 390 378 378 411 q 424 322 401 346 q 481 283 447 297 q 560 269 515 269 q 657 292 614 269 q 731 351 700 314 q 778 438 761 389 q 794 538 794 486 z "},"P":{"ha":944,"x_min":10,"x_max":942,"o":"m 329 0 l 10 0 l 183 983 l 550 983 q 841 904 740 983 q 942 686 942 825 q 910 522 942 592 q 819 408 879 453 q 675 342 760 364 q 482 321 590 321 l 388 321 l 329 0 m 481 563 q 585 585 547 563 q 622 654 622 607 q 592 715 622 699 q 508 732 561 732 l 460 732 l 429 563 l 481 563 z "},"Q":{"ha":1199,"x_min":43,"x_max":1143,"o":"m 1129 588 q 1115 470 1129 525 q 1078 372 1100 415 q 1031 296 1057 328 q 983 249 1006 264 l 982 243 l 1143 253 l 1099 0 l 531 0 q 330 28 419 0 q 176 111 240 57 q 78 242 113 165 q 43 417 43 319 q 87 647 43 539 q 209 835 131 756 q 397 962 288 915 q 640 1008 507 1008 q 843 978 753 1008 q 997 894 933 949 q 1094 761 1060 839 q 1129 588 1129 683 m 794 543 q 783 611 794 579 q 748 667 771 643 q 691 704 725 690 q 614 718 657 718 q 516 696 560 718 q 442 637 472 674 q 394 553 411 600 q 378 456 378 506 q 389 387 378 419 q 423 330 400 354 q 480 291 446 306 q 560 276 514 276 q 659 299 615 276 q 733 360 703 322 q 779 445 764 397 q 794 543 794 493 z "},"R":{"ha":978,"x_min":10,"x_max":939,"o":"m 554 0 l 419 360 l 381 360 l 319 0 l 10 0 l 183 983 l 588 983 q 733 965 668 983 q 844 913 799 947 q 915 827 890 878 q 939 711 939 776 q 881 510 939 589 q 724 401 824 431 l 915 0 l 554 0 m 483 564 q 583 585 547 564 q 619 654 619 607 q 590 713 619 697 q 508 729 560 729 l 449 729 l 419 564 l 483 564 z "},"S":{"ha":835,"x_min":-71,"x_max":863,"o":"m 657 690 q 596 735 633 718 q 508 753 558 753 q 438 736 469 753 q 407 685 407 719 q 433 642 407 657 q 511 610 460 626 q 625 563 575 589 q 710 501 675 536 q 763 422 744 467 q 782 322 782 378 q 740 161 782 228 q 634 53 699 94 q 492 -8 569 11 q 340 -28 414 -28 q 224 -18 282 -28 q 112 10 165 -8 q 11 54 58 28 q -71 114 -36 81 l 149 317 q 189 282 165 297 q 238 256 213 267 q 290 240 264 246 q 339 233 317 233 q 417 249 388 233 q 446 296 446 265 q 422 340 446 321 q 331 381 397 360 q 231 419 278 397 q 151 473 185 442 q 97 548 117 504 q 78 654 78 592 q 109 796 78 731 q 198 909 140 861 q 335 984 256 957 q 511 1011 415 1011 q 615 1002 564 1011 q 713 977 667 993 q 797 939 758 961 q 863 889 836 917 l 657 690 z "},"T":{"ha":810,"x_min":40,"x_max":900,"o":"m 611 713 l 486 0 l 164 0 l 289 713 l 40 713 l 89 983 l 900 983 l 851 713 l 611 713 z "},"U":{"ha":1071,"x_min":56,"x_max":1074,"o":"m 967 361 q 915 202 951 274 q 817 81 878 131 q 672 3 757 31 q 478 -25 588 -25 q 306 -4 383 -25 q 172 56 228 17 q 86 153 117 96 q 56 282 56 210 q 58 327 56 301 q 64 374 61 353 l 168 983 l 486 983 l 385 415 q 382 392 382 404 q 382 369 382 379 q 410 289 382 324 q 504 254 438 254 q 574 268 547 254 q 618 304 601 282 q 643 354 635 326 q 657 410 651 382 l 761 983 l 1074 983 l 967 361 l 967 361 z "},"V":{"ha":1000,"x_min":76,"x_max":1139,"o":"m 576 0 l 218 0 l 76 983 l 422 983 l 467 367 l 472 367 l 768 983 l 1139 983 l 576 0 z "},"W":{"ha":1458,"x_min":89,"x_max":1578,"o":"m 1114 0 l 783 0 l 756 567 l 750 567 l 492 0 l 165 0 l 89 983 l 429 983 l 429 421 l 435 421 l 665 983 l 996 983 l 1007 421 l 1013 421 l 1243 983 l 1578 983 l 1114 0 z "},"X":{"ha":1064,"x_min":-122,"x_max":1161,"o":"m 629 0 l 506 293 l 272 0 l -122 0 l 338 513 l 97 983 l 463 983 l 569 721 l 772 983 l 1161 983 l 736 517 l 1000 0 l 629 0 z "},"Y":{"ha":940,"x_min":31,"x_max":1096,"o":"m 611 404 l 540 0 l 219 0 l 290 404 l 31 983 l 389 983 l 494 679 l 704 983 l 1096 983 l 611 404 z "},"Z":{"ha":928,"x_min":-24,"x_max":947,"o":"m -24 0 l 24 269 l 482 717 l 118 717 l 165 983 l 947 983 l 906 750 l 422 274 l 833 274 l 785 0 l -24 0 z "},"[":{"ha":500,"x_min":-64,"x_max":500,"o":"m -64 -217 l 154 1017 l 500 1017 l 468 832 l 347 832 l 194 -32 l 315 -32 l 282 -217 l -64 -217 z "},"\\":{"ha":632,"x_min":-4,"x_max":636,"o":"m -4 999 l 215 1065 l 636 -15 l 418 -82 l -4 999 z "},"]":{"ha":500,"x_min":-29,"x_max":533,"o":"m -29 -217 l 4 -32 l 125 -32 l 278 832 l 157 832 l 189 1017 l 533 1017 l 315 -217 l -29 -217 z "},"^":{"ha":992,"x_min":107,"x_max":882,"o":"m 107 476 q 248 730 178 604 q 389 983 318 856 l 603 983 q 742 730 674 856 q 882 476 811 604 l 635 476 q 565 606 600 542 q 494 736 529 671 q 424 606 458 671 q 354 476 390 542 l 107 476 z "},"_":{"ha":694,"x_min":0,"x_max":694,"o":"m 0 -104 l 694 -104 l 694 -257 l 0 -257 l 0 -104 z "},"`":{"ha":500,"x_min":4,"x_max":468,"o":"m 293 1011 l 468 811 l 239 811 l 4 1011 l 293 1011 z "},"a":{"ha":817,"x_min":0,"x_max":758,"o":"m 460 300 l 442 300 q 376 296 407 300 q 323 283 346 292 q 286 259 300 274 q 272 222 272 244 q 292 181 272 190 q 336 172 313 172 q 415 201 382 172 q 456 276 447 231 l 460 300 m 700 113 q 692 50 694 82 q 690 0 690 18 l 424 0 q 424 31 424 10 q 426 67 425 53 l 424 67 q 332 1 383 21 q 218 -19 281 -19 q 140 -8 179 -19 q 70 26 101 3 q 19 85 39 49 q 0 174 0 122 q 38 313 0 258 q 141 400 76 368 q 290 445 206 432 q 468 458 375 458 q 469 467 469 464 q 469 474 469 471 q 445 516 469 501 q 382 531 421 531 q 296 513 338 531 q 219 467 254 496 l 83 622 q 159 678 117 654 q 246 719 201 703 q 336 744 290 736 q 424 753 382 753 q 674 685 590 753 q 758 496 758 618 q 747 381 758 444 l 700 113 z "},"b":{"ha":958,"x_min":-8,"x_max":910,"o":"m 615 747 q 742 723 688 747 q 835 656 797 699 q 891 557 872 614 q 910 435 910 500 q 879 259 910 342 q 794 115 849 176 q 665 18 739 54 q 503 -18 590 -18 q 375 8 432 -18 q 289 78 318 35 l 286 78 l 272 0 l -8 0 l 176 1050 l 488 1050 l 421 667 l 424 667 q 509 725 457 703 q 615 747 561 747 m 607 393 q 578 468 607 438 q 496 499 550 499 q 438 485 464 499 q 394 451 413 472 q 365 400 375 429 q 354 339 354 371 q 383 263 354 293 q 464 233 411 233 q 524 246 497 233 q 569 281 550 258 q 597 331 588 303 q 607 393 607 360 z "},"c":{"ha":700,"x_min":13,"x_max":735,"o":"m 558 463 q 524 489 549 476 q 465 501 500 501 q 353 456 394 501 q 311 346 311 410 q 340 272 311 304 q 429 239 368 239 q 492 252 464 239 q 536 281 521 265 l 660 71 q 534 2 604 26 q 372 -22 464 -22 q 225 1 292 -22 q 111 67 158 24 q 38 169 64 110 q 13 304 13 229 q 45 476 13 394 q 138 619 78 557 q 281 717 197 681 q 464 753 364 753 q 621 728 547 753 q 735 656 694 704 l 558 463 z "},"d":{"ha":958,"x_min":13,"x_max":985,"o":"m 307 -18 q 180 6 235 -18 q 88 73 125 31 q 31 172 50 115 q 13 294 13 229 q 43 470 13 388 q 128 614 74 553 q 257 711 182 675 q 419 747 332 747 q 474 742 446 747 q 526 726 501 736 q 572 700 551 715 q 606 667 593 685 l 608 667 l 675 1050 l 985 1050 l 800 0 l 521 0 l 535 78 l 532 78 q 442 9 500 36 q 307 -18 385 -18 m 315 339 q 344 264 315 294 q 426 233 372 233 q 484 246 458 233 q 528 281 510 258 q 558 332 547 303 q 568 393 568 361 q 540 469 568 439 q 458 499 511 499 q 399 486 425 499 q 353 451 372 474 q 325 401 335 429 q 315 339 315 372 z "},"e":{"ha":864,"x_min":13,"x_max":815,"o":"m 299 293 q 297 283 297 289 q 310 245 297 260 q 340 222 322 231 q 379 209 358 213 q 417 206 400 206 q 485 217 451 206 q 544 254 518 229 l 754 110 q 589 7 682 36 q 396 -22 496 -22 q 248 -1 318 -22 q 126 61 178 19 q 43 165 74 103 q 13 310 13 226 q 46 484 13 403 q 140 625 79 565 q 284 719 200 685 q 469 753 368 753 q 614 730 550 753 q 722 665 678 707 q 791 562 767 622 q 815 426 815 501 q 810 360 815 396 q 796 293 806 324 l 299 293 m 544 458 q 546 467 546 463 q 546 475 546 472 q 520 531 546 510 q 449 551 494 551 q 397 542 419 551 q 357 518 374 532 q 330 488 340 504 q 315 458 319 472 l 544 458 z "},"f":{"ha":581,"x_min":7,"x_max":685,"o":"m 635 836 q 608 845 624 842 q 575 849 592 849 q 507 820 526 849 q 479 747 488 792 l 476 731 l 631 731 l 592 507 l 442 507 l 351 0 l 42 0 l 132 507 l 7 507 l 46 731 l 167 731 l 171 753 q 206 882 183 821 q 272 990 229 943 q 381 1063 314 1036 q 546 1090 447 1090 q 618 1085 578 1090 q 685 1069 658 1081 l 635 836 z "},"g":{"ha":963,"x_min":-50,"x_max":928,"o":"m 319 0 q 185 22 243 0 q 90 84 128 44 q 32 178 51 124 q 13 296 13 232 q 42 471 13 389 q 126 615 72 553 q 254 712 179 676 q 419 747 329 747 q 528 724 472 747 q 618 651 585 701 l 622 651 l 635 731 l 928 731 l 813 74 q 654 -237 774 -142 q 329 -333 535 -333 q 224 -326 278 -333 q 121 -305 171 -319 q 27 -269 71 -290 q -50 -219 -17 -247 l 97 -6 q 204 -71 142 -49 q 319 -93 267 -93 q 399 -82 367 -93 q 454 -52 432 -71 q 488 -9 476 -33 q 504 43 500 15 l 511 79 l 507 79 q 478 53 496 67 q 436 27 460 39 q 383 8 413 15 q 319 0 353 0 m 311 336 q 316 300 311 319 q 333 265 321 281 q 368 240 346 250 q 424 229 390 229 q 484 244 457 229 q 530 281 511 258 q 559 334 549 304 q 569 396 569 364 q 540 472 569 444 q 458 500 510 500 q 395 485 422 500 q 349 447 368 471 q 321 394 331 424 q 311 336 311 365 z "},"h":{"ha":918,"x_min":-8,"x_max":851,"o":"m 454 0 l 522 388 q 526 413 525 400 q 526 435 526 426 q 511 480 526 463 q 463 497 496 497 q 406 469 431 497 q 372 386 382 440 l 304 0 l -8 0 l 176 1050 l 489 1050 l 418 646 l 421 646 q 509 717 454 686 q 628 747 564 747 q 731 729 689 747 q 801 681 774 711 q 840 613 828 651 q 851 532 851 574 q 849 485 851 510 q 843 439 847 461 l 767 0 l 454 0 z "},"i":{"ha":465,"x_min":-7,"x_max":471,"o":"m -7 0 l 122 731 l 433 731 l 304 0 l -7 0 m 296 785 q 231 796 260 785 q 183 826 203 807 q 153 869 164 844 q 142 919 142 893 q 154 990 142 957 q 190 1047 167 1022 q 246 1085 214 1071 q 318 1099 278 1099 q 380 1088 351 1099 q 428 1058 408 1076 q 460 1015 449 1039 q 471 964 471 990 q 458 894 471 926 q 423 837 446 861 q 367 799 400 813 q 296 785 335 785 z "},"j":{"ha":474,"x_min":-189,"x_max":481,"o":"m 315 1 q 280 -131 303 -68 q 215 -241 257 -193 q 106 -317 172 -289 q -61 -346 39 -346 q -126 -342 -89 -346 q -189 -329 -162 -337 l -136 -76 q -108 -82 -121 -81 q -86 -83 -96 -83 q -26 -61 -49 -83 q 6 10 -3 -39 l 133 731 l 444 731 l 315 1 m 306 785 q 241 796 269 785 q 193 826 213 807 q 163 869 174 844 q 151 919 151 893 q 164 990 151 957 q 200 1047 176 1022 q 256 1085 224 1071 q 328 1099 288 1099 q 390 1088 361 1099 q 438 1058 418 1076 q 469 1015 458 1039 q 481 964 481 990 q 468 894 481 926 q 433 837 456 861 q 377 799 410 813 q 306 785 344 785 z "},"k":{"ha":903,"x_min":-8,"x_max":969,"o":"m 357 318 l 303 0 l -8 0 l 176 1050 l 489 1050 l 381 451 l 385 451 l 590 731 l 969 731 l 669 383 l 850 0 l 486 0 l 361 318 l 357 318 z "},"l":{"ha":469,"x_min":-8,"x_max":494,"o":"m -8 0 l 176 1050 l 494 1050 l 310 0 l -8 0 z "},"m":{"ha":1349,"x_min":-8,"x_max":1282,"o":"m 94 588 q 106 656 100 614 q 115 731 113 697 l 415 731 q 411 683 414 710 q 406 636 408 656 l 411 636 q 496 713 442 678 q 625 747 550 747 q 753 718 706 747 q 825 639 801 689 q 913 715 861 683 q 1044 747 965 747 q 1153 726 1108 747 q 1227 672 1199 706 q 1269 597 1256 639 q 1282 514 1282 556 q 1280 477 1282 494 q 1275 443 1278 460 l 1197 0 l 885 0 l 953 388 q 956 412 956 399 q 957 433 957 425 q 900 497 957 497 q 848 467 869 497 q 817 386 826 438 l 749 0 l 438 0 l 506 385 q 509 408 508 396 q 510 426 510 419 q 495 478 510 458 q 453 497 481 497 q 404 471 426 497 q 371 386 382 444 l 303 0 l -8 0 l 94 588 l 94 588 z "},"n":{"ha":918,"x_min":-8,"x_max":851,"o":"m 94 588 q 106 656 100 614 q 115 731 113 697 l 415 731 q 411 683 414 710 q 406 636 408 656 l 411 636 q 501 714 443 681 q 628 747 558 747 q 731 729 689 747 q 801 681 774 711 q 840 613 828 651 q 851 532 851 574 q 849 485 851 510 q 843 439 847 461 l 767 0 l 454 0 l 522 388 q 526 413 525 400 q 526 435 526 426 q 511 480 526 463 q 463 497 496 497 q 406 469 431 497 q 372 386 382 440 l 303 0 l -8 0 l 94 588 l 94 588 z "},"o":{"ha":917,"x_min":13,"x_max":868,"o":"m 410 -22 q 254 -1 326 -22 q 128 61 182 19 q 43 164 74 103 q 13 304 13 225 q 43 478 13 396 q 131 621 74 560 q 273 717 189 682 q 465 753 357 753 q 624 732 550 753 q 751 669 697 711 q 837 567 806 628 q 868 426 868 506 q 838 253 868 335 q 749 110 807 171 q 605 13 690 49 q 410 -22 519 -22 m 565 393 q 538 468 565 438 q 456 499 510 499 q 398 485 424 499 q 353 451 372 472 q 325 400 335 429 q 315 339 315 371 q 343 263 315 293 q 424 233 371 233 q 483 246 457 233 q 528 281 510 258 q 556 331 546 303 q 565 393 565 360 z "},"p":{"ha":958,"x_min":-69,"x_max":910,"o":"m 610 747 q 740 723 683 747 q 833 656 796 699 q 890 557 871 614 q 910 435 910 500 q 879 259 910 342 q 794 115 849 176 q 665 18 739 54 q 503 -18 590 -18 q 394 2 449 -18 q 314 58 340 22 l 311 58 l 240 -333 l -69 -333 l 119 731 l 414 731 l 400 651 l 403 651 q 493 722 439 696 q 610 747 547 747 m 607 393 q 578 468 607 438 q 496 499 550 499 q 438 485 464 499 q 394 451 413 472 q 365 400 375 429 q 354 339 354 371 q 383 263 354 293 q 464 233 411 233 q 524 246 497 233 q 569 281 550 258 q 597 331 588 303 q 607 393 607 360 z "},"q":{"ha":958,"x_min":11,"x_max":928,"o":"m 308 -18 q 181 6 236 -18 q 88 73 125 31 q 31 172 50 115 q 11 294 11 229 q 42 470 11 388 q 127 614 72 553 q 257 711 182 675 q 419 747 332 747 q 533 724 479 747 q 614 651 586 700 l 619 651 l 635 731 l 928 731 l 742 -333 l 433 -333 l 501 58 l 499 58 q 420 3 468 24 q 308 -18 372 -18 m 313 339 q 341 264 313 294 q 424 233 369 233 q 481 246 456 233 q 526 281 507 258 q 555 332 544 303 q 565 393 565 361 q 537 469 565 439 q 456 499 508 499 q 396 486 422 499 q 351 451 369 474 q 322 401 332 429 q 313 339 313 372 z "},"r":{"ha":611,"x_min":-8,"x_max":651,"o":"m 96 588 q 108 656 101 614 q 117 731 114 697 l 415 731 q 414 713 415 724 q 410 688 413 701 q 406 663 408 675 q 403 642 404 650 l 407 642 q 485 716 439 686 q 593 746 531 746 q 651 739 631 746 l 593 475 q 561 481 579 479 q 528 482 543 482 q 415 444 456 482 q 365 354 375 406 l 303 0 l -8 0 l 96 588 l 96 588 z "},"s":{"ha":686,"x_min":-62,"x_max":682,"o":"m 96 264 q 179 210 132 228 q 267 192 226 192 q 310 199 294 192 q 326 224 326 207 q 305 251 326 240 q 250 272 283 263 q 163 304 201 286 q 98 347 125 322 q 56 406 71 372 q 42 483 42 439 q 72 603 42 551 q 151 688 101 654 q 262 738 200 721 q 386 754 324 754 q 552 730 472 754 q 682 661 632 706 l 522 478 q 457 520 499 503 q 375 538 415 538 q 330 530 347 538 q 313 506 313 522 q 327 484 313 492 q 378 467 342 476 q 472 435 429 454 q 544 390 514 417 q 592 328 575 364 q 608 243 608 292 q 576 118 608 169 q 492 35 543 67 q 380 -11 442 3 q 258 -25 318 -25 q 92 -3 179 -25 q -62 75 4 19 l 96 264 z "},"t":{"ha":557,"x_min":-4,"x_max":579,"o":"m 404 507 l 367 301 q 365 282 365 293 q 364 264 364 271 q 380 222 364 232 q 425 211 396 211 q 458 214 442 211 q 486 219 475 217 l 449 6 q 385 -12 431 -6 q 296 -19 339 -19 q 206 -11 250 -19 q 126 18 161 -3 q 70 75 92 39 q 49 168 49 111 q 51 203 49 183 q 56 239 53 222 l 104 507 l -4 507 l 35 731 l 138 731 l 167 896 l 468 896 l 439 731 l 579 731 l 540 507 l 404 507 z "},"u":{"ha":914,"x_min":24,"x_max":883,"o":"m 781 143 q 769 75 775 117 q 760 0 763 33 l 460 0 q 464 48 461 21 q 469 94 467 75 l 464 94 q 374 17 432 50 q 247 -17 317 -17 q 144 1 186 -17 q 74 49 101 19 q 35 118 47 79 q 24 199 24 157 q 26 245 24 221 q 32 292 28 269 l 108 731 l 421 731 l 353 343 q 349 317 350 331 q 349 296 349 304 q 364 251 349 268 q 413 233 379 233 q 469 262 444 233 q 503 344 493 290 l 572 731 l 883 731 l 781 143 l 781 143 z "},"v":{"ha":864,"x_min":35,"x_max":925,"o":"m 497 0 l 158 0 l 35 731 l 363 731 l 390 326 l 396 326 l 581 731 l 925 731 l 497 0 z "},"w":{"ha":1338,"x_min":39,"x_max":1389,"o":"m 988 0 l 678 0 l 640 381 l 638 381 l 447 0 l 139 0 l 39 731 l 364 731 l 379 343 l 385 343 l 561 731 l 863 731 l 888 343 l 892 343 l 1063 731 l 1389 731 l 988 0 z "},"x":{"ha":861,"x_min":-133,"x_max":938,"o":"m 465 0 l 381 174 l 226 0 l -133 0 l 228 376 l 35 731 l 374 731 l 450 569 l 588 731 l 938 731 l 600 376 l 806 0 l 465 0 z "},"y":{"ha":876,"x_min":-53,"x_max":932,"o":"m 208 10 l 33 731 l 378 731 l 422 331 l 428 331 l 599 731 l 932 731 l 508 -44 q 434 -167 471 -114 q 351 -258 397 -221 q 247 -314 306 -294 q 107 -333 188 -333 q 15 -326 57 -333 q -53 -311 -26 -319 l 0 -65 q 35 -77 17 -72 q 74 -82 53 -82 q 153 -60 125 -82 q 200 -6 182 -39 l 208 10 z "},"z":{"ha":767,"x_min":-37,"x_max":757,"o":"m -37 0 l 1 219 l 331 500 l 58 500 l 99 731 l 757 731 l 721 526 l 368 232 l 676 232 l 636 0 l -37 0 z "},"{":{"ha":500,"x_min":-29,"x_max":524,"o":"m 174 -217 q 96 -203 128 -217 q 44 -167 64 -190 q 14 -111 24 -143 q 4 -43 4 -79 q 6 -12 4 -28 q 10 18 7 3 l 43 206 q 46 222 46 214 q 46 238 46 231 q 26 291 46 278 q -29 304 6 304 l 4 496 q 72 515 44 496 q 111 593 100 533 l 144 782 q 172 872 153 829 q 222 946 192 914 q 295 997 253 978 q 392 1017 338 1017 l 524 1017 l 490 831 l 440 831 q 382 804 400 831 q 358 747 364 778 l 325 556 q 301 487 318 515 q 262 440 283 458 q 217 413 240 422 q 178 401 194 403 l 178 399 q 208 389 192 396 q 239 367 225 382 q 263 331 253 353 q 272 281 272 310 q 268 239 272 265 l 236 54 q 232 19 232 35 q 289 -31 232 -31 l 339 -31 l 306 -217 l 174 -217 z "},"|":{"ha":374,"x_min":68,"x_max":307,"o":"m 68 1042 l 307 1042 l 307 -347 l 68 -347 l 68 1042 z "},"}":{"ha":500,"x_min":-53,"x_max":500,"o":"m 297 1017 q 375 1003 343 1017 q 427 967 407 990 q 457 911 447 943 q 467 843 467 879 q 465 813 467 828 q 461 782 464 797 l 428 594 q 425 578 425 586 q 425 563 425 569 q 445 509 425 522 q 500 496 465 496 l 467 304 q 399 285 426 304 q 360 207 371 267 l 326 18 q 299 -72 318 -29 q 249 -147 279 -114 q 176 -198 218 -179 q 79 -217 133 -217 l -53 -217 l -19 -31 l 31 -31 q 89 -4 71 -31 q 113 53 107 22 l 146 244 q 170 313 153 285 q 209 360 188 342 q 253 387 231 378 q 293 399 276 396 l 293 401 q 263 410 279 403 q 232 433 246 418 q 208 469 218 447 q 199 519 199 490 q 203 561 199 533 l 235 746 q 239 781 239 764 q 182 831 239 831 l 132 831 l 165 1017 l 297 1017 z "},"~":{"ha":925,"x_min":82,"x_max":843,"o":"m 493 533 q 541 504 522 514 q 573 490 560 494 q 597 485 586 486 q 624 485 608 485 q 688 510 657 485 q 740 578 718 536 l 843 390 q 736 276 794 310 q 622 243 678 243 q 539 255 578 243 q 454 296 500 267 q 407 322 426 313 q 373 337 388 332 q 347 342 358 342 q 325 343 336 343 q 291 338 310 343 q 253 322 272 333 q 215 294 233 311 q 185 251 197 276 l 82 439 q 138 509 107 481 q 202 555 169 538 q 267 579 235 572 q 326 586 299 586 q 414 574 378 586 q 493 533 450 561 z "}," ":{"ha":347,"x_min":0,"x_max":0,"o":""},"¡":{"ha":610,"x_min":17,"x_max":486,"o":"m 451 376 l 340 -249 l 17 -249 l 128 376 l 451 376 m 325 753 q 392 741 363 753 q 443 710 422 729 q 475 665 464 690 q 486 611 486 639 q 473 540 486 574 q 435 480 460 506 q 377 440 411 454 q 301 425 343 425 q 236 437 265 425 q 186 468 207 449 q 153 513 165 488 q 142 567 142 539 q 155 640 142 606 q 192 699 168 674 q 251 738 217 724 q 325 753 285 753 z "},"¢":{"ha":965,"x_min":129,"x_max":851,"o":"m 676 743 q 776 713 729 735 q 851 656 824 690 l 675 463 q 641 489 665 476 q 582 501 617 501 q 469 456 511 501 q 428 346 428 410 q 456 272 428 304 q 546 239 485 239 q 609 252 581 239 q 653 281 638 265 l 776 71 q 672 10 729 35 q 544 -19 615 -14 l 529 -101 l 382 -101 l 399 -14 q 202 93 275 10 q 129 304 129 176 q 158 465 129 389 q 240 602 188 542 q 367 702 293 663 q 532 750 442 742 l 547 832 l 694 832 l 676 743 l 676 743 z "},"£":{"ha":965,"x_min":26,"x_max":969,"o":"m 790 700 q 752 728 775 717 q 697 740 729 740 q 642 729 665 740 q 605 701 619 718 q 582 665 590 685 q 571 629 574 646 l 567 610 l 774 610 l 736 392 l 533 392 l 510 261 l 860 261 l 814 0 l 26 0 l 72 261 l 200 261 l 224 392 l 96 392 l 133 610 l 257 610 l 268 658 q 309 782 282 719 q 383 896 336 844 q 501 979 431 947 q 675 1011 572 1011 q 765 1003 721 1011 q 849 981 810 994 q 919 947 888 967 q 969 907 950 928 l 790 700 z "},"¤":{"ha":965,"x_min":64,"x_max":908,"o":"m 799 589 q 831 509 819 553 q 843 413 843 465 q 796 229 843 308 l 908 117 l 778 -15 l 660 103 q 489 64 582 64 q 405 73 446 64 q 315 106 364 82 l 194 -15 l 64 117 l 179 232 q 136 413 136 310 q 178 585 136 510 l 64 699 l 196 829 l 313 714 q 489 754 393 754 q 663 715 586 754 l 776 829 l 908 699 l 799 589 m 489 535 q 442 524 464 535 q 404 497 419 514 q 380 458 389 481 q 371 413 371 436 q 404 323 371 360 q 489 286 438 286 q 573 323 540 286 q 606 413 606 360 q 597 458 606 436 q 572 497 588 481 q 535 524 557 514 q 489 535 514 535 z "},"¥":{"ha":965,"x_min":36,"x_max":1060,"o":"m 775 631 l 914 631 l 881 440 l 625 440 l 613 374 l 868 374 l 835 183 l 579 183 l 547 0 l 256 0 l 288 183 l 36 183 l 69 374 l 321 374 l 333 440 l 82 440 l 115 631 l 271 631 l 118 983 l 436 983 l 522 676 l 717 983 l 1060 983 l 775 631 z "},"¦":{"ha":374,"x_min":68,"x_max":307,"o":"m 307 997 l 307 433 l 68 433 l 68 997 l 307 997 m 307 278 l 307 -286 l 68 -286 l 68 278 l 307 278 z "},"§":{"ha":868,"x_min":-54,"x_max":875,"o":"m 813 417 q 774 290 813 338 q 686 217 736 243 q 717 167 703 200 q 732 93 732 133 q 713 -17 732 31 q 663 -98 694 -64 q 592 -154 632 -132 q 510 -190 553 -176 q 425 -208 467 -203 q 349 -212 383 -212 q 234 -201 292 -212 q 124 -169 176 -190 q 25 -115 71 -147 q -54 -39 -21 -82 l 163 132 q 206 86 181 104 q 258 58 231 68 q 311 42 285 47 q 360 38 338 38 q 401 45 381 38 q 422 74 422 53 q 417 92 422 83 q 397 109 411 100 q 356 128 382 118 q 288 151 329 138 q 194 185 239 167 q 115 232 149 204 q 60 298 81 260 q 40 392 40 336 q 52 461 40 429 q 83 519 64 493 q 126 564 101 544 q 178 597 151 583 q 153 642 163 615 q 144 703 144 669 q 183 849 144 790 q 281 944 222 908 q 406 994 339 979 q 528 1010 472 1010 q 749 963 658 1010 q 875 850 839 917 l 642 699 q 587 746 625 731 q 515 761 549 761 q 471 753 490 761 q 451 726 451 744 q 456 709 451 717 q 475 694 461 701 q 513 676 489 686 q 578 654 538 667 q 666 619 624 639 q 741 573 708 600 q 793 508 774 546 q 813 417 813 471 m 540 363 q 516 410 540 394 q 451 442 492 426 l 343 483 q 319 465 328 478 q 311 438 311 451 q 331 399 311 414 q 406 364 351 383 l 513 324 q 540 363 540 335 z "},"¨":{"ha":500,"x_min":1,"x_max":626,"o":"m 131 810 q 36 844 71 810 q 1 924 1 879 q 12 981 1 954 q 42 1029 22 1008 q 90 1062 63 1050 q 150 1074 117 1074 q 201 1064 178 1074 q 242 1039 225 1054 q 268 1003 258 1024 q 278 960 278 982 q 267 902 278 929 q 238 854 257 875 q 191 822 218 833 q 131 810 164 810 m 479 810 q 385 844 419 810 q 350 924 350 879 q 360 981 350 954 q 391 1029 371 1008 q 438 1062 411 1050 q 499 1074 465 1074 q 550 1064 526 1074 q 590 1039 574 1054 q 617 1003 607 1024 q 626 960 626 982 q 616 902 626 929 q 586 854 606 875 q 540 822 567 833 q 479 810 513 810 z "},"©":{"ha":1111,"x_min":28,"x_max":1083,"o":"m 828 715 q 722 793 788 765 q 585 821 657 821 q 451 798 514 821 q 342 732 389 775 q 268 628 296 689 q 240 490 240 567 q 267 349 240 411 q 342 245 294 288 q 451 181 389 203 q 585 158 514 158 q 719 183 657 158 q 826 251 782 207 l 699 374 q 649 339 679 350 q 588 328 619 328 q 524 342 551 328 q 479 380 497 357 q 452 432 461 403 q 443 492 443 461 q 452 551 443 522 q 478 603 461 581 q 521 640 496 626 q 579 654 546 654 q 643 642 614 654 q 692 604 672 631 l 828 715 m 28 490 q 69 695 28 600 q 183 861 111 790 q 351 973 254 932 q 557 1014 447 1014 q 761 973 665 1014 q 928 861 857 932 q 1042 695 1000 790 q 1083 490 1083 600 q 1042 287 1083 382 q 928 121 1000 192 q 761 10 857 50 q 557 -31 665 -31 q 351 10 447 -31 q 183 121 254 50 q 69 287 111 192 q 28 490 28 382 m 111 490 q 145 318 111 399 q 239 177 179 238 q 379 82 299 117 q 551 47 460 47 q 724 82 643 47 q 867 177 806 117 q 965 318 929 238 q 1000 490 1000 399 q 965 663 1000 582 q 870 805 931 744 q 729 901 810 865 q 557 936 649 936 q 384 901 465 936 q 242 805 303 865 q 147 663 182 744 q 111 490 111 582 z "},"ª":{"ha":542,"x_min":118,"x_max":529,"o":"m 367 760 l 357 760 q 292 751 319 760 q 265 718 265 742 q 276 696 265 701 q 300 690 288 690 q 342 706 325 690 q 364 747 360 722 l 367 760 m 497 658 q 493 624 494 642 q 492 597 492 607 l 347 597 q 347 615 347 603 q 349 633 347 626 l 347 633 q 236 588 306 588 q 194 594 215 588 q 156 613 174 600 q 128 644 139 625 q 118 692 118 664 q 139 767 118 738 q 194 815 160 797 q 276 839 229 832 q 372 846 322 846 l 372 854 q 359 877 372 869 q 325 885 346 885 q 278 875 301 885 q 238 850 256 865 l 163 935 q 251 988 200 969 q 347 1006 303 1006 q 484 969 439 1006 q 529 867 529 932 q 527 836 529 851 q 522 804 525 821 l 497 658 z "},"«":{"ha":810,"x_min":8,"x_max":789,"o":"m 310 729 l 463 617 l 253 379 l 372 149 l 190 49 l 8 392 l 310 729 m 633 713 l 789 600 l 579 363 l 694 149 l 510 49 l 332 375 l 633 713 z "},"¬":{"ha":925,"x_min":51,"x_max":840,"o":"m 621 436 l 51 436 l 51 636 l 840 636 l 840 199 l 621 199 l 621 436 z "},"­":{"ha":465,"x_min":8,"x_max":429,"o":"m 8 276 l 50 510 l 429 510 l 388 276 l 8 276 z "},"®":{"ha":833,"x_min":156,"x_max":789,"o":"m 479 724 q 507 733 496 724 q 518 756 518 742 q 506 774 518 767 q 479 781 494 781 l 443 781 l 443 724 l 479 724 m 526 507 l 465 638 l 443 638 l 443 507 l 321 507 l 321 876 l 479 876 q 539 871 508 876 q 593 851 569 865 q 632 815 617 838 q 647 757 647 792 q 581 654 647 681 l 665 507 l 526 507 m 156 683 q 181 806 156 749 q 249 906 206 864 q 350 974 292 949 q 474 999 408 999 q 597 974 539 999 q 697 906 654 949 q 764 806 739 864 q 789 683 789 749 q 764 561 789 618 q 697 462 739 504 q 597 395 654 419 q 474 371 539 371 q 350 395 408 371 q 249 462 292 419 q 181 561 206 504 q 156 683 156 618 m 206 683 q 226 581 206 629 q 284 495 247 532 q 369 438 321 458 q 474 417 418 417 q 577 438 529 417 q 661 495 625 458 q 718 581 697 532 q 739 683 739 629 q 718 788 739 739 q 661 872 697 836 q 577 929 625 908 q 474 950 529 950 q 369 929 418 950 q 284 872 321 908 q 226 788 247 836 q 206 683 206 739 z "},"¯":{"ha":500,"x_min":64,"x_max":583,"o":"m 64 849 l 86 981 l 583 981 l 561 849 l 64 849 z "},"°":{"ha":611,"x_min":113,"x_max":610,"o":"m 610 769 q 591 670 610 715 q 539 592 572 625 q 460 540 506 558 q 361 521 415 521 q 262 540 307 521 q 183 592 217 558 q 131 670 150 625 q 113 769 113 715 q 131 869 113 824 q 183 947 150 914 q 262 999 217 981 q 361 1018 307 1018 q 460 999 415 1018 q 539 947 506 981 q 591 869 572 914 q 610 769 610 824 m 496 769 q 457 865 496 826 q 361 904 418 904 q 265 865 304 904 q 226 769 226 826 q 265 674 226 713 q 361 635 304 635 q 457 674 418 635 q 496 769 496 713 z "},"±":{"ha":925,"x_min":43,"x_max":882,"o":"m 349 842 l 576 842 l 576 674 l 882 674 l 882 463 l 576 463 l 576 294 l 349 294 l 349 463 l 43 463 l 43 674 l 349 674 l 349 842 m 43 253 l 882 253 l 882 42 l 43 42 l 43 253 z "},"²":{"ha":625,"x_min":42,"x_max":613,"o":"m 42 365 l 69 524 l 350 719 q 385 749 368 732 q 401 782 401 767 q 391 813 401 801 q 354 825 381 825 q 305 805 324 825 q 279 751 286 785 l 93 779 q 192 939 117 878 q 381 1000 268 1000 q 468 989 426 1000 q 542 956 510 978 q 594 899 575 933 q 613 818 613 865 q 599 743 613 775 q 563 686 585 711 q 515 642 542 661 q 463 606 489 622 l 350 536 l 581 536 l 551 365 l 42 365 z "},"³":{"ha":625,"x_min":40,"x_max":600,"o":"m 569 568 q 545 472 569 511 q 482 406 521 432 q 396 367 443 379 q 303 356 349 356 q 211 367 254 356 q 133 401 168 378 q 74 458 99 424 q 40 540 50 493 l 222 585 q 251 539 229 556 q 306 522 274 522 q 347 533 326 522 q 368 568 368 544 q 344 607 368 597 q 281 617 321 617 l 224 617 l 247 753 l 313 753 q 374 763 346 753 q 401 800 401 772 q 387 831 401 822 q 353 839 372 839 q 307 826 328 839 q 279 792 286 813 l 104 838 q 149 910 121 879 q 210 960 176 940 q 285 990 244 981 q 367 999 325 999 q 449 991 407 999 q 524 964 490 983 q 578 911 557 944 q 600 828 600 878 q 590 777 600 800 q 563 738 579 754 q 526 709 546 721 q 486 692 506 697 q 547 644 525 676 q 569 568 569 613 z "},"´":{"ha":500,"x_min":167,"x_max":643,"o":"m 396 811 l 167 811 l 354 1011 l 643 1011 l 396 811 z "},"µ":{"ha":1053,"x_min":-25,"x_max":1038,"o":"m 521 731 l 443 365 q 438 336 440 354 q 436 306 436 318 q 451 243 436 269 q 504 217 465 217 q 591 257 561 217 q 633 356 621 297 l 713 731 l 1038 731 l 883 0 l 569 0 l 579 51 q 524 13 556 28 q 450 -3 493 -3 q 369 19 399 -3 l 300 -311 l -25 -311 l 196 731 l 521 731 z "},"¶":{"ha":893,"x_min":58,"x_max":901,"o":"m 486 -185 l 658 792 l 581 792 l 408 -185 l 200 -185 l 313 458 q 124 518 190 465 q 58 665 58 571 q 88 808 58 749 q 171 907 117 868 q 301 965 225 946 q 468 983 376 983 l 901 983 l 696 -185 l 486 -185 z "},"·":{"ha":492,"x_min":51,"x_max":411,"o":"m 219 233 q 149 245 181 233 q 97 278 118 257 q 63 325 75 299 q 51 381 51 351 q 65 456 51 421 q 105 518 79 492 q 166 560 131 544 q 244 575 201 575 q 313 563 282 575 q 365 531 343 551 q 399 483 386 510 q 411 428 411 457 q 397 352 411 388 q 358 290 383 317 q 298 249 333 264 q 219 233 263 233 z "},"¸":{"ha":500,"x_min":-90,"x_max":326,"o":"m 326 -181 q 306 -251 326 -222 q 254 -299 286 -281 q 181 -324 222 -317 q 99 -332 140 -332 q 51 -329 76 -332 q -1 -322 25 -326 q -50 -312 -26 -318 q -90 -300 -74 -307 l -33 -194 q 24 -211 -10 -206 q 85 -217 58 -217 q 122 -210 106 -217 q 139 -186 139 -204 q 125 -165 139 -171 q 92 -160 111 -160 q 62 -162 78 -160 q 32 -168 46 -164 l -18 -121 l 107 1 l 264 1 l 182 -74 q 194 -72 189 -72 q 206 -72 199 -72 q 242 -77 221 -72 q 281 -94 263 -82 q 313 -126 300 -106 q 326 -181 326 -147 z "},"¹":{"ha":625,"x_min":149,"x_max":567,"o":"m 253 365 l 325 771 l 208 708 l 149 861 l 381 983 l 567 983 l 457 365 l 253 365 z "},"º":{"ha":542,"x_min":92,"x_max":556,"o":"m 307 589 q 223 600 263 589 q 154 633 183 611 q 108 689 125 656 q 92 765 92 722 q 108 860 92 815 q 156 937 125 904 q 233 989 188 969 q 338 1008 279 1008 q 424 997 383 1008 q 493 964 464 986 q 539 908 522 942 q 556 832 556 875 q 539 738 556 782 q 491 660 522 693 q 413 608 460 628 q 307 589 367 589 m 392 814 q 376 854 392 838 q 332 871 361 871 q 276 845 297 871 q 256 785 256 819 q 272 743 256 760 q 315 726 288 726 q 372 752 351 726 q 392 814 392 778 z "},"»":{"ha":810,"x_min":0,"x_max":781,"o":"m 479 38 l 326 150 l 536 388 l 417 618 l 599 718 l 781 375 l 479 38 m 156 54 l 0 167 l 210 404 l 94 618 l 279 718 l 457 392 l 156 54 z "},"¼":{"ha":1389,"x_min":149,"x_max":1301,"o":"m 1189 111 l 1169 0 l 986 0 l 1006 111 l 714 111 l 743 275 l 1024 618 l 1275 618 l 1214 268 l 1301 268 l 1274 111 l 1189 111 m 1061 432 l 1058 432 l 925 268 l 1033 268 l 1061 432 m 253 365 l 325 771 l 208 708 l 149 861 l 381 983 l 567 983 l 457 365 l 253 365 m 424 -49 l 306 26 l 978 1026 l 1097 954 l 424 -49 z "},"½":{"ha":1389,"x_min":149,"x_max":1331,"o":"m 760 0 l 788 158 l 1068 354 q 1103 384 1086 367 q 1119 417 1119 401 q 1109 448 1119 436 q 1072 460 1099 460 q 1023 440 1042 460 q 997 386 1004 419 l 811 414 q 910 574 835 513 q 1099 635 986 635 q 1186 624 1144 635 q 1260 590 1228 613 q 1312 534 1293 568 q 1331 453 1331 500 q 1317 378 1331 410 q 1281 321 1303 346 q 1233 276 1260 296 q 1181 240 1207 257 l 1068 171 l 1299 171 l 1269 0 l 760 0 m 253 365 l 325 771 l 208 708 l 149 861 l 381 983 l 567 983 l 457 365 l 253 365 m 424 -49 l 306 26 l 978 1026 l 1097 954 l 424 -49 z "},"¾":{"ha":1389,"x_min":40,"x_max":1294,"o":"m 1185 110 l 1165 0 l 981 0 l 1000 110 l 703 110 l 732 275 l 1028 618 l 1274 618 l 1213 269 l 1294 269 l 1267 110 l 1185 110 m 1057 429 l 1056 429 l 921 269 l 1029 269 l 1057 429 m 569 568 q 545 472 569 511 q 482 406 521 432 q 396 367 443 379 q 303 356 349 356 q 211 367 254 356 q 133 401 168 378 q 74 458 99 424 q 40 540 50 493 l 222 585 q 251 539 229 556 q 306 522 274 522 q 347 533 326 522 q 368 568 368 544 q 344 607 368 597 q 281 617 321 617 l 224 617 l 247 753 l 313 753 q 374 763 346 753 q 401 800 401 772 q 387 831 401 822 q 353 839 372 839 q 307 826 328 839 q 279 792 286 813 l 104 838 q 149 910 121 879 q 210 960 176 940 q 285 990 244 981 q 367 999 325 999 q 449 991 407 999 q 524 964 490 983 q 578 911 557 944 q 600 828 600 878 q 590 777 600 800 q 563 738 579 754 q 526 709 546 721 q 486 692 506 697 q 547 644 525 676 q 569 568 569 613 m 424 -49 l 306 26 l 978 1026 l 1097 954 l 424 -49 z "},"¿":{"ha":810,"x_min":-56,"x_max":707,"o":"m 175 276 q 224 314 210 296 q 242 353 238 332 l 247 389 l 535 389 l 526 338 q 503 265 519 296 q 465 210 488 235 q 415 163 443 185 q 354 119 388 142 l 325 100 q 277 61 289 76 q 265 24 265 46 q 283 -12 265 -1 q 322 -22 300 -22 q 394 11 369 -22 q 426 89 419 44 l 707 39 q 646 -104 688 -44 q 547 -202 604 -164 q 423 -258 490 -240 q 285 -276 356 -276 q 154 -263 215 -276 q 46 -219 93 -250 q -28 -140 -1 -189 q -56 -18 -56 -90 q -40 79 -56 38 q 4 154 -25 121 q 76 217 33 188 q 175 276 119 246 m 417 753 q 484 741 454 753 q 535 710 514 729 q 567 665 556 690 q 578 611 578 639 q 565 540 578 574 q 527 480 551 506 q 469 440 503 454 q 393 425 435 425 q 328 437 357 425 q 278 468 299 449 q 245 513 257 488 q 233 567 233 539 q 247 640 233 606 q 284 699 260 674 q 342 738 308 724 q 417 753 376 753 z "},"À":{"ha":1076,"x_min":-115,"x_max":1000,"o":"m 667 0 l 644 150 l 325 150 l 243 0 l -115 0 l 489 983 l 828 983 l 1000 0 l 667 0 m 589 649 l 449 396 l 618 396 l 589 649 m 646 1261 l 821 1061 l 592 1061 l 357 1261 l 646 1261 z "},"Á":{"ha":1076,"x_min":-115,"x_max":1000,"o":"m 667 0 l 644 150 l 325 150 l 243 0 l -115 0 l 489 983 l 828 983 l 1000 0 l 667 0 m 589 649 l 449 396 l 618 396 l 589 649 m 749 1061 l 519 1061 l 707 1261 l 996 1261 l 749 1061 z "},"Â":{"ha":1076,"x_min":-115,"x_max":1000,"o":"m 667 0 l 644 150 l 325 150 l 243 0 l -115 0 l 489 983 l 828 983 l 1000 0 l 667 0 m 589 649 l 449 396 l 618 396 l 589 649 m 757 1061 l 681 1157 l 571 1061 l 363 1061 l 586 1261 l 818 1261 l 968 1061 l 757 1061 z "},"Ã":{"ha":1076,"x_min":-115,"x_max":1000,"o":"m 667 0 l 644 150 l 325 150 l 243 0 l -115 0 l 489 983 l 828 983 l 1000 0 l 667 0 m 589 649 l 449 396 l 618 396 l 589 649 m 956 1250 q 928 1174 946 1210 q 885 1113 910 1139 q 829 1072 860 1086 q 763 1057 799 1057 q 708 1065 733 1057 q 656 1089 682 1074 q 610 1113 625 1107 q 574 1119 594 1119 q 535 1105 551 1119 q 513 1069 519 1090 l 403 1069 q 430 1142 413 1108 q 472 1202 447 1176 q 526 1242 496 1228 q 593 1257 557 1257 q 649 1248 625 1257 q 701 1224 674 1239 q 749 1201 732 1208 q 788 1194 765 1194 q 823 1208 810 1194 q 847 1250 836 1222 l 956 1250 z "},"Ä":{"ha":1076,"x_min":-115,"x_max":1000,"o":"m 667 0 l 644 150 l 325 150 l 243 0 l -115 0 l 489 983 l 828 983 l 1000 0 l 667 0 m 589 649 l 449 396 l 618 396 l 589 649 m 499 1060 q 404 1094 439 1060 q 369 1174 369 1129 q 380 1231 369 1204 q 410 1279 390 1258 q 458 1312 431 1300 q 518 1324 485 1324 q 569 1314 546 1324 q 610 1289 593 1304 q 636 1253 626 1274 q 646 1210 646 1232 q 635 1152 646 1179 q 606 1104 625 1125 q 559 1072 586 1083 q 499 1060 532 1060 m 847 1060 q 753 1094 788 1060 q 718 1174 718 1129 q 728 1231 718 1204 q 759 1279 739 1258 q 806 1312 779 1300 q 867 1324 833 1324 q 918 1314 894 1324 q 958 1289 942 1304 q 985 1253 975 1274 q 994 1210 994 1232 q 984 1152 994 1179 q 954 1104 974 1125 q 908 1072 935 1083 q 847 1060 881 1060 z "},"Å":{"ha":1076,"x_min":-115,"x_max":1000,"o":"m 667 0 l 644 150 l 325 150 l 243 0 l -115 0 l 489 983 l 828 983 l 1000 0 l 667 0 m 589 649 l 449 396 l 618 396 l 589 649 m 664 1035 q 565 1070 603 1035 q 526 1163 526 1106 q 540 1233 526 1200 q 576 1292 553 1267 q 631 1331 599 1317 q 701 1346 664 1346 q 802 1311 764 1346 q 840 1218 840 1276 q 827 1147 840 1181 q 790 1089 814 1114 q 735 1049 767 1064 q 664 1035 703 1035 m 769 1211 q 750 1263 769 1242 q 696 1283 731 1283 q 625 1250 653 1283 q 597 1171 597 1217 q 617 1119 597 1139 q 669 1099 636 1099 q 742 1132 714 1099 q 769 1211 769 1165 z "},"Æ":{"ha":1406,"x_min":-81,"x_max":1410,"o":"m 1363 715 l 1022 715 l 1006 621 l 1331 621 l 1286 371 l 961 371 l 943 268 l 1324 268 l 1276 0 l 603 0 l 629 151 l 381 151 l 281 0 l -81 0 l 590 983 l 1410 983 l 1363 715 m 729 715 l 724 715 l 518 399 l 674 399 l 729 715 z "},"Ç":{"ha":953,"x_min":43,"x_max":1008,"o":"m 663 -181 q 642 -251 663 -222 q 590 -299 622 -281 q 517 -324 558 -317 q 435 -332 476 -332 q 387 -329 413 -332 q 335 -322 361 -326 q 286 -312 310 -318 q 246 -300 263 -307 l 303 -194 q 360 -211 326 -206 q 421 -217 394 -217 q 458 -210 442 -217 q 475 -186 475 -204 q 461 -165 475 -171 q 428 -160 447 -160 q 398 -162 414 -160 q 368 -168 382 -164 l 318 -121 l 419 -21 q 260 26 329 -8 q 142 117 190 61 q 68 246 93 172 q 43 407 43 319 q 87 643 43 533 q 210 835 131 753 q 397 964 289 917 q 635 1011 506 1011 q 860 972 763 1011 q 1008 874 957 932 l 785 643 q 719 697 760 679 q 626 714 678 714 q 531 692 574 714 q 457 634 488 671 q 410 549 426 597 q 393 444 393 500 q 438 322 393 372 q 574 272 483 272 q 672 294 626 272 q 751 349 718 317 l 910 113 q 850 67 883 89 q 775 26 817 44 q 683 -7 733 7 q 571 -25 632 -21 l 518 -74 q 530 -72 525 -72 q 542 -72 535 -72 q 578 -77 557 -72 q 617 -94 599 -82 q 649 -126 636 -106 q 663 -181 663 -147 z "},"È":{"ha":822,"x_min":10,"x_max":826,"o":"m 10 0 l 183 983 l 826 983 l 779 715 l 439 715 l 422 621 l 747 621 l 703 371 l 378 371 l 360 268 l 740 268 l 693 0 l 10 0 m 503 1261 l 678 1061 l 449 1061 l 214 1261 l 503 1261 z "},"É":{"ha":822,"x_min":10,"x_max":857,"o":"m 10 0 l 183 983 l 826 983 l 779 715 l 439 715 l 422 621 l 747 621 l 703 371 l 378 371 l 360 268 l 740 268 l 693 0 l 10 0 m 610 1061 l 381 1061 l 568 1261 l 857 1261 l 610 1061 z "},"Ê":{"ha":822,"x_min":10,"x_max":828,"o":"m 10 0 l 183 983 l 826 983 l 779 715 l 439 715 l 422 621 l 747 621 l 703 371 l 378 371 l 360 268 l 740 268 l 693 0 l 10 0 m 617 1061 l 540 1157 l 431 1061 l 222 1061 l 446 1261 l 678 1261 l 828 1061 l 617 1061 z "},"Ë":{"ha":822,"x_min":10,"x_max":856,"o":"m 10 0 l 183 983 l 826 983 l 779 715 l 439 715 l 422 621 l 747 621 l 703 371 l 378 371 l 360 268 l 740 268 l 693 0 l 10 0 m 360 1060 q 265 1094 300 1060 q 231 1174 231 1129 q 241 1231 231 1204 q 272 1279 251 1258 q 319 1312 292 1300 q 379 1324 346 1324 q 431 1314 407 1324 q 471 1289 454 1304 q 497 1253 488 1274 q 507 1210 507 1232 q 497 1152 507 1179 q 467 1104 486 1125 q 420 1072 447 1083 q 360 1060 393 1060 m 708 1060 q 614 1094 649 1060 q 579 1174 579 1129 q 590 1231 579 1204 q 620 1279 600 1258 q 667 1312 640 1300 q 728 1324 694 1324 q 779 1314 756 1324 q 819 1289 803 1304 q 846 1253 836 1274 q 856 1210 856 1232 q 845 1152 856 1179 q 815 1104 835 1125 q 769 1072 796 1083 q 708 1060 742 1060 z "},"Ì":{"ha":510,"x_min":10,"x_max":508,"o":"m 10 0 l 183 983 l 507 983 l 333 0 l 10 0 m 333 1261 l 508 1061 l 279 1061 l 44 1261 l 333 1261 z "},"Í":{"ha":510,"x_min":10,"x_max":667,"o":"m 10 0 l 183 983 l 507 983 l 333 0 l 10 0 m 419 1061 l 190 1061 l 378 1261 l 667 1261 l 419 1061 z "},"Î":{"ha":510,"x_min":10,"x_max":661,"o":"m 10 0 l 183 983 l 507 983 l 333 0 l 10 0 m 450 1061 l 374 1157 l 264 1061 l 56 1061 l 279 1261 l 511 1261 l 661 1061 l 450 1061 z "},"Ï":{"ha":510,"x_min":10,"x_max":682,"o":"m 10 0 l 183 983 l 507 983 l 333 0 l 10 0 m 186 1060 q 92 1094 126 1060 q 57 1174 57 1129 q 67 1231 57 1204 q 98 1279 78 1258 q 145 1312 118 1300 q 206 1324 172 1324 q 257 1314 233 1324 q 297 1289 281 1304 q 324 1253 314 1274 q 333 1210 333 1232 q 323 1152 333 1179 q 293 1104 313 1125 q 247 1072 274 1083 q 186 1060 219 1060 m 535 1060 q 440 1094 475 1060 q 406 1174 406 1129 q 416 1231 406 1204 q 447 1279 426 1258 q 494 1312 467 1300 q 554 1324 521 1324 q 606 1314 582 1324 q 646 1289 629 1304 q 672 1253 663 1274 q 682 1210 682 1232 q 672 1152 682 1179 q 642 1104 661 1125 q 595 1072 622 1083 q 535 1060 568 1060 z "},"Ð":{"ha":1093,"x_min":10,"x_max":1063,"o":"m 15 397 l 50 594 l 115 594 l 183 983 l 590 983 q 758 960 674 983 q 909 888 842 938 q 1019 758 976 838 q 1063 564 1063 678 q 1017 330 1063 435 q 892 152 972 225 q 701 40 811 79 q 463 0 592 0 l 10 0 l 79 397 l 15 397 m 586 594 l 551 397 l 394 397 l 372 276 l 476 276 q 586 298 539 276 q 665 355 633 319 q 713 435 697 390 q 729 529 729 481 q 718 600 729 567 q 683 658 707 633 q 623 697 660 682 q 536 711 586 711 l 450 711 l 429 594 l 586 594 z "},"Ñ":{"ha":1099,"x_min":10,"x_max":1096,"o":"m 599 0 l 404 488 l 399 488 l 322 0 l 10 0 l 183 983 l 499 983 l 697 471 l 703 471 l 783 983 l 1096 983 l 922 0 l 599 0 m 944 1250 q 917 1174 935 1210 q 874 1113 899 1139 q 818 1072 849 1086 q 751 1057 788 1057 q 697 1065 722 1057 q 644 1089 671 1074 q 599 1113 614 1107 q 563 1119 583 1119 q 524 1105 540 1119 q 501 1069 508 1090 l 392 1069 q 419 1142 401 1108 q 460 1202 436 1176 q 515 1242 485 1228 q 582 1257 546 1257 q 638 1248 614 1257 q 690 1224 663 1239 q 738 1201 721 1208 q 776 1194 754 1194 q 812 1208 799 1194 q 836 1250 825 1222 l 944 1250 z "},"Ò":{"ha":1157,"x_min":43,"x_max":1129,"o":"m 531 -25 q 322 8 413 -25 q 169 100 231 40 q 75 242 107 160 q 43 422 43 324 q 86 651 43 544 q 207 838 129 758 q 395 963 285 917 q 640 1008 506 1008 q 851 976 760 1008 q 1003 883 942 943 q 1097 742 1065 824 q 1129 561 1129 660 q 1087 332 1129 439 q 966 146 1044 225 q 777 21 888 67 q 531 -25 667 -25 m 794 538 q 783 608 794 575 q 748 665 771 640 q 691 703 725 689 q 614 717 657 717 q 516 694 560 717 q 442 633 472 671 q 394 547 411 596 q 378 449 378 499 q 390 378 378 411 q 424 322 401 346 q 481 283 447 297 q 560 269 515 269 q 657 292 614 269 q 731 351 700 314 q 778 438 761 389 q 794 538 794 486 m 665 1261 l 840 1061 l 611 1061 l 376 1261 l 665 1261 z "},"Ó":{"ha":1157,"x_min":43,"x_max":1129,"o":"m 531 -25 q 322 8 413 -25 q 169 100 231 40 q 75 242 107 160 q 43 422 43 324 q 86 651 43 544 q 207 838 129 758 q 395 963 285 917 q 640 1008 506 1008 q 851 976 760 1008 q 1003 883 942 943 q 1097 742 1065 824 q 1129 561 1129 660 q 1087 332 1129 439 q 966 146 1044 225 q 777 21 888 67 q 531 -25 667 -25 m 794 538 q 783 608 794 575 q 748 665 771 640 q 691 703 725 689 q 614 717 657 717 q 516 694 560 717 q 442 633 472 671 q 394 547 411 596 q 378 449 378 499 q 390 378 378 411 q 424 322 401 346 q 481 283 447 297 q 560 269 515 269 q 657 292 614 269 q 731 351 700 314 q 778 438 761 389 q 794 538 794 486 m 767 1061 l 538 1061 l 725 1261 l 1014 1261 l 767 1061 z "},"Ô":{"ha":1157,"x_min":43,"x_max":1129,"o":"m 531 -25 q 322 8 413 -25 q 169 100 231 40 q 75 242 107 160 q 43 422 43 324 q 86 651 43 544 q 207 838 129 758 q 395 963 285 917 q 640 1008 506 1008 q 851 976 760 1008 q 1003 883 942 943 q 1097 742 1065 824 q 1129 561 1129 660 q 1087 332 1129 439 q 966 146 1044 225 q 777 21 888 67 q 531 -25 667 -25 m 794 538 q 783 608 794 575 q 748 665 771 640 q 691 703 725 689 q 614 717 657 717 q 516 694 560 717 q 442 633 472 671 q 394 547 411 596 q 378 449 378 499 q 390 378 378 411 q 424 322 401 346 q 481 283 447 297 q 560 269 515 269 q 657 292 614 269 q 731 351 700 314 q 778 438 761 389 q 794 538 794 486 m 776 1061 l 700 1157 l 590 1061 l 382 1061 l 606 1261 l 838 1261 l 988 1061 l 776 1061 z "},"Õ":{"ha":1157,"x_min":43,"x_max":1129,"o":"m 531 -25 q 322 8 413 -25 q 169 100 231 40 q 75 242 107 160 q 43 422 43 324 q 86 651 43 544 q 207 838 129 758 q 395 963 285 917 q 640 1008 506 1008 q 851 976 760 1008 q 1003 883 942 943 q 1097 742 1065 824 q 1129 561 1129 660 q 1087 332 1129 439 q 966 146 1044 225 q 777 21 888 67 q 531 -25 667 -25 m 794 538 q 783 608 794 575 q 748 665 771 640 q 691 703 725 689 q 614 717 657 717 q 516 694 560 717 q 442 633 472 671 q 394 547 411 596 q 378 449 378 499 q 390 378 378 411 q 424 322 401 346 q 481 283 447 297 q 560 269 515 269 q 657 292 614 269 q 731 351 700 314 q 778 438 761 389 q 794 538 794 486 m 975 1250 q 947 1174 965 1210 q 904 1113 929 1139 q 849 1072 879 1086 q 782 1057 818 1057 q 727 1065 753 1057 q 675 1089 701 1074 q 629 1113 644 1107 q 593 1119 614 1119 q 555 1105 571 1119 q 532 1069 539 1090 l 422 1069 q 449 1142 432 1108 q 491 1202 467 1176 q 546 1242 515 1228 q 613 1257 576 1257 q 669 1248 644 1257 q 721 1224 693 1239 q 768 1201 751 1208 q 807 1194 785 1194 q 842 1208 829 1194 q 867 1250 856 1222 l 975 1250 z "},"Ö":{"ha":1157,"x_min":43,"x_max":1129,"o":"m 531 -25 q 322 8 413 -25 q 169 100 231 40 q 75 242 107 160 q 43 422 43 324 q 86 651 43 544 q 207 838 129 758 q 395 963 285 917 q 640 1008 506 1008 q 851 976 760 1008 q 1003 883 942 943 q 1097 742 1065 824 q 1129 561 1129 660 q 1087 332 1129 439 q 966 146 1044 225 q 777 21 888 67 q 531 -25 667 -25 m 794 538 q 783 608 794 575 q 748 665 771 640 q 691 703 725 689 q 614 717 657 717 q 516 694 560 717 q 442 633 472 671 q 394 547 411 596 q 378 449 378 499 q 390 378 378 411 q 424 322 401 346 q 481 283 447 297 q 560 269 515 269 q 657 292 614 269 q 731 351 700 314 q 778 438 761 389 q 794 538 794 486 m 521 1060 q 426 1094 461 1060 q 392 1174 392 1129 q 402 1231 392 1204 q 433 1279 413 1258 q 480 1312 453 1300 q 540 1324 507 1324 q 592 1314 568 1324 q 632 1289 615 1304 q 658 1253 649 1274 q 668 1210 668 1232 q 658 1152 668 1179 q 628 1104 647 1125 q 581 1072 608 1083 q 521 1060 554 1060 m 869 1060 q 775 1094 810 1060 q 740 1174 740 1129 q 751 1231 740 1204 q 781 1279 761 1258 q 828 1312 801 1300 q 889 1324 856 1324 q 940 1314 917 1324 q 981 1289 964 1304 q 1007 1253 997 1274 q 1017 1210 1017 1232 q 1006 1152 1017 1179 q 976 1104 996 1125 q 930 1072 957 1083 q 869 1060 903 1060 z "},"×":{"ha":925,"x_min":67,"x_max":860,"o":"m 228 799 q 347 685 288 740 q 465 572 406 631 q 581 685 524 628 q 696 797 638 742 q 774 725 735 761 q 851 653 813 689 q 735 538 793 594 q 619 424 678 482 q 740 310 681 367 q 860 196 799 253 q 781 118 821 157 q 701 40 740 79 q 583 155 642 99 q 464 269 524 211 q 345 155 403 211 q 226 40 288 99 q 149 113 188 78 q 71 186 110 149 q 188 303 129 244 q 306 419 247 361 q 186 532 246 476 q 67 644 126 588 q 147 722 107 682 q 228 799 188 761 z "},"Ø":{"ha":1157,"x_min":-43,"x_max":1200,"o":"m 68 -76 l -43 35 l 108 172 q 60 287 76 224 q 43 422 43 350 q 86 651 43 544 q 207 838 129 758 q 395 963 285 917 q 640 1008 506 1008 q 810 988 733 1008 q 947 929 886 967 l 1089 1063 l 1200 950 l 1057 821 q 1129 561 1129 713 q 1087 332 1129 439 q 966 146 1044 225 q 777 21 888 67 q 531 -25 667 -25 q 357 -3 435 -25 q 218 60 279 19 l 68 -76 m 544 261 q 660 285 611 261 q 740 349 708 310 q 788 438 772 388 q 803 539 803 488 q 801 559 803 549 q 797 581 800 569 l 464 275 q 501 265 479 268 q 544 261 522 261 m 624 721 q 508 697 557 721 q 428 633 460 672 q 381 543 396 593 q 365 442 365 493 q 369 403 365 424 l 703 708 q 667 718 688 715 q 624 721 646 721 z "},"Ù":{"ha":1071,"x_min":56,"x_max":1074,"o":"m 967 361 q 915 202 951 274 q 817 81 878 131 q 672 3 757 31 q 478 -25 588 -25 q 306 -4 383 -25 q 172 56 228 17 q 86 153 117 96 q 56 282 56 210 q 58 327 56 301 q 64 374 61 353 l 168 983 l 486 983 l 385 415 q 382 392 382 404 q 382 369 382 379 q 410 289 382 324 q 504 254 438 254 q 574 268 547 254 q 618 304 601 282 q 643 354 635 326 q 657 410 651 382 l 761 983 l 1074 983 l 967 361 m 613 1261 l 788 1061 l 558 1061 l 324 1261 l 613 1261 z "},"Ú":{"ha":1071,"x_min":56,"x_max":1074,"o":"m 967 361 q 915 202 951 274 q 817 81 878 131 q 672 3 757 31 q 478 -25 588 -25 q 306 -4 383 -25 q 172 56 228 17 q 86 153 117 96 q 56 282 56 210 q 58 327 56 301 q 64 374 61 353 l 168 983 l 486 983 l 385 415 q 382 392 382 404 q 382 369 382 379 q 410 289 382 324 q 504 254 438 254 q 574 268 547 254 q 618 304 601 282 q 643 354 635 326 q 657 410 651 382 l 761 983 l 1074 983 l 967 361 m 728 1061 l 499 1061 l 686 1261 l 975 1261 l 728 1061 z "},"Û":{"ha":1071,"x_min":56,"x_max":1074,"o":"m 967 361 q 915 202 951 274 q 817 81 878 131 q 672 3 757 31 q 478 -25 588 -25 q 306 -4 383 -25 q 172 56 228 17 q 86 153 117 96 q 56 282 56 210 q 58 327 56 301 q 64 374 61 353 l 168 983 l 486 983 l 385 415 q 382 392 382 404 q 382 369 382 379 q 410 289 382 324 q 504 254 438 254 q 574 268 547 254 q 618 304 601 282 q 643 354 635 326 q 657 410 651 382 l 761 983 l 1074 983 l 967 361 m 731 1061 l 654 1157 l 544 1061 l 336 1061 l 560 1261 l 792 1261 l 942 1061 l 731 1061 z "},"Ü":{"ha":1071,"x_min":56,"x_max":1074,"o":"m 967 361 q 915 202 951 274 q 817 81 878 131 q 672 3 757 31 q 478 -25 588 -25 q 306 -4 383 -25 q 172 56 228 17 q 86 153 117 96 q 56 282 56 210 q 58 327 56 301 q 64 374 61 353 l 168 983 l 486 983 l 385 415 q 382 392 382 404 q 382 369 382 379 q 410 289 382 324 q 504 254 438 254 q 574 268 547 254 q 618 304 601 282 q 643 354 635 326 q 657 410 651 382 l 761 983 l 1074 983 l 967 361 m 476 1060 q 382 1094 417 1060 q 347 1174 347 1129 q 358 1231 347 1204 q 388 1279 368 1258 q 435 1312 408 1300 q 496 1324 463 1324 q 547 1314 524 1324 q 588 1289 571 1304 q 614 1253 604 1274 q 624 1210 624 1232 q 613 1152 624 1179 q 583 1104 603 1125 q 537 1072 564 1083 q 476 1060 510 1060 m 825 1060 q 731 1094 765 1060 q 696 1174 696 1129 q 706 1231 696 1204 q 737 1279 717 1258 q 784 1312 757 1300 q 844 1324 811 1324 q 896 1314 872 1324 q 936 1289 919 1304 q 963 1253 953 1274 q 972 1210 972 1232 q 962 1152 972 1179 q 932 1104 951 1125 q 885 1072 913 1083 q 825 1060 858 1060 z "},"Ý":{"ha":940,"x_min":31,"x_max":1096,"o":"m 611 404 l 540 0 l 219 0 l 290 404 l 31 983 l 389 983 l 494 679 l 704 983 l 1096 983 l 611 404 m 681 1061 l 451 1061 l 639 1261 l 928 1261 l 681 1061 z "},"Þ":{"ha":958,"x_min":10,"x_max":917,"o":"m 329 0 l 10 0 l 183 983 l 504 983 l 479 839 l 525 839 q 816 760 715 839 q 917 542 917 681 q 885 378 917 447 q 794 264 854 308 q 650 198 735 219 q 457 176 565 176 l 363 176 l 329 0 m 456 418 q 560 440 522 418 q 597 510 597 463 q 567 571 597 554 q 483 588 536 588 l 435 588 l 404 418 l 456 418 z "},"ß":{"ha":989,"x_min":-10,"x_max":929,"o":"m 492 -17 q 426 -13 461 -17 q 358 -1 390 -10 l 397 226 q 428 219 408 222 q 464 217 449 217 q 565 250 535 217 q 596 342 596 283 q 560 415 596 390 q 471 440 524 440 l 458 440 l 496 664 l 510 664 q 551 669 531 664 q 590 685 572 674 q 618 715 607 696 q 629 763 629 735 q 605 820 629 803 q 547 838 581 838 q 498 826 518 838 q 464 794 478 814 q 442 750 450 775 q 429 700 433 725 l 306 0 l -10 0 l 115 707 q 154 843 128 778 q 232 958 181 908 q 363 1037 283 1007 q 564 1067 443 1067 q 689 1054 624 1067 q 807 1013 754 1042 q 894 934 860 983 q 929 810 929 885 q 913 713 929 754 q 869 641 896 671 q 805 592 842 611 q 729 565 768 574 l 729 563 q 793 535 761 554 q 851 488 825 517 q 892 418 876 458 q 908 328 908 378 q 801 72 908 160 q 492 -17 694 -17 z "},"à":{"ha":817,"x_min":1,"x_max":760,"o":"m 461 300 l 443 300 q 378 296 408 300 q 324 283 347 292 q 288 259 301 274 q 274 222 274 244 q 294 181 274 190 q 338 172 314 172 q 416 201 383 172 q 457 276 449 231 l 461 300 m 701 113 q 694 50 696 82 q 692 0 692 18 l 425 0 q 426 31 425 10 q 428 67 426 53 l 425 67 q 333 1 385 21 q 219 -19 282 -19 q 142 -8 181 -19 q 72 26 103 3 q 21 85 40 49 q 1 174 1 122 q 40 313 1 258 q 142 400 78 368 q 292 445 207 432 q 469 458 376 458 q 471 467 471 464 q 471 474 471 471 q 447 516 471 501 q 383 531 422 531 q 297 513 339 531 q 221 467 256 496 l 85 622 q 160 678 118 654 q 247 719 203 703 q 338 744 292 736 q 425 753 383 753 q 676 685 592 753 q 760 496 760 618 q 749 381 760 444 l 701 113 m 454 1011 l 629 811 l 400 811 l 165 1011 l 454 1011 z "},"á":{"ha":817,"x_min":0,"x_max":799,"o":"m 460 300 l 442 300 q 376 296 407 300 q 323 283 346 292 q 286 259 300 274 q 272 222 272 244 q 292 181 272 190 q 336 172 313 172 q 415 201 382 172 q 456 276 447 231 l 460 300 m 700 113 q 692 50 694 82 q 690 0 690 18 l 424 0 q 424 31 424 10 q 426 67 425 53 l 424 67 q 332 1 383 21 q 218 -19 281 -19 q 140 -8 179 -19 q 70 26 101 3 q 19 85 39 49 q 0 174 0 122 q 38 313 0 258 q 141 400 76 368 q 290 445 206 432 q 468 458 375 458 q 469 467 469 464 q 469 474 469 471 q 445 516 469 501 q 382 531 421 531 q 296 513 338 531 q 219 467 254 496 l 83 622 q 159 678 117 654 q 246 719 201 703 q 336 744 290 736 q 424 753 382 753 q 674 685 590 753 q 758 496 758 618 q 747 381 758 444 l 700 113 m 551 811 l 322 811 l 510 1011 l 799 1011 l 551 811 z "},"â":{"ha":817,"x_min":0,"x_max":765,"o":"m 460 300 l 442 300 q 376 296 407 300 q 323 283 346 292 q 286 259 300 274 q 272 222 272 244 q 292 181 272 190 q 336 172 313 172 q 415 201 382 172 q 456 276 447 231 l 460 300 m 700 113 q 692 50 694 82 q 690 0 690 18 l 424 0 q 424 31 424 10 q 426 67 425 53 l 424 67 q 332 1 383 21 q 218 -19 281 -19 q 140 -8 179 -19 q 70 26 101 3 q 19 85 39 49 q 0 174 0 122 q 38 313 0 258 q 141 400 76 368 q 290 445 206 432 q 468 458 375 458 q 469 467 469 464 q 469 474 469 471 q 445 516 469 501 q 382 531 421 531 q 296 513 338 531 q 219 467 254 496 l 83 622 q 159 678 117 654 q 246 719 201 703 q 336 744 290 736 q 424 753 382 753 q 674 685 590 753 q 758 496 758 618 q 747 381 758 444 l 700 113 m 554 811 l 478 907 l 368 811 l 160 811 l 383 1011 l 615 1011 l 765 811 l 554 811 z "},"ã":{"ha":817,"x_min":0,"x_max":758,"o":"m 460 300 l 442 300 q 376 296 407 300 q 323 283 346 292 q 286 259 300 274 q 272 222 272 244 q 292 181 272 190 q 336 172 313 172 q 415 201 382 172 q 456 276 447 231 l 460 300 m 700 113 q 692 50 694 82 q 690 0 690 18 l 424 0 q 424 31 424 10 q 426 67 425 53 l 424 67 q 332 1 383 21 q 218 -19 281 -19 q 140 -8 179 -19 q 70 26 101 3 q 19 85 39 49 q 0 174 0 122 q 38 313 0 258 q 141 400 76 368 q 290 445 206 432 q 468 458 375 458 q 469 467 469 464 q 469 474 469 471 q 445 516 469 501 q 382 531 421 531 q 296 513 338 531 q 219 467 254 496 l 83 622 q 159 678 117 654 q 246 719 201 703 q 336 744 290 736 q 424 753 382 753 q 674 685 590 753 q 758 496 758 618 q 747 381 758 444 l 700 113 m 751 1000 q 724 924 742 960 q 681 863 706 889 q 625 822 656 836 q 558 807 594 807 q 503 815 529 807 q 451 839 478 824 q 406 863 421 857 q 369 869 390 869 q 331 855 347 869 q 308 819 315 840 l 199 819 q 226 892 208 858 q 267 952 243 926 q 322 992 292 978 q 389 1007 353 1007 q 445 998 421 1007 q 497 974 469 989 q 544 951 528 958 q 583 944 561 944 q 619 958 606 944 q 643 1000 632 972 l 751 1000 z "},"ä":{"ha":817,"x_min":0,"x_max":794,"o":"m 460 300 l 442 300 q 376 296 407 300 q 323 283 346 292 q 286 259 300 274 q 272 222 272 244 q 292 181 272 190 q 336 172 313 172 q 415 201 382 172 q 456 276 447 231 l 460 300 m 700 113 q 692 50 694 82 q 690 0 690 18 l 424 0 q 424 31 424 10 q 426 67 425 53 l 424 67 q 332 1 383 21 q 218 -19 281 -19 q 140 -8 179 -19 q 70 26 101 3 q 19 85 39 49 q 0 174 0 122 q 38 313 0 258 q 141 400 76 368 q 290 445 206 432 q 468 458 375 458 q 469 467 469 464 q 469 474 469 471 q 445 516 469 501 q 382 531 421 531 q 296 513 338 531 q 219 467 254 496 l 83 622 q 159 678 117 654 q 246 719 201 703 q 336 744 290 736 q 424 753 382 753 q 674 685 590 753 q 758 496 758 618 q 747 381 758 444 l 700 113 m 299 810 q 204 844 239 810 q 169 924 169 879 q 180 981 169 954 q 210 1029 190 1008 q 258 1062 231 1050 q 318 1074 285 1074 q 369 1064 346 1074 q 410 1039 393 1054 q 436 1003 426 1024 q 446 960 446 982 q 435 902 446 929 q 406 854 425 875 q 359 822 386 833 q 299 810 332 810 m 647 810 q 553 844 588 810 q 518 924 518 879 q 528 981 518 954 q 559 1029 539 1008 q 606 1062 579 1050 q 667 1074 633 1074 q 718 1064 694 1074 q 758 1039 742 1054 q 785 1003 775 1024 q 794 960 794 982 q 784 902 794 929 q 754 854 774 875 q 708 822 735 833 q 647 810 681 810 z "},"å":{"ha":817,"x_min":0,"x_max":758,"o":"m 460 300 l 442 300 q 376 296 407 300 q 323 283 346 292 q 286 259 300 274 q 272 222 272 244 q 292 181 272 190 q 336 172 313 172 q 415 201 382 172 q 456 276 447 231 l 460 300 m 700 113 q 692 50 694 82 q 690 0 690 18 l 424 0 q 424 31 424 10 q 426 67 425 53 l 424 67 q 332 1 383 21 q 218 -19 281 -19 q 140 -8 179 -19 q 70 26 101 3 q 19 85 39 49 q 0 174 0 122 q 38 313 0 258 q 141 400 76 368 q 290 445 206 432 q 468 458 375 458 q 469 467 469 464 q 469 474 469 471 q 445 516 469 501 q 382 531 421 531 q 296 513 338 531 q 219 467 254 496 l 83 622 q 159 678 117 654 q 246 719 201 703 q 336 744 290 736 q 424 753 382 753 q 674 685 590 753 q 758 496 758 618 q 747 381 758 444 l 700 113 m 463 785 q 363 820 401 785 q 325 913 325 856 q 338 983 325 950 q 374 1042 351 1017 q 430 1081 397 1067 q 500 1096 463 1096 q 601 1061 563 1096 q 639 968 639 1026 q 626 897 639 931 q 589 839 613 864 q 533 799 565 814 q 463 785 501 785 m 568 961 q 549 1013 568 992 q 494 1033 529 1033 q 424 1000 451 1033 q 396 921 396 967 q 415 869 396 889 q 468 849 435 849 q 540 882 513 849 q 568 961 568 915 z "},"æ":{"ha":1281,"x_min":0,"x_max":1232,"o":"m 460 300 l 442 300 q 376 296 407 300 q 323 283 346 292 q 286 259 300 274 q 272 222 272 244 q 292 181 272 190 q 336 172 313 172 q 415 201 382 172 q 456 276 447 231 l 460 300 m 886 753 q 1031 730 967 753 q 1139 665 1094 707 q 1208 562 1183 622 q 1232 426 1232 501 q 1227 360 1232 396 q 1213 293 1222 324 l 715 293 q 714 283 714 289 q 726 245 714 260 q 757 222 739 231 q 796 209 775 213 q 833 206 817 206 q 901 217 868 206 q 961 254 935 229 l 1171 110 q 1006 7 1099 36 q 813 -22 913 -22 q 736 -17 775 -22 q 662 2 697 -11 q 597 36 626 15 q 549 88 568 57 q 444 9 511 38 q 276 -19 376 -19 q 171 -9 221 -19 q 83 24 121 1 q 22 84 44 47 q 0 174 0 121 q 38 313 0 258 q 141 400 76 368 q 290 445 206 432 q 468 458 375 458 q 469 467 469 464 q 469 474 469 471 q 445 516 469 501 q 382 531 421 531 q 296 513 338 531 q 219 467 254 496 l 83 622 q 159 678 117 654 q 246 719 201 703 q 336 744 290 736 q 424 753 382 753 q 512 746 474 753 q 577 728 550 739 q 622 701 604 717 q 653 668 640 685 q 748 729 689 706 q 886 753 807 753 m 961 458 q 963 467 963 463 q 963 475 963 472 q 937 531 963 510 q 865 551 911 551 q 813 542 836 551 q 774 518 790 532 q 747 488 757 504 q 732 458 736 472 l 961 458 z "},"ç":{"ha":700,"x_min":13,"x_max":735,"o":"m 510 -181 q 490 -251 510 -222 q 438 -299 469 -281 q 365 -324 406 -317 q 282 -332 324 -332 q 234 -329 260 -332 q 183 -322 208 -326 q 133 -312 157 -318 q 93 -300 110 -307 l 150 -194 q 208 -211 174 -206 q 268 -217 242 -217 q 306 -210 289 -217 q 322 -186 322 -204 q 308 -165 322 -171 q 275 -160 294 -160 q 245 -162 261 -160 q 215 -168 229 -164 l 165 -121 l 275 -12 q 83 94 153 11 q 13 304 13 178 q 45 476 13 394 q 138 619 78 557 q 281 717 197 681 q 464 753 364 753 q 621 728 547 753 q 735 656 694 704 l 558 463 q 524 489 549 476 q 465 501 500 501 q 353 456 394 501 q 311 346 311 410 q 340 272 311 304 q 429 239 368 239 q 492 252 464 239 q 536 281 521 265 l 660 71 q 554 10 611 33 q 424 -19 497 -12 l 365 -74 q 377 -72 372 -72 q 389 -72 382 -72 q 425 -77 404 -72 q 465 -94 446 -82 q 497 -126 483 -106 q 510 -181 510 -147 z "},"è":{"ha":864,"x_min":13,"x_max":815,"o":"m 299 293 q 297 283 297 289 q 310 245 297 260 q 340 222 322 231 q 379 209 358 213 q 417 206 400 206 q 485 217 451 206 q 544 254 518 229 l 754 110 q 589 7 682 36 q 396 -22 496 -22 q 248 -1 318 -22 q 126 61 178 19 q 43 165 74 103 q 13 310 13 226 q 46 484 13 403 q 140 625 79 565 q 284 719 200 685 q 469 753 368 753 q 614 730 550 753 q 722 665 678 707 q 791 562 767 622 q 815 426 815 501 q 810 360 815 396 q 796 293 806 324 l 299 293 m 544 458 q 546 467 546 463 q 546 475 546 472 q 520 531 546 510 q 449 551 494 551 q 397 542 419 551 q 357 518 374 532 q 330 488 340 504 q 315 458 319 472 l 544 458 m 476 1011 l 651 811 l 422 811 l 188 1011 l 476 1011 z "},"é":{"ha":864,"x_min":13,"x_max":835,"o":"m 299 293 q 297 283 297 289 q 310 245 297 260 q 340 222 322 231 q 379 209 358 213 q 417 206 400 206 q 485 217 451 206 q 544 254 518 229 l 754 110 q 589 7 682 36 q 396 -22 496 -22 q 248 -1 318 -22 q 126 61 178 19 q 43 165 74 103 q 13 310 13 226 q 46 484 13 403 q 140 625 79 565 q 284 719 200 685 q 469 753 368 753 q 614 730 550 753 q 722 665 678 707 q 791 562 767 622 q 815 426 815 501 q 810 360 815 396 q 796 293 806 324 l 299 293 m 544 458 q 546 467 546 463 q 546 475 546 472 q 520 531 546 510 q 449 551 494 551 q 397 542 419 551 q 357 518 374 532 q 330 488 340 504 q 315 458 319 472 l 544 458 m 588 811 l 358 811 l 546 1011 l 835 1011 l 588 811 z "},"ê":{"ha":864,"x_min":13,"x_max":815,"o":"m 299 293 q 297 283 297 289 q 310 245 297 260 q 340 222 322 231 q 379 209 358 213 q 417 206 400 206 q 485 217 451 206 q 544 254 518 229 l 754 110 q 589 7 682 36 q 396 -22 496 -22 q 248 -1 318 -22 q 126 61 178 19 q 43 165 74 103 q 13 310 13 226 q 46 484 13 403 q 140 625 79 565 q 284 719 200 685 q 469 753 368 753 q 614 730 550 753 q 722 665 678 707 q 791 562 767 622 q 815 426 815 501 q 810 360 815 396 q 796 293 806 324 l 299 293 m 544 458 q 546 467 546 463 q 546 475 546 472 q 520 531 546 510 q 449 551 494 551 q 397 542 419 551 q 357 518 374 532 q 330 488 340 504 q 315 458 319 472 l 544 458 m 596 811 l 519 907 l 410 811 l 201 811 l 425 1011 l 657 1011 l 807 811 l 596 811 z "},"ë":{"ha":864,"x_min":13,"x_max":833,"o":"m 299 293 q 297 283 297 289 q 310 245 297 260 q 340 222 322 231 q 379 209 358 213 q 417 206 400 206 q 485 217 451 206 q 544 254 518 229 l 754 110 q 589 7 682 36 q 396 -22 496 -22 q 248 -1 318 -22 q 126 61 178 19 q 43 165 74 103 q 13 310 13 226 q 46 484 13 403 q 140 625 79 565 q 284 719 200 685 q 469 753 368 753 q 614 730 550 753 q 722 665 678 707 q 791 562 767 622 q 815 426 815 501 q 810 360 815 396 q 796 293 806 324 l 299 293 m 544 458 q 546 467 546 463 q 546 475 546 472 q 520 531 546 510 q 449 551 494 551 q 397 542 419 551 q 357 518 374 532 q 330 488 340 504 q 315 458 319 472 l 544 458 m 338 810 q 243 844 278 810 q 208 924 208 879 q 219 981 208 954 q 249 1029 229 1008 q 297 1062 269 1050 q 357 1074 324 1074 q 408 1064 385 1074 q 449 1039 432 1054 q 475 1003 465 1024 q 485 960 485 982 q 474 902 485 929 q 444 854 464 875 q 398 822 425 833 q 338 810 371 810 m 686 810 q 592 844 626 810 q 557 924 557 879 q 567 981 557 954 q 598 1029 578 1008 q 645 1062 618 1050 q 706 1074 672 1074 q 757 1064 733 1074 q 797 1039 781 1054 q 824 1003 814 1024 q 833 960 833 982 q 823 902 833 929 q 793 854 813 875 q 747 822 774 833 q 686 810 719 810 z "},"ì":{"ha":465,"x_min":-29,"x_max":435,"o":"m -7 0 l 122 731 l 433 731 l 304 0 l -7 0 m 260 1011 l 435 811 l 206 811 l -29 1011 l 260 1011 z "},"í":{"ha":465,"x_min":-7,"x_max":603,"o":"m -7 0 l 122 731 l 433 731 l 304 0 l -7 0 m 356 811 l 126 811 l 314 1011 l 603 1011 l 356 811 z "},"î":{"ha":465,"x_min":-12,"x_max":593,"o":"m -7 0 l 122 731 l 433 731 l 304 0 l -7 0 m 382 811 l 306 907 l 196 811 l -12 811 l 211 1011 l 443 1011 l 593 811 l 382 811 z "},"ï":{"ha":465,"x_min":-7,"x_max":619,"o":"m -7 0 l 122 731 l 433 731 l 304 0 l -7 0 m 124 810 q 29 844 64 810 q -6 924 -6 879 q 5 981 -6 954 q 35 1029 15 1008 q 83 1062 56 1050 q 143 1074 110 1074 q 194 1064 171 1074 q 235 1039 218 1054 q 261 1003 251 1024 q 271 960 271 982 q 260 902 271 929 q 231 854 250 875 q 184 822 211 833 q 124 810 157 810 m 472 810 q 378 844 413 810 q 343 924 343 879 q 353 981 343 954 q 384 1029 364 1008 q 431 1062 404 1050 q 492 1074 458 1074 q 543 1064 519 1074 q 583 1039 567 1054 q 610 1003 600 1024 q 619 960 619 982 q 609 902 619 929 q 579 854 599 875 q 533 822 560 833 q 472 810 506 810 z "},"ð":{"ha":917,"x_min":13,"x_max":919,"o":"m 461 742 q 482 741 469 742 q 511 738 494 740 l 514 739 q 484 776 499 760 q 454 807 469 793 l 296 747 l 165 871 l 324 931 q 289 960 314 940 q 239 999 264 981 l 524 1129 q 576 1081 556 1101 q 614 1039 597 1060 l 774 1097 l 919 967 l 731 899 q 832 698 796 811 q 868 447 868 585 q 838 261 868 347 q 749 113 807 175 q 605 14 690 50 q 410 -22 519 -22 q 254 -1 326 -22 q 128 61 182 19 q 43 164 74 103 q 13 304 13 225 q 40 476 13 396 q 124 615 68 556 q 264 708 179 674 q 461 742 349 742 m 565 393 q 538 468 565 438 q 456 499 510 499 q 398 485 424 499 q 353 451 372 472 q 325 400 335 429 q 315 339 315 371 q 343 263 315 293 q 424 233 371 233 q 483 246 457 233 q 528 281 510 258 q 556 331 546 303 q 565 393 565 360 z "},"ñ":{"ha":918,"x_min":-8,"x_max":851,"o":"m 94 588 q 106 656 100 614 q 115 731 113 697 l 415 731 q 411 683 414 710 q 406 636 408 656 l 411 636 q 501 714 443 681 q 628 747 558 747 q 731 729 689 747 q 801 681 774 711 q 840 613 828 651 q 851 532 851 574 q 849 485 851 510 q 843 439 847 461 l 767 0 l 454 0 l 522 388 q 526 413 525 400 q 526 435 526 426 q 511 480 526 463 q 463 497 496 497 q 406 469 431 497 q 372 386 382 440 l 303 0 l -8 0 l 94 588 m 806 1000 q 778 924 796 960 q 735 863 760 889 q 679 822 710 836 q 613 807 649 807 q 558 815 583 807 q 506 839 532 824 q 460 863 475 857 q 424 869 444 869 q 385 855 401 869 q 363 819 369 840 l 253 819 q 280 892 263 858 q 322 952 297 926 q 376 992 346 978 q 443 1007 407 1007 q 499 998 475 1007 q 551 974 524 989 q 599 951 582 958 q 638 944 615 944 q 673 958 660 944 q 697 1000 686 972 l 806 1000 z "},"ò":{"ha":917,"x_min":13,"x_max":868,"o":"m 410 -22 q 254 -1 326 -22 q 128 61 182 19 q 43 164 74 103 q 13 304 13 225 q 43 478 13 396 q 131 621 74 560 q 273 717 189 682 q 465 753 357 753 q 624 732 550 753 q 751 669 697 711 q 837 567 806 628 q 868 426 868 506 q 838 253 868 335 q 749 110 807 171 q 605 13 690 49 q 410 -22 519 -22 m 565 393 q 538 468 565 438 q 456 499 510 499 q 398 485 424 499 q 353 451 372 472 q 325 400 335 429 q 315 339 315 371 q 343 263 315 293 q 424 233 371 233 q 483 246 457 233 q 528 281 510 258 q 556 331 546 303 q 565 393 565 360 m 467 1011 l 642 811 l 413 811 l 178 1011 l 467 1011 z "},"ó":{"ha":917,"x_min":13,"x_max":868,"o":"m 410 -22 q 254 -1 326 -22 q 128 61 182 19 q 43 164 74 103 q 13 304 13 225 q 43 478 13 396 q 131 621 74 560 q 273 717 189 682 q 465 753 357 753 q 624 732 550 753 q 751 669 697 711 q 837 567 806 628 q 868 426 868 506 q 838 253 868 335 q 749 110 807 171 q 605 13 690 49 q 410 -22 519 -22 m 565 393 q 538 468 565 438 q 456 499 510 499 q 398 485 424 499 q 353 451 372 472 q 325 400 335 429 q 315 339 315 371 q 343 263 315 293 q 424 233 371 233 q 483 246 457 233 q 528 281 510 258 q 556 331 546 303 q 565 393 565 360 m 600 811 l 371 811 l 558 1011 l 847 1011 l 600 811 z "},"ô":{"ha":917,"x_min":13,"x_max":868,"o":"m 410 -22 q 254 -1 326 -22 q 128 61 182 19 q 43 164 74 103 q 13 304 13 225 q 43 478 13 396 q 131 621 74 560 q 273 717 189 682 q 465 753 357 753 q 624 732 550 753 q 751 669 697 711 q 837 567 806 628 q 868 426 868 506 q 838 253 868 335 q 749 110 807 171 q 605 13 690 49 q 410 -22 519 -22 m 565 393 q 538 468 565 438 q 456 499 510 499 q 398 485 424 499 q 353 451 372 472 q 325 400 335 429 q 315 339 315 371 q 343 263 315 293 q 424 233 371 233 q 483 246 457 233 q 528 281 510 258 q 556 331 546 303 q 565 393 565 360 m 611 811 l 535 907 l 425 811 l 217 811 l 440 1011 l 672 1011 l 822 811 l 611 811 z "},"õ":{"ha":917,"x_min":13,"x_max":868,"o":"m 410 -22 q 254 -1 326 -22 q 128 61 182 19 q 43 164 74 103 q 13 304 13 225 q 43 478 13 396 q 131 621 74 560 q 273 717 189 682 q 465 753 357 753 q 624 732 550 753 q 751 669 697 711 q 837 567 806 628 q 868 426 868 506 q 838 253 868 335 q 749 110 807 171 q 605 13 690 49 q 410 -22 519 -22 m 565 393 q 538 468 565 438 q 456 499 510 499 q 398 485 424 499 q 353 451 372 472 q 325 400 335 429 q 315 339 315 371 q 343 263 315 293 q 424 233 371 233 q 483 246 457 233 q 528 281 510 258 q 556 331 546 303 q 565 393 565 360 m 808 1000 q 781 924 799 960 q 738 863 763 889 q 682 822 713 836 q 615 807 651 807 q 560 815 586 807 q 508 839 535 824 q 463 863 478 857 q 426 869 447 869 q 388 855 404 869 q 365 819 372 840 l 256 819 q 283 892 265 858 q 324 952 300 926 q 379 992 349 978 q 446 1007 410 1007 q 502 998 478 1007 q 554 974 526 989 q 601 951 585 958 q 640 944 618 944 q 676 958 663 944 q 700 1000 689 972 l 808 1000 z "},"ö":{"ha":917,"x_min":13,"x_max":868,"o":"m 410 -22 q 254 -1 326 -22 q 128 61 182 19 q 43 164 74 103 q 13 304 13 225 q 43 478 13 396 q 131 621 74 560 q 273 717 189 682 q 465 753 357 753 q 624 732 550 753 q 751 669 697 711 q 837 567 806 628 q 868 426 868 506 q 838 253 868 335 q 749 110 807 171 q 605 13 690 49 q 410 -22 519 -22 m 565 393 q 538 468 565 438 q 456 499 510 499 q 398 485 424 499 q 353 451 372 472 q 325 400 335 429 q 315 339 315 371 q 343 263 315 293 q 424 233 371 233 q 483 246 457 233 q 528 281 510 258 q 556 331 546 303 q 565 393 565 360 m 357 810 q 263 844 297 810 q 228 924 228 879 q 238 981 228 954 q 269 1029 249 1008 q 316 1062 289 1050 q 376 1074 343 1074 q 428 1064 404 1074 q 468 1039 451 1054 q 494 1003 485 1024 q 504 960 504 982 q 494 902 504 929 q 464 854 483 875 q 417 822 444 833 q 357 810 390 810 m 706 810 q 611 844 646 810 q 576 924 576 879 q 587 981 576 954 q 617 1029 597 1008 q 665 1062 638 1050 q 725 1074 692 1074 q 776 1064 753 1074 q 817 1039 800 1054 q 843 1003 833 1024 q 853 960 853 982 q 842 902 853 929 q 813 854 832 875 q 766 822 793 833 q 706 810 739 810 z "},"÷":{"ha":925,"x_min":110,"x_max":815,"o":"m 326 688 q 338 738 326 714 q 367 778 349 761 q 411 806 386 796 q 464 817 436 817 q 516 806 492 817 q 559 778 540 796 q 588 738 578 761 q 599 688 599 714 q 559 594 599 632 q 464 556 519 556 q 411 566 436 556 q 367 594 386 576 q 338 635 349 611 q 326 688 326 660 m 326 154 q 338 204 326 181 q 367 245 349 228 q 411 273 386 263 q 464 283 436 283 q 516 273 492 283 q 559 245 540 263 q 588 204 578 228 q 599 154 599 181 q 588 103 599 128 q 559 61 578 79 q 516 33 540 43 q 464 22 492 22 q 411 33 436 22 q 367 61 386 43 q 338 103 349 79 q 326 154 326 128 m 110 319 l 110 524 l 815 524 l 815 319 l 110 319 z "},"ø":{"ha":917,"x_min":-54,"x_max":925,"o":"m 818 588 q 855 515 842 556 q 868 426 868 475 q 838 253 868 335 q 749 110 807 171 q 605 13 690 49 q 410 -22 519 -22 q 279 -8 340 -22 q 172 39 218 7 l 42 -75 l -54 39 l 67 139 q 26 219 39 171 q 13 310 13 267 q 43 477 13 397 q 131 619 74 557 q 273 717 189 681 q 465 753 357 753 q 711 690 617 753 l 828 789 l 925 676 l 818 588 m 574 372 q 573 383 574 376 q 571 393 572 390 l 388 235 q 406 228 392 232 q 431 225 419 225 q 494 238 468 225 q 539 272 521 251 q 565 319 557 293 q 574 372 574 346 m 308 365 q 308 355 308 361 q 310 346 308 349 l 493 506 q 458 511 482 511 q 394 499 422 511 q 347 465 365 486 q 318 418 328 444 q 308 365 308 392 z "},"ù":{"ha":914,"x_min":24,"x_max":883,"o":"m 781 143 q 769 75 775 117 q 760 0 763 33 l 460 0 q 464 48 461 21 q 469 94 467 75 l 464 94 q 374 17 432 50 q 247 -17 317 -17 q 144 1 186 -17 q 74 49 101 19 q 35 118 47 79 q 24 199 24 157 q 26 245 24 221 q 32 292 28 269 l 108 731 l 421 731 l 353 343 q 349 317 350 331 q 349 296 349 304 q 364 251 349 268 q 413 233 379 233 q 469 262 444 233 q 503 344 493 290 l 572 731 l 883 731 l 781 143 m 458 1011 l 633 811 l 404 811 l 169 1011 l 458 1011 z "},"ú":{"ha":914,"x_min":24,"x_max":883,"o":"m 781 143 q 769 75 775 117 q 760 0 763 33 l 460 0 q 464 48 461 21 q 469 94 467 75 l 464 94 q 374 17 432 50 q 247 -17 317 -17 q 144 1 186 -17 q 74 49 101 19 q 35 118 47 79 q 24 199 24 157 q 26 245 24 221 q 32 292 28 269 l 108 731 l 421 731 l 353 343 q 349 317 350 331 q 349 296 349 304 q 364 251 349 268 q 413 233 379 233 q 469 262 444 233 q 503 344 493 290 l 572 731 l 883 731 l 781 143 m 611 811 l 382 811 l 569 1011 l 858 1011 l 611 811 z "},"û":{"ha":914,"x_min":24,"x_max":883,"o":"m 781 143 q 769 75 775 117 q 760 0 763 33 l 460 0 q 464 48 461 21 q 469 94 467 75 l 464 94 q 374 17 432 50 q 247 -17 317 -17 q 144 1 186 -17 q 74 49 101 19 q 35 118 47 79 q 24 199 24 157 q 26 245 24 221 q 32 292 28 269 l 108 731 l 421 731 l 353 343 q 349 317 350 331 q 349 296 349 304 q 364 251 349 268 q 413 233 379 233 q 469 262 444 233 q 503 344 493 290 l 572 731 l 883 731 l 781 143 m 607 811 l 531 907 l 421 811 l 213 811 l 436 1011 l 668 1011 l 818 811 l 607 811 z "},"ü":{"ha":914,"x_min":24,"x_max":883,"o":"m 781 143 q 769 75 775 117 q 760 0 763 33 l 460 0 q 464 48 461 21 q 469 94 467 75 l 464 94 q 374 17 432 50 q 247 -17 317 -17 q 144 1 186 -17 q 74 49 101 19 q 35 118 47 79 q 24 199 24 157 q 26 245 24 221 q 32 292 28 269 l 108 731 l 421 731 l 353 343 q 349 317 350 331 q 349 296 349 304 q 364 251 349 268 q 413 233 379 233 q 469 262 444 233 q 503 344 493 290 l 572 731 l 883 731 l 781 143 m 350 810 q 256 844 290 810 q 221 924 221 879 q 231 981 221 954 q 262 1029 242 1008 q 309 1062 282 1050 q 369 1074 336 1074 q 421 1064 397 1074 q 461 1039 444 1054 q 488 1003 478 1024 q 497 960 497 982 q 487 902 497 929 q 457 854 476 875 q 410 822 438 833 q 350 810 383 810 m 699 810 q 604 844 639 810 q 569 924 569 879 q 580 981 569 954 q 610 1029 590 1008 q 658 1062 631 1050 q 718 1074 685 1074 q 769 1064 746 1074 q 810 1039 793 1054 q 836 1003 826 1024 q 846 960 846 982 q 835 902 846 929 q 806 854 825 875 q 759 822 786 833 q 699 810 732 810 z "},"ý":{"ha":876,"x_min":-53,"x_max":932,"o":"m 208 10 l 33 731 l 378 731 l 422 331 l 428 331 l 599 731 l 932 731 l 508 -44 q 434 -167 471 -114 q 351 -258 397 -221 q 247 -314 306 -294 q 107 -333 188 -333 q 15 -326 57 -333 q -53 -311 -26 -319 l 0 -65 q 35 -77 17 -72 q 74 -82 53 -82 q 153 -60 125 -82 q 200 -6 182 -39 l 208 10 m 603 811 l 374 811 l 561 1011 l 850 1011 l 603 811 z "},"þ":{"ha":958,"x_min":-68,"x_max":910,"o":"m 607 393 q 578 468 607 438 q 496 499 550 499 q 438 485 464 499 q 394 451 413 472 q 365 400 375 429 q 354 339 354 371 q 383 263 354 293 q 464 233 411 233 q 524 246 497 233 q 569 281 550 258 q 597 331 588 303 q 607 393 607 360 m -68 -333 l 176 1050 l 488 1050 l 421 667 l 424 667 q 509 725 457 703 q 615 747 561 747 q 742 723 688 747 q 835 656 797 699 q 891 557 872 614 q 910 435 910 500 q 879 259 910 342 q 794 115 849 176 q 665 18 739 54 q 503 -18 590 -18 q 394 2 449 -18 q 314 58 340 22 l 311 58 l 240 -333 l -68 -333 z "},"ÿ":{"ha":876,"x_min":-53,"x_max":932,"o":"m 208 10 l 33 731 l 378 731 l 422 331 l 428 331 l 599 731 l 932 731 l 508 -44 q 434 -167 471 -114 q 351 -258 397 -221 q 247 -314 306 -294 q 107 -333 188 -333 q 15 -326 57 -333 q -53 -311 -26 -319 l 0 -65 q 35 -77 17 -72 q 74 -82 53 -82 q 153 -60 125 -82 q 200 -6 182 -39 l 208 10 m 344 810 q 250 844 285 810 q 215 924 215 879 q 226 981 215 954 q 256 1029 236 1008 q 303 1062 276 1050 q 364 1074 331 1074 q 415 1064 392 1074 q 456 1039 439 1054 q 482 1003 472 1024 q 492 960 492 982 q 481 902 492 929 q 451 854 471 875 q 405 822 432 833 q 344 810 378 810 m 693 810 q 599 844 633 810 q 564 924 564 879 q 574 981 564 954 q 605 1029 585 1008 q 652 1062 625 1050 q 713 1074 679 1074 q 764 1064 740 1074 q 804 1039 788 1054 q 831 1003 821 1024 q 840 960 840 982 q 830 902 840 929 q 800 854 819 875 q 753 822 781 833 q 693 810 726 810 z "},"Ā":{"ha":1076,"x_min":-115,"x_max":1000,"o":"m 667 0 l 644 150 l 325 150 l 243 0 l -115 0 l 489 983 l 828 983 l 1000 0 l 667 0 m 589 649 l 449 396 l 618 396 l 589 649 m 419 1099 l 442 1231 l 939 1231 l 917 1099 l 419 1099 z "},"ā":{"ha":817,"x_min":0,"x_max":758,"o":"m 460 300 l 442 300 q 376 296 407 300 q 323 283 346 292 q 286 259 300 274 q 272 222 272 244 q 292 181 272 190 q 336 172 313 172 q 415 201 382 172 q 456 276 447 231 l 460 300 m 700 113 q 692 50 694 82 q 690 0 690 18 l 424 0 q 424 31 424 10 q 426 67 425 53 l 424 67 q 332 1 383 21 q 218 -19 281 -19 q 140 -8 179 -19 q 70 26 101 3 q 19 85 39 49 q 0 174 0 122 q 38 313 0 258 q 141 400 76 368 q 290 445 206 432 q 468 458 375 458 q 469 467 469 464 q 469 474 469 471 q 445 516 469 501 q 382 531 421 531 q 296 513 338 531 q 219 467 254 496 l 83 622 q 159 678 117 654 q 246 719 201 703 q 336 744 290 736 q 424 753 382 753 q 674 685 590 753 q 758 496 758 618 q 747 381 758 444 l 700 113 m 211 849 l 233 981 l 731 981 l 708 849 l 211 849 z "},"Ă":{"ha":1076,"x_min":-115,"x_max":1000,"o":"m 667 0 l 644 150 l 325 150 l 243 0 l -115 0 l 489 983 l 828 983 l 1000 0 l 667 0 m 589 649 l 449 396 l 618 396 l 589 649 m 928 1261 q 890 1164 917 1203 q 826 1102 863 1125 q 747 1070 790 1079 q 660 1061 704 1061 q 573 1070 614 1061 q 500 1102 532 1079 q 449 1164 468 1125 q 431 1261 431 1203 l 579 1261 q 608 1216 579 1228 q 665 1204 636 1204 q 703 1207 683 1204 q 738 1216 722 1210 q 765 1233 754 1222 q 779 1261 776 1244 l 928 1261 z "},"ă":{"ha":817,"x_min":0,"x_max":758,"o":"m 460 300 l 442 300 q 376 296 407 300 q 323 283 346 292 q 286 259 300 274 q 272 222 272 244 q 292 181 272 190 q 336 172 313 172 q 415 201 382 172 q 456 276 447 231 l 460 300 m 700 113 q 692 50 694 82 q 690 0 690 18 l 424 0 q 424 31 424 10 q 426 67 425 53 l 424 67 q 332 1 383 21 q 218 -19 281 -19 q 140 -8 179 -19 q 70 26 101 3 q 19 85 39 49 q 0 174 0 122 q 38 313 0 258 q 141 400 76 368 q 290 445 206 432 q 468 458 375 458 q 469 467 469 464 q 469 474 469 471 q 445 516 469 501 q 382 531 421 531 q 296 513 338 531 q 219 467 254 496 l 83 622 q 159 678 117 654 q 246 719 201 703 q 336 744 290 736 q 424 753 382 753 q 674 685 590 753 q 758 496 758 618 q 747 381 758 444 l 700 113 m 722 1011 q 684 914 711 953 q 621 852 657 875 q 542 820 585 829 q 454 811 499 811 q 367 820 408 811 q 294 852 326 829 q 244 914 263 875 q 225 1011 225 953 l 374 1011 q 402 966 374 978 q 460 954 431 954 q 497 957 478 954 q 533 966 517 960 q 560 983 549 972 q 574 1011 571 994 l 722 1011 z "},"Ą":{"ha":1076,"x_min":-115,"x_max":1000,"o":"m 819 -272 q 728 -316 778 -300 q 626 -332 679 -332 q 571 -327 599 -332 q 522 -308 543 -322 q 487 -272 500 -294 q 474 -211 474 -249 q 492 -146 474 -176 q 539 -89 511 -115 q 601 -40 567 -62 q 667 0 635 -18 l 644 150 l 325 150 l 243 0 l -115 0 l 489 983 l 828 983 l 1000 0 l 849 0 q 711 -97 754 -60 q 668 -161 668 -133 q 677 -178 668 -172 q 697 -185 686 -185 q 781 -160 735 -185 l 819 -272 m 589 649 l 449 396 l 618 396 l 589 649 z "},"ą":{"ha":817,"x_min":0,"x_max":758,"o":"m 576 -272 q 485 -316 535 -300 q 383 -332 436 -332 q 328 -327 356 -332 q 278 -308 300 -322 q 244 -272 257 -294 q 231 -211 231 -249 q 249 -146 231 -176 q 296 -89 268 -115 q 358 -40 324 -62 q 424 0 392 -18 q 424 32 424 11 q 426 67 425 53 l 424 67 q 332 1 383 21 q 218 -19 281 -19 q 140 -8 179 -19 q 70 26 101 3 q 19 85 39 49 q 0 174 0 122 q 38 313 0 258 q 141 400 76 368 q 290 445 206 432 q 468 458 375 458 q 469 467 469 464 q 469 474 469 471 q 445 516 469 501 q 382 531 421 531 q 296 513 338 531 q 219 467 254 496 l 83 622 q 159 678 117 654 q 246 719 201 703 q 336 744 290 736 q 424 753 382 753 q 674 685 590 753 q 758 496 758 618 q 747 381 758 444 l 700 113 q 692 50 694 82 q 690 0 690 18 l 606 0 q 468 -97 511 -60 q 425 -161 425 -133 q 434 -178 425 -172 q 454 -185 443 -185 q 538 -160 492 -185 l 576 -272 m 460 300 l 442 300 q 376 296 407 300 q 323 283 346 292 q 286 259 300 274 q 272 222 272 244 q 292 181 272 190 q 336 172 313 172 q 415 201 382 172 q 456 276 447 231 l 460 300 z "},"Ć":{"ha":953,"x_min":43,"x_max":1008,"o":"m 910 113 q 842 62 881 88 q 756 17 804 36 q 647 -15 707 -3 q 513 -28 586 -28 q 315 3 401 -28 q 167 90 228 33 q 75 228 107 147 q 43 407 43 308 q 87 643 43 533 q 210 835 131 753 q 397 964 289 917 q 635 1011 506 1011 q 860 972 763 1011 q 1008 874 957 932 l 785 643 q 719 697 760 679 q 626 714 678 714 q 531 692 574 714 q 457 634 488 671 q 410 549 426 597 q 393 444 393 500 q 438 322 393 372 q 574 272 483 272 q 672 294 626 272 q 751 349 718 317 l 910 113 m 731 1061 l 501 1061 l 689 1261 l 978 1261 l 731 1061 z "},"ć":{"ha":700,"x_min":13,"x_max":822,"o":"m 558 463 q 524 489 549 476 q 465 501 500 501 q 353 456 394 501 q 311 346 311 410 q 340 272 311 304 q 429 239 368 239 q 492 252 464 239 q 536 281 521 265 l 660 71 q 534 2 604 26 q 372 -22 464 -22 q 225 1 292 -22 q 111 67 158 24 q 38 169 64 110 q 13 304 13 229 q 45 476 13 394 q 138 619 78 557 q 281 717 197 681 q 464 753 364 753 q 621 728 547 753 q 735 656 694 704 l 558 463 m 575 811 l 346 811 l 533 1011 l 822 1011 l 575 811 z "},"Ĉ":{"ha":953,"x_min":43,"x_max":1008,"o":"m 910 113 q 842 62 881 88 q 756 17 804 36 q 647 -15 707 -3 q 513 -28 586 -28 q 315 3 401 -28 q 167 90 228 33 q 75 228 107 147 q 43 407 43 308 q 87 643 43 533 q 210 835 131 753 q 397 964 289 917 q 635 1011 506 1011 q 860 972 763 1011 q 1008 874 957 932 l 785 643 q 719 697 760 679 q 626 714 678 714 q 531 692 574 714 q 457 634 488 671 q 410 549 426 597 q 393 444 393 500 q 438 322 393 372 q 574 272 483 272 q 672 294 626 272 q 751 349 718 317 l 910 113 m 757 1061 l 681 1157 l 571 1061 l 363 1061 l 586 1261 l 818 1261 l 968 1061 l 757 1061 z "},"ĉ":{"ha":700,"x_min":13,"x_max":793,"o":"m 558 463 q 524 489 549 476 q 465 501 500 501 q 353 456 394 501 q 311 346 311 410 q 340 272 311 304 q 429 239 368 239 q 492 252 464 239 q 536 281 521 265 l 660 71 q 534 2 604 26 q 372 -22 464 -22 q 225 1 292 -22 q 111 67 158 24 q 38 169 64 110 q 13 304 13 229 q 45 476 13 394 q 138 619 78 557 q 281 717 197 681 q 464 753 364 753 q 621 728 547 753 q 735 656 694 704 l 558 463 m 582 811 l 506 907 l 396 811 l 188 811 l 411 1011 l 643 1011 l 793 811 l 582 811 z "},"Ċ":{"ha":953,"x_min":43,"x_max":1008,"o":"m 910 113 q 842 62 881 88 q 756 17 804 36 q 647 -15 707 -3 q 513 -28 586 -28 q 315 3 401 -28 q 167 90 228 33 q 75 228 107 147 q 43 407 43 308 q 87 643 43 533 q 210 835 131 753 q 397 964 289 917 q 635 1011 506 1011 q 860 972 763 1011 q 1008 874 957 932 l 785 643 q 719 697 760 679 q 626 714 678 714 q 531 692 574 714 q 457 634 488 671 q 410 549 426 597 q 393 444 393 500 q 438 322 393 372 q 574 272 483 272 q 672 294 626 272 q 751 349 718 317 l 910 113 m 671 1051 q 569 1088 607 1051 q 532 1174 532 1125 q 543 1236 532 1207 q 575 1288 554 1265 q 625 1322 596 1310 q 690 1335 654 1335 q 790 1298 753 1335 q 828 1213 828 1261 q 817 1150 828 1179 q 785 1099 806 1121 q 735 1064 764 1076 q 671 1051 706 1051 z "},"ċ":{"ha":700,"x_min":13,"x_max":735,"o":"m 558 463 q 524 489 549 476 q 465 501 500 501 q 353 456 394 501 q 311 346 311 410 q 340 272 311 304 q 429 239 368 239 q 492 252 464 239 q 536 281 521 265 l 660 71 q 534 2 604 26 q 372 -22 464 -22 q 225 1 292 -22 q 111 67 158 24 q 38 169 64 110 q 13 304 13 229 q 45 476 13 394 q 138 619 78 557 q 281 717 197 681 q 464 753 364 753 q 621 728 547 753 q 735 656 694 704 l 558 463 m 485 801 q 383 838 421 801 q 346 924 346 875 q 357 986 346 957 q 389 1038 368 1015 q 439 1072 410 1060 q 504 1085 468 1085 q 604 1048 567 1085 q 642 963 642 1011 q 631 900 642 929 q 599 849 619 871 q 549 814 578 826 q 485 801 519 801 z "},"Č":{"ha":953,"x_min":43,"x_max":1008,"o":"m 910 113 q 842 62 881 88 q 756 17 804 36 q 647 -15 707 -3 q 513 -28 586 -28 q 315 3 401 -28 q 167 90 228 33 q 75 228 107 147 q 43 407 43 308 q 87 643 43 533 q 210 835 131 753 q 397 964 289 917 q 635 1011 506 1011 q 860 972 763 1011 q 1008 874 957 932 l 785 643 q 719 697 760 679 q 626 714 678 714 q 531 692 574 714 q 457 634 488 671 q 410 549 426 597 q 393 444 393 500 q 438 322 393 372 q 574 272 483 272 q 672 294 626 272 q 751 349 718 317 l 910 113 m 775 1061 l 543 1061 l 389 1261 l 597 1261 l 674 1164 l 783 1261 l 994 1261 l 775 1061 z "},"č":{"ha":700,"x_min":13,"x_max":806,"o":"m 558 463 q 524 489 549 476 q 465 501 500 501 q 353 456 394 501 q 311 346 311 410 q 340 272 311 304 q 429 239 368 239 q 492 252 464 239 q 536 281 521 265 l 660 71 q 534 2 604 26 q 372 -22 464 -22 q 225 1 292 -22 q 111 67 158 24 q 38 169 64 110 q 13 304 13 229 q 45 476 13 394 q 138 619 78 557 q 281 717 197 681 q 464 753 364 753 q 621 728 547 753 q 735 656 694 704 l 558 463 m 586 811 l 354 811 l 200 1011 l 408 1011 l 485 914 l 594 1011 l 806 1011 l 586 811 z "},"Ď":{"ha":1093,"x_min":10,"x_max":1063,"o":"m 183 983 l 590 983 q 758 960 674 983 q 909 888 842 938 q 1019 758 976 838 q 1063 564 1063 678 q 1017 330 1063 435 q 892 152 972 225 q 701 40 811 79 q 463 0 592 0 l 10 0 l 183 983 m 372 276 l 476 276 q 586 298 539 276 q 665 355 633 319 q 713 435 697 390 q 729 529 729 481 q 718 600 729 567 q 683 658 707 633 q 623 697 660 682 q 536 711 586 711 l 450 711 l 372 276 m 699 1061 l 467 1061 l 313 1261 l 521 1261 l 597 1164 l 707 1261 l 918 1261 l 699 1061 z "},"ď":{"ha":958,"x_min":13,"x_max":1358,"o":"m 307 -18 q 180 6 235 -18 q 88 73 125 31 q 31 172 50 115 q 13 294 13 229 q 43 470 13 388 q 128 614 74 553 q 257 711 182 675 q 419 747 332 747 q 474 742 446 747 q 526 726 501 736 q 572 700 551 715 q 606 667 593 685 l 608 667 l 675 1050 l 985 1050 l 800 0 l 521 0 l 535 78 l 532 78 q 442 9 500 36 q 307 -18 385 -18 m 315 339 q 344 264 315 294 q 426 233 372 233 q 484 246 458 233 q 528 281 510 258 q 558 332 547 303 q 568 393 568 361 q 540 469 568 439 q 458 499 511 499 q 399 486 425 499 q 353 451 372 474 q 325 401 335 429 q 315 339 315 372 m 1176 731 l 953 731 l 1101 983 l 1358 983 l 1176 731 z "},"Đ":{"ha":1093,"x_min":10,"x_max":1063,"o":"m 15 397 l 50 594 l 115 594 l 183 983 l 590 983 q 758 960 674 983 q 909 888 842 938 q 1019 758 976 838 q 1063 564 1063 678 q 1017 330 1063 435 q 892 152 972 225 q 701 40 811 79 q 463 0 592 0 l 10 0 l 79 397 l 15 397 m 586 594 l 551 397 l 394 397 l 372 276 l 476 276 q 586 298 539 276 q 665 355 633 319 q 713 435 697 390 q 729 529 729 481 q 718 600 729 567 q 683 658 707 633 q 623 697 660 682 q 536 711 586 711 l 450 711 l 429 594 l 586 594 z "},"đ":{"ha":958,"x_min":13,"x_max":1039,"o":"m 510 944 l 656 944 l 675 1050 l 985 1050 l 965 944 l 1039 944 l 1011 792 l 939 792 l 800 0 l 521 0 l 535 78 l 532 78 q 442 9 500 36 q 307 -18 385 -18 q 180 6 235 -18 q 88 73 125 31 q 31 172 50 115 q 13 294 13 229 q 43 470 13 388 q 128 614 74 553 q 257 711 182 675 q 419 747 332 747 q 474 742 446 747 q 526 726 501 736 q 572 700 551 715 q 606 667 593 685 l 608 667 l 629 792 l 482 792 l 510 944 m 315 339 q 344 264 315 294 q 426 233 372 233 q 484 246 458 233 q 528 281 510 258 q 558 332 547 303 q 568 393 568 361 q 540 469 568 439 q 458 499 511 499 q 399 486 425 499 q 353 451 372 474 q 325 401 335 429 q 315 339 315 372 z "},"Ē":{"ha":822,"x_min":10,"x_max":826,"o":"m 10 0 l 183 983 l 826 983 l 779 715 l 439 715 l 422 621 l 747 621 l 703 371 l 378 371 l 360 268 l 740 268 l 693 0 l 10 0 m 263 1099 l 285 1231 l 782 1231 l 760 1099 l 263 1099 z "},"ē":{"ha":864,"x_min":13,"x_max":815,"o":"m 299 293 q 297 283 297 289 q 310 245 297 260 q 340 222 322 231 q 379 209 358 213 q 417 206 400 206 q 485 217 451 206 q 544 254 518 229 l 754 110 q 589 7 682 36 q 396 -22 496 -22 q 248 -1 318 -22 q 126 61 178 19 q 43 165 74 103 q 13 310 13 226 q 46 484 13 403 q 140 625 79 565 q 284 719 200 685 q 469 753 368 753 q 614 730 550 753 q 722 665 678 707 q 791 562 767 622 q 815 426 815 501 q 810 360 815 396 q 796 293 806 324 l 299 293 m 544 458 q 546 467 546 463 q 546 475 546 472 q 520 531 546 510 q 449 551 494 551 q 397 542 419 551 q 357 518 374 532 q 330 488 340 504 q 315 458 319 472 l 544 458 m 263 849 l 285 981 l 782 981 l 760 849 l 263 849 z "},"Ĕ":{"ha":822,"x_min":10,"x_max":826,"o":"m 10 0 l 183 983 l 826 983 l 779 715 l 439 715 l 422 621 l 747 621 l 703 371 l 378 371 l 360 268 l 740 268 l 693 0 l 10 0 m 785 1261 q 747 1164 774 1203 q 683 1102 719 1125 q 604 1070 647 1079 q 517 1061 561 1061 q 430 1070 471 1061 q 357 1102 389 1079 q 306 1164 325 1125 q 288 1261 288 1203 l 436 1261 q 465 1216 436 1228 q 522 1204 493 1204 q 560 1207 540 1204 q 595 1216 579 1210 q 622 1233 611 1222 q 636 1261 633 1244 l 785 1261 z "},"ĕ":{"ha":864,"x_min":13,"x_max":815,"o":"m 299 293 q 297 283 297 289 q 310 245 297 260 q 340 222 322 231 q 379 209 358 213 q 417 206 400 206 q 485 217 451 206 q 544 254 518 229 l 754 110 q 589 7 682 36 q 396 -22 496 -22 q 248 -1 318 -22 q 126 61 178 19 q 43 165 74 103 q 13 310 13 226 q 46 484 13 403 q 140 625 79 565 q 284 719 200 685 q 469 753 368 753 q 614 730 550 753 q 722 665 678 707 q 791 562 767 622 q 815 426 815 501 q 810 360 815 396 q 796 293 806 324 l 299 293 m 544 458 q 546 467 546 463 q 546 475 546 472 q 520 531 546 510 q 449 551 494 551 q 397 542 419 551 q 357 518 374 532 q 330 488 340 504 q 315 458 319 472 l 544 458 m 779 1011 q 741 914 768 953 q 678 852 714 875 q 599 820 642 829 q 511 811 556 811 q 424 820 465 811 q 351 852 383 829 q 301 914 319 875 q 282 1011 282 953 l 431 1011 q 459 966 431 978 q 517 954 488 954 q 554 957 535 954 q 590 966 574 960 q 617 983 606 972 q 631 1011 628 994 l 779 1011 z "},"Ė":{"ha":822,"x_min":10,"x_max":826,"o":"m 10 0 l 183 983 l 826 983 l 779 715 l 439 715 l 422 621 l 747 621 l 703 371 l 378 371 l 360 268 l 740 268 l 693 0 l 10 0 m 522 1051 q 421 1088 458 1051 q 383 1174 383 1125 q 394 1236 383 1207 q 426 1288 406 1265 q 476 1322 447 1310 q 542 1335 506 1335 q 642 1298 604 1335 q 679 1213 679 1261 q 668 1150 679 1179 q 636 1099 657 1121 q 586 1064 615 1076 q 522 1051 557 1051 z "},"ė":{"ha":864,"x_min":13,"x_max":815,"o":"m 299 293 q 297 283 297 289 q 310 245 297 260 q 340 222 322 231 q 379 209 358 213 q 417 206 400 206 q 485 217 451 206 q 544 254 518 229 l 754 110 q 589 7 682 36 q 396 -22 496 -22 q 248 -1 318 -22 q 126 61 178 19 q 43 165 74 103 q 13 310 13 226 q 46 484 13 403 q 140 625 79 565 q 284 719 200 685 q 469 753 368 753 q 614 730 550 753 q 722 665 678 707 q 791 562 767 622 q 815 426 815 501 q 810 360 815 396 q 796 293 806 324 l 299 293 m 544 458 q 546 467 546 463 q 546 475 546 472 q 520 531 546 510 q 449 551 494 551 q 397 542 419 551 q 357 518 374 532 q 330 488 340 504 q 315 458 319 472 l 544 458 m 511 801 q 410 838 447 801 q 372 924 372 875 q 383 986 372 957 q 415 1038 394 1015 q 465 1072 436 1060 q 531 1085 494 1085 q 631 1048 593 1085 q 668 963 668 1011 q 657 900 668 929 q 625 849 646 871 q 575 814 604 826 q 511 801 546 801 z "},"Ę":{"ha":822,"x_min":10,"x_max":826,"o":"m 600 -272 q 509 -316 558 -300 q 407 -332 460 -332 q 351 -327 379 -332 q 302 -308 324 -322 q 267 -272 281 -294 q 254 -211 254 -249 q 272 -146 254 -176 q 319 -89 290 -115 q 381 -40 347 -62 q 446 0 414 -18 l 10 0 l 183 983 l 826 983 l 779 715 l 439 715 l 422 621 l 747 621 l 703 371 l 378 371 l 360 268 l 740 268 l 693 0 l 629 0 q 492 -97 535 -60 q 449 -161 449 -133 q 458 -178 449 -172 q 478 -185 467 -185 q 561 -160 515 -185 l 600 -272 l 600 -272 z "},"ę":{"ha":864,"x_min":13,"x_max":815,"o":"m 501 -272 q 410 -316 460 -300 q 308 -332 361 -332 q 253 -327 281 -332 q 203 -308 225 -322 q 169 -272 182 -294 q 156 -211 156 -249 q 170 -153 156 -181 q 208 -102 185 -126 q 260 -56 231 -78 q 318 -17 289 -35 q 197 17 253 -8 q 101 83 142 42 q 36 181 60 124 q 13 310 13 238 q 46 484 13 403 q 140 625 79 565 q 284 719 200 685 q 469 753 368 753 q 614 730 550 753 q 722 665 678 707 q 791 562 767 622 q 815 426 815 501 q 810 360 815 396 q 796 293 806 324 l 299 293 q 297 283 297 289 q 310 245 297 260 q 340 222 322 231 q 379 209 358 213 q 417 206 400 206 q 485 217 451 206 q 544 254 518 229 l 754 110 q 641 28 703 57 q 511 -12 579 -1 q 389 -101 428 -67 q 350 -161 350 -135 q 359 -178 350 -172 q 379 -185 368 -185 q 463 -160 417 -185 l 501 -272 m 544 458 q 546 467 546 463 q 546 475 546 472 q 520 531 546 510 q 449 551 494 551 q 397 542 419 551 q 357 518 374 532 q 330 488 340 504 q 315 458 319 472 l 544 458 z "},"Ě":{"ha":822,"x_min":10,"x_max":844,"o":"m 10 0 l 183 983 l 826 983 l 779 715 l 439 715 l 422 621 l 747 621 l 703 371 l 378 371 l 360 268 l 740 268 l 693 0 l 10 0 m 625 1061 l 393 1061 l 239 1261 l 447 1261 l 524 1164 l 633 1261 l 844 1261 l 625 1061 z "},"ě":{"ha":864,"x_min":13,"x_max":835,"o":"m 299 293 q 297 283 297 289 q 310 245 297 260 q 340 222 322 231 q 379 209 358 213 q 417 206 400 206 q 485 217 451 206 q 544 254 518 229 l 754 110 q 589 7 682 36 q 396 -22 496 -22 q 248 -1 318 -22 q 126 61 178 19 q 43 165 74 103 q 13 310 13 226 q 46 484 13 403 q 140 625 79 565 q 284 719 200 685 q 469 753 368 753 q 614 730 550 753 q 722 665 678 707 q 791 562 767 622 q 815 426 815 501 q 810 360 815 396 q 796 293 806 324 l 299 293 m 544 458 q 546 467 546 463 q 546 475 546 472 q 520 531 546 510 q 449 551 494 551 q 397 542 419 551 q 357 518 374 532 q 330 488 340 504 q 315 458 319 472 l 544 458 m 615 811 l 383 811 l 229 1011 l 438 1011 l 514 914 l 624 1011 l 835 1011 l 615 811 z "},"Ĝ":{"ha":1060,"x_min":43,"x_max":1008,"o":"m 792 646 q 728 704 768 682 q 626 726 689 726 q 533 706 578 726 q 453 649 488 686 q 399 560 419 613 q 378 440 378 507 q 425 305 378 358 q 575 251 472 251 q 623 256 599 251 q 663 267 647 260 l 678 353 l 517 353 l 561 606 l 1007 606 l 913 69 q 740 1 836 29 q 535 -28 643 -28 q 333 1 424 -28 q 178 85 243 29 q 78 222 114 140 q 43 407 43 303 q 86 643 43 533 q 206 835 129 753 q 391 964 283 917 q 628 1011 499 1011 q 856 974 756 1011 q 1008 874 956 938 l 792 646 m 761 1061 l 685 1157 l 575 1061 l 367 1061 l 590 1261 l 822 1261 l 972 1061 l 761 1061 z "},"ĝ":{"ha":963,"x_min":-50,"x_max":928,"o":"m 319 0 q 185 22 243 0 q 90 84 128 44 q 32 178 51 124 q 13 296 13 232 q 42 471 13 389 q 126 615 72 553 q 254 712 179 676 q 419 747 329 747 q 528 724 472 747 q 618 651 585 701 l 622 651 l 635 731 l 928 731 l 813 74 q 654 -237 774 -142 q 329 -333 535 -333 q 224 -326 278 -333 q 121 -305 171 -319 q 27 -269 71 -290 q -50 -219 -17 -247 l 97 -6 q 204 -71 142 -49 q 319 -93 267 -93 q 399 -82 367 -93 q 454 -52 432 -71 q 488 -9 476 -33 q 504 43 500 15 l 511 79 l 507 79 q 478 53 496 67 q 436 27 460 39 q 383 8 413 15 q 319 0 353 0 m 311 336 q 316 300 311 319 q 333 265 321 281 q 368 240 346 250 q 424 229 390 229 q 484 244 457 229 q 530 281 511 258 q 559 334 549 304 q 569 396 569 364 q 540 472 569 444 q 458 500 510 500 q 395 485 422 500 q 349 447 368 471 q 321 394 331 424 q 311 336 311 365 m 631 811 l 554 907 l 444 811 l 236 811 l 460 1011 l 692 1011 l 842 811 l 631 811 z "},"Ğ":{"ha":1060,"x_min":43,"x_max":1008,"o":"m 792 646 q 728 704 768 682 q 626 726 689 726 q 533 706 578 726 q 453 649 488 686 q 399 560 419 613 q 378 440 378 507 q 425 305 378 358 q 575 251 472 251 q 623 256 599 251 q 663 267 647 260 l 678 353 l 517 353 l 561 606 l 1007 606 l 913 69 q 740 1 836 29 q 535 -28 643 -28 q 333 1 424 -28 q 178 85 243 29 q 78 222 114 140 q 43 407 43 303 q 86 643 43 533 q 206 835 129 753 q 391 964 283 917 q 628 1011 499 1011 q 856 974 756 1011 q 1008 874 956 938 l 792 646 m 933 1261 q 895 1164 922 1203 q 832 1102 868 1125 q 753 1070 796 1079 q 665 1061 710 1061 q 578 1070 619 1061 q 506 1102 538 1079 q 455 1164 474 1125 q 436 1261 436 1203 l 585 1261 q 613 1216 585 1228 q 671 1204 642 1204 q 708 1207 689 1204 q 744 1216 728 1210 q 771 1233 760 1222 q 785 1261 782 1244 l 933 1261 z "},"ğ":{"ha":963,"x_min":-50,"x_max":928,"o":"m 319 0 q 185 22 243 0 q 90 84 128 44 q 32 178 51 124 q 13 296 13 232 q 42 471 13 389 q 126 615 72 553 q 254 712 179 676 q 419 747 329 747 q 528 724 472 747 q 618 651 585 701 l 622 651 l 635 731 l 928 731 l 813 74 q 654 -237 774 -142 q 329 -333 535 -333 q 224 -326 278 -333 q 121 -305 171 -319 q 27 -269 71 -290 q -50 -219 -17 -247 l 97 -6 q 204 -71 142 -49 q 319 -93 267 -93 q 399 -82 367 -93 q 454 -52 432 -71 q 488 -9 476 -33 q 504 43 500 15 l 511 79 l 507 79 q 478 53 496 67 q 436 27 460 39 q 383 8 413 15 q 319 0 353 0 m 311 336 q 316 300 311 319 q 333 265 321 281 q 368 240 346 250 q 424 229 390 229 q 484 244 457 229 q 530 281 511 258 q 559 334 549 304 q 569 396 569 364 q 540 472 569 444 q 458 500 510 500 q 395 485 422 500 q 349 447 368 471 q 321 394 331 424 q 311 336 311 365 m 821 1011 q 783 914 810 953 q 719 852 756 875 q 640 820 683 829 q 553 811 597 811 q 466 820 507 811 q 393 852 425 829 q 342 914 361 875 q 324 1011 324 953 l 472 1011 q 501 966 472 978 q 558 954 529 954 q 596 957 576 954 q 631 966 615 960 q 658 983 647 972 q 672 1011 669 994 l 821 1011 z "},"Ġ":{"ha":1060,"x_min":43,"x_max":1008,"o":"m 792 646 q 728 704 768 682 q 626 726 689 726 q 533 706 578 726 q 453 649 488 686 q 399 560 419 613 q 378 440 378 507 q 425 305 378 358 q 575 251 472 251 q 623 256 599 251 q 663 267 647 260 l 678 353 l 517 353 l 561 606 l 1007 606 l 913 69 q 740 1 836 29 q 535 -28 643 -28 q 333 1 424 -28 q 178 85 243 29 q 78 222 114 140 q 43 407 43 303 q 86 643 43 533 q 206 835 129 753 q 391 964 283 917 q 628 1011 499 1011 q 856 974 756 1011 q 1008 874 956 938 l 792 646 m 669 1051 q 568 1088 606 1051 q 531 1174 531 1125 q 542 1236 531 1207 q 574 1288 553 1265 q 624 1322 594 1310 q 689 1335 653 1335 q 789 1298 751 1335 q 826 1213 826 1261 q 815 1150 826 1179 q 783 1099 804 1121 q 733 1064 763 1076 q 669 1051 704 1051 z "},"ġ":{"ha":963,"x_min":-50,"x_max":928,"o":"m 319 0 q 185 22 243 0 q 90 84 128 44 q 32 178 51 124 q 13 296 13 232 q 42 471 13 389 q 126 615 72 553 q 254 712 179 676 q 419 747 329 747 q 528 724 472 747 q 618 651 585 701 l 622 651 l 635 731 l 928 731 l 813 74 q 654 -237 774 -142 q 329 -333 535 -333 q 224 -326 278 -333 q 121 -305 171 -319 q 27 -269 71 -290 q -50 -219 -17 -247 l 97 -6 q 204 -71 142 -49 q 319 -93 267 -93 q 399 -82 367 -93 q 454 -52 432 -71 q 488 -9 476 -33 q 504 43 500 15 l 511 79 l 507 79 q 478 53 496 67 q 436 27 460 39 q 383 8 413 15 q 319 0 353 0 m 311 336 q 316 300 311 319 q 333 265 321 281 q 368 240 346 250 q 424 229 390 229 q 484 244 457 229 q 530 281 511 258 q 559 334 549 304 q 569 396 569 364 q 540 472 569 444 q 458 500 510 500 q 395 485 422 500 q 349 447 368 471 q 321 394 331 424 q 311 336 311 365 m 542 801 q 440 838 478 801 q 403 924 403 875 q 414 986 403 957 q 446 1038 425 1015 q 496 1072 467 1060 q 561 1085 525 1085 q 661 1048 624 1085 q 699 963 699 1011 q 688 900 699 929 q 656 849 676 871 q 606 814 635 826 q 542 801 576 801 z "},"Ģ":{"ha":1060,"x_min":43,"x_max":1008,"o":"m 792 646 q 728 704 768 682 q 626 726 689 726 q 533 706 578 726 q 453 649 488 686 q 399 560 419 613 q 378 440 378 507 q 425 305 378 358 q 575 251 472 251 q 623 256 599 251 q 663 267 647 260 l 678 353 l 517 353 l 561 606 l 1007 606 l 913 69 q 740 1 836 29 q 535 -28 643 -28 q 333 1 424 -28 q 178 85 243 29 q 78 222 114 140 q 43 407 43 303 q 86 643 43 533 q 206 835 129 753 q 391 964 283 917 q 628 1011 499 1011 q 856 974 756 1011 q 1008 874 956 938 l 792 646 m 436 -333 l 213 -333 l 369 -62 l 626 -62 l 436 -333 z "},"ģ":{"ha":963,"x_min":-50,"x_max":928,"o":"m 319 0 q 185 22 243 0 q 90 84 128 44 q 32 178 51 124 q 13 296 13 232 q 42 471 13 389 q 126 615 72 553 q 254 712 179 676 q 419 747 329 747 q 528 724 472 747 q 618 651 585 701 l 622 651 l 635 731 l 928 731 l 813 74 q 654 -237 774 -142 q 329 -333 535 -333 q 224 -326 278 -333 q 121 -305 171 -319 q 27 -269 71 -290 q -50 -219 -17 -247 l 97 -6 q 204 -71 142 -49 q 319 -93 267 -93 q 399 -82 367 -93 q 454 -52 432 -71 q 488 -9 476 -33 q 504 43 500 15 l 511 79 l 507 79 q 478 53 496 67 q 436 27 460 39 q 383 8 413 15 q 319 0 353 0 m 311 336 q 316 300 311 319 q 333 265 321 281 q 368 240 346 250 q 424 229 390 229 q 484 244 457 229 q 530 281 511 258 q 559 334 549 304 q 569 396 569 364 q 540 472 569 444 q 458 500 510 500 q 395 485 422 500 q 349 447 368 471 q 321 394 331 424 q 311 336 311 365 m 542 1082 l 765 1082 l 608 811 l 351 811 l 542 1082 z "},"Ĥ":{"ha":1108,"x_min":10,"x_max":1106,"o":"m 611 0 l 678 378 l 397 378 l 331 0 l 10 0 l 183 983 l 503 983 l 443 646 l 724 646 l 783 983 l 1106 983 l 932 0 l 611 0 m 750 1061 l 674 1157 l 564 1061 l 356 1061 l 579 1261 l 811 1261 l 961 1061 l 750 1061 z "},"ĥ":{"ha":918,"x_min":-8,"x_max":881,"o":"m 454 0 l 522 388 q 526 413 525 400 q 526 435 526 426 q 511 480 526 463 q 463 497 496 497 q 406 469 431 497 q 372 386 382 440 l 304 0 l -8 0 l 176 1050 l 489 1050 l 418 646 l 421 646 q 509 717 454 686 q 628 747 564 747 q 731 729 689 747 q 801 681 774 711 q 840 613 828 651 q 851 532 851 574 q 849 485 851 510 q 843 439 847 461 l 767 0 l 454 0 m 669 1106 l 593 1201 l 483 1106 l 275 1106 l 499 1306 l 731 1306 l 881 1106 l 669 1106 z "},"Ħ":{"ha":1108,"x_min":10,"x_max":1106,"o":"m 611 0 l 678 378 l 397 378 l 331 0 l 10 0 l 183 983 l 503 983 l 483 875 l 764 875 l 783 983 l 1106 983 l 932 0 l 611 0 m 724 646 l 736 722 l 456 722 l 443 646 l 724 646 z "},"ħ":{"ha":918,"x_min":-8,"x_max":851,"o":"m 90 944 l 157 944 l 176 1050 l 489 1050 l 469 944 l 619 944 l 592 792 l 443 792 l 418 646 l 421 646 q 509 717 454 686 q 628 747 564 747 q 731 729 689 747 q 801 681 774 711 q 840 613 828 651 q 851 532 851 574 q 849 485 851 510 q 843 439 847 461 l 767 0 l 454 0 l 522 388 q 526 413 525 400 q 526 435 526 426 q 511 480 526 463 q 463 497 496 497 q 406 469 431 497 q 372 386 382 440 l 304 0 l -8 0 l 131 792 l 63 792 l 90 944 z "},"Ĩ":{"ha":510,"x_min":10,"x_max":639,"o":"m 10 0 l 183 983 l 507 983 l 333 0 l 10 0 m 639 1250 q 611 1174 629 1210 q 568 1113 593 1139 q 513 1072 543 1086 q 446 1057 482 1057 q 391 1065 417 1057 q 339 1089 365 1074 q 293 1113 308 1107 q 257 1119 278 1119 q 219 1105 235 1119 q 196 1069 203 1090 l 86 1069 q 113 1142 96 1108 q 155 1202 131 1176 q 210 1242 179 1228 q 276 1257 240 1257 q 333 1248 308 1257 q 385 1224 357 1239 q 432 1201 415 1208 q 471 1194 449 1194 q 506 1208 493 1194 q 531 1250 519 1222 l 639 1250 z "},"ĩ":{"ha":465,"x_min":-7,"x_max":575,"o":"m -7 0 l 122 731 l 433 731 l 304 0 l -7 0 m 575 1000 q 547 924 565 960 q 504 863 529 889 q 449 822 479 836 q 382 807 418 807 q 327 815 353 807 q 275 839 301 824 q 229 863 244 857 q 193 869 214 869 q 155 855 171 869 q 132 819 139 840 l 22 819 q 49 892 32 858 q 91 952 67 926 q 146 992 115 978 q 213 1007 176 1007 q 269 998 244 1007 q 321 974 293 989 q 368 951 351 958 q 407 944 385 944 q 442 958 429 944 q 467 1000 456 972 l 575 1000 z "},"Ī":{"ha":510,"x_min":10,"x_max":629,"o":"m 10 0 l 183 983 l 507 983 l 333 0 l 10 0 m 110 1099 l 132 1231 l 629 1231 l 607 1099 l 110 1099 z "},"ī":{"ha":465,"x_min":-7,"x_max":560,"o":"m -7 0 l 122 731 l 433 731 l 304 0 l -7 0 m 40 849 l 63 981 l 560 981 l 538 849 l 40 849 z "},"Į":{"ha":510,"x_min":-49,"x_max":507,"o":"m 297 -272 q 206 -316 256 -300 q 104 -332 157 -332 q 49 -327 76 -332 q -1 -308 21 -322 q -35 -272 -22 -294 q -49 -211 -49 -249 q -31 -146 -49 -176 q 16 -89 -12 -115 q 78 -40 44 -62 q 143 0 111 -18 l 10 0 l 183 983 l 507 983 l 333 0 l 326 0 q 189 -97 232 -60 q 146 -161 146 -133 q 155 -178 146 -172 q 175 -185 164 -185 q 258 -160 213 -185 l 297 -272 l 297 -272 z "},"į":{"ha":465,"x_min":-75,"x_max":471,"o":"m 271 -272 q 180 -316 229 -300 q 78 -332 131 -332 q 22 -327 50 -332 q -27 -308 -6 -322 q -62 -272 -49 -294 q -75 -211 -75 -249 q -57 -146 -75 -176 q -10 -89 -39 -115 q 51 -40 18 -62 q 117 0 85 -18 l -7 0 l 122 731 l 433 731 l 304 0 l 300 0 q 163 -97 206 -60 q 119 -161 119 -133 q 128 -178 119 -172 q 149 -185 138 -185 q 232 -160 186 -185 l 271 -272 m 296 785 q 231 796 260 785 q 183 826 203 807 q 153 869 164 844 q 142 919 142 893 q 154 990 142 957 q 190 1047 167 1022 q 246 1085 214 1071 q 318 1099 278 1099 q 380 1088 351 1099 q 428 1058 408 1076 q 460 1015 449 1039 q 471 964 471 990 q 458 894 471 926 q 423 837 446 861 q 367 799 400 813 q 296 785 335 785 z "},"İ":{"ha":510,"x_min":10,"x_max":515,"o":"m 10 0 l 183 983 l 507 983 l 333 0 l 10 0 m 358 1051 q 257 1088 294 1051 q 219 1174 219 1125 q 231 1236 219 1207 q 263 1288 242 1265 q 313 1322 283 1310 q 378 1335 342 1335 q 478 1298 440 1335 q 515 1213 515 1261 q 504 1150 515 1179 q 472 1099 493 1121 q 422 1064 451 1076 q 358 1051 393 1051 z "},"ı":{"ha":465,"x_min":-7,"x_max":433,"o":"m -7 0 l 122 731 l 433 731 l 304 0 l -7 0 z "},"Ĳ":{"ha":1290,"x_min":10,"x_max":1301,"o":"m 10 0 l 183 983 l 507 983 l 333 0 l 10 0 m 1189 354 q 1156 222 1178 289 q 1092 99 1135 154 q 978 8 1050 43 q 796 -28 907 -28 q 568 38 658 -28 q 443 221 478 103 l 738 325 q 757 283 742 301 q 800 265 772 265 q 846 289 832 265 q 867 349 860 313 l 979 983 l 1301 983 l 1189 354 z "},"ĳ":{"ha":921,"x_min":-7,"x_max":928,"o":"m -7 0 l 122 731 l 433 731 l 304 0 l -7 0 m 296 785 q 231 796 260 785 q 183 826 203 807 q 153 869 164 844 q 142 919 142 893 q 154 990 142 957 q 190 1047 167 1022 q 246 1085 214 1071 q 318 1099 278 1099 q 380 1088 351 1099 q 428 1058 408 1076 q 460 1015 449 1039 q 471 964 471 990 q 458 894 471 926 q 423 837 446 861 q 367 799 400 813 q 296 785 335 785 m 763 1 q 727 -131 750 -68 q 662 -241 704 -193 q 553 -317 619 -289 q 386 -346 486 -346 q 322 -342 358 -346 q 258 -329 285 -337 l 311 -76 q 339 -82 326 -81 q 361 -83 351 -83 q 422 -61 399 -83 q 453 10 444 -39 l 581 731 l 892 731 l 763 1 m 753 785 q 688 796 717 785 q 640 826 660 807 q 610 869 621 844 q 599 919 599 893 q 611 990 599 957 q 647 1047 624 1022 q 703 1085 671 1071 q 775 1099 735 1099 q 837 1088 808 1099 q 885 1058 865 1076 q 917 1015 906 1039 q 928 964 928 990 q 915 894 928 926 q 880 837 903 861 q 824 799 857 813 q 753 785 792 785 z "},"Ĵ":{"ha":781,"x_min":-67,"x_max":940,"o":"m 679 354 q 647 222 668 289 q 583 99 625 154 q 469 8 540 43 q 286 -28 397 -28 q 58 38 149 -28 q -67 221 -32 103 l 228 325 q 247 283 232 301 q 290 265 263 265 q 336 289 322 265 q 357 349 350 313 l 469 983 l 792 983 l 679 354 m 729 1053 l 653 1149 l 543 1053 l 335 1053 l 558 1253 l 790 1253 l 940 1053 l 729 1053 z "},"ĵ":{"ha":474,"x_min":-189,"x_max":600,"o":"m 315 1 q 280 -131 303 -68 q 215 -241 257 -193 q 106 -317 172 -289 q -61 -346 39 -346 q -126 -342 -89 -346 q -189 -329 -162 -337 l -136 -76 q -108 -82 -121 -81 q -86 -83 -96 -83 q -26 -61 -49 -83 q 6 10 -3 -39 l 133 731 l 444 731 l 315 1 m 389 811 l 313 907 l 203 811 l -6 811 l 218 1011 l 450 1011 l 600 811 l 389 811 z "},"Ķ":{"ha":1028,"x_min":10,"x_max":1135,"o":"m 613 0 l 397 414 l 394 414 l 322 0 l 10 0 l 183 983 l 494 983 l 428 607 l 432 607 l 743 983 l 1135 983 l 693 508 l 997 0 l 613 0 m 403 -333 l 179 -333 l 336 -62 l 593 -62 l 403 -333 z "},"ķ":{"ha":903,"x_min":-8,"x_max":969,"o":"m 357 318 l 303 0 l -8 0 l 176 1050 l 489 1050 l 381 451 l 385 451 l 590 731 l 969 731 l 669 383 l 850 0 l 486 0 l 361 318 l 357 318 m 339 -333 l 115 -333 l 272 -62 l 529 -62 l 339 -333 z "},"Ĺ":{"ha":760,"x_min":10,"x_max":714,"o":"m 10 0 l 183 983 l 507 983 l 382 275 l 714 275 l 665 0 l 10 0 m 464 1061 l 235 1061 l 422 1261 l 711 1261 l 464 1061 z "},"ĺ":{"ha":469,"x_min":-8,"x_max":660,"o":"m -8 0 l 176 1050 l 494 1050 l 310 0 l -8 0 m 413 1100 l 183 1100 l 371 1300 l 660 1300 l 413 1100 z "},"Ļ":{"ha":760,"x_min":10,"x_max":714,"o":"m 10 0 l 183 983 l 507 983 l 382 275 l 714 275 l 665 0 l 10 0 m 276 -333 l 53 -333 l 210 -62 l 467 -62 l 276 -333 z "},"ļ":{"ha":469,"x_min":-133,"x_max":494,"o":"m -8 0 l 176 1050 l 494 1050 l 310 0 l -8 0 m 90 -335 l -133 -335 l 24 -64 l 281 -64 l 90 -335 z "},"Ľ":{"ha":760,"x_min":10,"x_max":906,"o":"m 10 0 l 183 983 l 507 983 l 382 275 l 714 275 l 665 0 l 10 0 m 724 731 l 500 731 l 649 983 l 906 983 l 724 731 z "},"ľ":{"ha":469,"x_min":-8,"x_max":872,"o":"m -8 0 l 176 1050 l 494 1050 l 310 0 l -8 0 m 690 731 l 467 731 l 615 983 l 872 983 l 690 731 z "},"Ŀ":{"ha":760,"x_min":10,"x_max":794,"o":"m 10 0 l 183 983 l 507 983 l 382 275 l 714 275 l 665 0 l 10 0 m 638 399 q 536 435 574 399 q 499 521 499 472 q 510 583 499 554 q 542 635 521 613 q 592 669 563 657 q 657 682 621 682 q 757 645 719 682 q 794 560 794 608 q 783 497 794 526 q 751 446 772 468 q 701 411 731 424 q 638 399 672 399 z "},"ŀ":{"ha":728,"x_min":-8,"x_max":756,"o":"m -8 0 l 176 1050 l 494 1050 l 310 0 l -8 0 m 599 399 q 497 435 535 399 q 460 521 460 472 q 471 583 460 554 q 503 635 482 613 q 553 669 524 657 q 618 682 582 682 q 718 645 681 682 q 756 560 756 608 q 744 497 756 526 q 713 446 733 468 q 663 411 692 424 q 599 399 633 399 z "},"Ł":{"ha":760,"x_min":-44,"x_max":729,"o":"m -44 131 l 1 394 l 90 461 l 182 983 l 507 983 l 457 700 l 729 903 l 682 640 l 411 439 l 381 276 l 714 276 l 665 0 l 8 0 l 43 197 l -44 131 z "},"ł":{"ha":469,"x_min":-22,"x_max":531,"o":"m 318 0 l -10 0 l 44 307 l -22 254 l 25 524 l 92 578 l 175 1050 l 503 1050 l 464 829 l 531 882 l 483 613 l 417 558 l 318 0 z "},"Ń":{"ha":1099,"x_min":10,"x_max":1096,"o":"m 599 0 l 404 488 l 399 488 l 322 0 l 10 0 l 183 983 l 499 983 l 697 471 l 703 471 l 783 983 l 1096 983 l 922 0 l 599 0 m 719 1061 l 490 1061 l 678 1261 l 967 1261 l 719 1061 z "},"ń":{"ha":918,"x_min":-8,"x_max":851,"o":"m 94 588 q 106 656 100 614 q 115 731 113 697 l 415 731 q 411 683 414 710 q 406 636 408 656 l 411 636 q 501 714 443 681 q 628 747 558 747 q 731 729 689 747 q 801 681 774 711 q 840 613 828 651 q 851 532 851 574 q 849 485 851 510 q 843 439 847 461 l 767 0 l 454 0 l 522 388 q 526 413 525 400 q 526 435 526 426 q 511 480 526 463 q 463 497 496 497 q 406 469 431 497 q 372 386 382 440 l 303 0 l -8 0 l 94 588 m 571 811 l 342 811 l 529 1011 l 818 1011 l 571 811 z "},"Ņ":{"ha":1099,"x_min":10,"x_max":1096,"o":"m 599 0 l 404 488 l 399 488 l 322 0 l 10 0 l 183 983 l 499 983 l 697 471 l 703 471 l 783 983 l 1096 983 l 922 0 l 599 0 m 419 -333 l 196 -333 l 353 -62 l 610 -62 l 419 -333 z "},"ņ":{"ha":918,"x_min":-8,"x_max":851,"o":"m 94 588 q 106 656 100 614 q 115 731 113 697 l 415 731 q 411 683 414 710 q 406 636 408 656 l 411 636 q 501 714 443 681 q 628 747 558 747 q 731 729 689 747 q 801 681 774 711 q 840 613 828 651 q 851 532 851 574 q 849 485 851 510 q 843 439 847 461 l 767 0 l 454 0 l 522 388 q 526 413 525 400 q 526 435 526 426 q 511 480 526 463 q 463 497 496 497 q 406 469 431 497 q 372 386 382 440 l 303 0 l -8 0 l 94 588 m 318 -333 l 94 -333 l 251 -62 l 508 -62 l 318 -333 z "},"Ň":{"ha":1099,"x_min":10,"x_max":1096,"o":"m 599 0 l 404 488 l 399 488 l 322 0 l 10 0 l 183 983 l 499 983 l 697 471 l 703 471 l 783 983 l 1096 983 l 922 0 l 599 0 m 749 1061 l 517 1061 l 363 1261 l 571 1261 l 647 1164 l 757 1261 l 968 1261 l 749 1061 z "},"ň":{"ha":918,"x_min":-8,"x_max":851,"o":"m 94 588 q 106 656 100 614 q 115 731 113 697 l 415 731 q 411 683 414 710 q 406 636 408 656 l 411 636 q 501 714 443 681 q 628 747 558 747 q 731 729 689 747 q 801 681 774 711 q 840 613 828 651 q 851 532 851 574 q 849 485 851 510 q 843 439 847 461 l 767 0 l 454 0 l 522 388 q 526 413 525 400 q 526 435 526 426 q 511 480 526 463 q 463 497 496 497 q 406 469 431 497 q 372 386 382 440 l 303 0 l -8 0 l 94 588 m 622 811 l 390 811 l 236 1011 l 444 1011 l 521 914 l 631 1011 l 842 1011 l 622 811 z "},"ŉ":{"ha":1111,"x_min":29,"x_max":1044,"o":"m 288 588 q 299 656 293 614 q 308 731 306 697 l 608 731 q 604 683 607 710 q 599 636 601 656 l 604 636 q 694 714 636 681 q 821 747 751 747 q 924 729 882 747 q 994 681 967 711 q 1033 613 1021 651 q 1044 532 1044 574 q 1042 485 1044 510 q 1036 439 1040 461 l 960 0 l 647 0 l 715 388 q 719 413 718 400 q 719 435 719 426 q 704 480 719 463 q 656 497 689 497 q 599 469 624 497 q 565 386 575 440 l 496 0 l 185 0 l 288 588 m 253 731 l 29 731 l 178 983 l 435 983 l 253 731 z "},"Ō":{"ha":1157,"x_min":43,"x_max":1129,"o":"m 531 -25 q 322 8 413 -25 q 169 100 231 40 q 75 242 107 160 q 43 422 43 324 q 86 651 43 544 q 207 838 129 758 q 395 963 285 917 q 640 1008 506 1008 q 851 976 760 1008 q 1003 883 942 943 q 1097 742 1065 824 q 1129 561 1129 660 q 1087 332 1129 439 q 966 146 1044 225 q 777 21 888 67 q 531 -25 667 -25 m 794 538 q 783 608 794 575 q 748 665 771 640 q 691 703 725 689 q 614 717 657 717 q 516 694 560 717 q 442 633 472 671 q 394 547 411 596 q 378 449 378 499 q 390 378 378 411 q 424 322 401 346 q 481 283 447 297 q 560 269 515 269 q 657 292 614 269 q 731 351 700 314 q 778 438 761 389 q 794 538 794 486 m 440 1099 l 463 1231 l 960 1231 l 938 1099 l 440 1099 z "},"ō":{"ha":917,"x_min":13,"x_max":868,"o":"m 410 -22 q 254 -1 326 -22 q 128 61 182 19 q 43 164 74 103 q 13 304 13 225 q 43 478 13 396 q 131 621 74 560 q 273 717 189 682 q 465 753 357 753 q 624 732 550 753 q 751 669 697 711 q 837 567 806 628 q 868 426 868 506 q 838 253 868 335 q 749 110 807 171 q 605 13 690 49 q 410 -22 519 -22 m 565 393 q 538 468 565 438 q 456 499 510 499 q 398 485 424 499 q 353 451 372 472 q 325 400 335 429 q 315 339 315 371 q 343 263 315 293 q 424 233 371 233 q 483 246 457 233 q 528 281 510 258 q 556 331 546 303 q 565 393 565 360 m 274 849 l 296 981 l 793 981 l 771 849 l 274 849 z "},"Ŏ":{"ha":1157,"x_min":43,"x_max":1129,"o":"m 531 -25 q 322 8 413 -25 q 169 100 231 40 q 75 242 107 160 q 43 422 43 324 q 86 651 43 544 q 207 838 129 758 q 395 963 285 917 q 640 1008 506 1008 q 851 976 760 1008 q 1003 883 942 943 q 1097 742 1065 824 q 1129 561 1129 660 q 1087 332 1129 439 q 966 146 1044 225 q 777 21 888 67 q 531 -25 667 -25 m 794 538 q 783 608 794 575 q 748 665 771 640 q 691 703 725 689 q 614 717 657 717 q 516 694 560 717 q 442 633 472 671 q 394 547 411 596 q 378 449 378 499 q 390 378 378 411 q 424 322 401 346 q 481 283 447 297 q 560 269 515 269 q 657 292 614 269 q 731 351 700 314 q 778 438 761 389 q 794 538 794 486 m 946 1261 q 908 1164 935 1203 q 844 1102 881 1125 q 765 1070 808 1079 q 678 1061 722 1061 q 591 1070 632 1061 q 518 1102 550 1079 q 467 1164 486 1125 q 449 1261 449 1203 l 597 1261 q 626 1216 597 1228 q 683 1204 654 1204 q 721 1207 701 1204 q 756 1216 740 1210 q 783 1233 772 1222 q 797 1261 794 1244 l 946 1261 z "},"ŏ":{"ha":917,"x_min":13,"x_max":868,"o":"m 410 -22 q 254 -1 326 -22 q 128 61 182 19 q 43 164 74 103 q 13 304 13 225 q 43 478 13 396 q 131 621 74 560 q 273 717 189 682 q 465 753 357 753 q 624 732 550 753 q 751 669 697 711 q 837 567 806 628 q 868 426 868 506 q 838 253 868 335 q 749 110 807 171 q 605 13 690 49 q 410 -22 519 -22 m 565 393 q 538 468 565 438 q 456 499 510 499 q 398 485 424 499 q 353 451 372 472 q 325 400 335 429 q 315 339 315 371 q 343 263 315 293 q 424 233 371 233 q 483 246 457 233 q 528 281 510 258 q 556 331 546 303 q 565 393 565 360 m 781 1011 q 742 914 769 953 q 679 852 715 875 q 600 820 643 829 q 513 811 557 811 q 426 820 467 811 q 353 852 385 829 q 302 914 321 875 q 283 1011 283 953 l 432 1011 q 460 966 432 978 q 518 954 489 954 q 556 957 536 954 q 591 966 575 960 q 618 983 607 972 q 632 1011 629 994 l 781 1011 z "},"Ő":{"ha":1157,"x_min":43,"x_max":1206,"o":"m 531 -25 q 322 8 413 -25 q 169 100 231 40 q 75 242 107 160 q 43 422 43 324 q 86 651 43 544 q 207 838 129 758 q 395 963 285 917 q 640 1008 506 1008 q 851 976 760 1008 q 1003 883 942 943 q 1097 742 1065 824 q 1129 561 1129 660 q 1087 332 1129 439 q 966 146 1044 225 q 777 21 888 67 q 531 -25 667 -25 m 794 538 q 783 608 794 575 q 748 665 771 640 q 691 703 725 689 q 614 717 657 717 q 516 694 560 717 q 442 633 472 671 q 394 547 411 596 q 378 449 378 499 q 390 378 378 411 q 424 322 401 346 q 481 283 447 297 q 560 269 515 269 q 657 292 614 269 q 731 351 700 314 q 778 438 761 389 q 794 538 794 486 m 958 1061 l 731 1061 l 918 1261 l 1206 1261 l 958 1061 m 625 1061 l 396 1061 l 583 1261 l 872 1261 l 625 1061 z "},"ő":{"ha":917,"x_min":13,"x_max":1035,"o":"m 410 -22 q 254 -1 326 -22 q 128 61 182 19 q 43 164 74 103 q 13 304 13 225 q 43 478 13 396 q 131 621 74 560 q 273 717 189 682 q 465 753 357 753 q 624 732 550 753 q 751 669 697 711 q 837 567 806 628 q 868 426 868 506 q 838 253 868 335 q 749 110 807 171 q 605 13 690 49 q 410 -22 519 -22 m 565 393 q 538 468 565 438 q 456 499 510 499 q 398 485 424 499 q 353 451 372 472 q 325 400 335 429 q 315 339 315 371 q 343 263 315 293 q 424 233 371 233 q 483 246 457 233 q 528 281 510 258 q 556 331 546 303 q 565 393 565 360 m 788 811 l 560 811 l 747 1011 l 1035 1011 l 788 811 m 454 811 l 225 811 l 413 1011 l 701 1011 l 454 811 z "},"Œ":{"ha":1378,"x_min":43,"x_max":1382,"o":"m 1382 983 l 1335 715 l 994 715 l 978 621 l 1303 621 l 1258 371 l 933 371 l 915 268 l 1296 268 l 1249 0 l 515 0 q 348 23 432 0 q 197 96 264 46 q 86 226 129 146 q 43 419 43 306 q 88 653 43 549 q 214 831 133 758 q 404 944 294 904 q 643 983 514 983 l 1382 983 m 701 707 l 629 707 q 519 685 567 707 q 440 628 472 664 q 392 547 408 593 q 376 454 376 501 q 388 383 376 417 q 422 326 399 350 q 483 287 446 301 q 569 272 519 272 l 624 272 l 701 707 z "},"œ":{"ha":1399,"x_min":13,"x_max":1350,"o":"m 671 75 q 563 3 631 29 q 410 -22 494 -22 q 254 -1 326 -22 q 128 61 182 19 q 43 164 74 103 q 13 304 13 225 q 43 478 13 396 q 131 621 74 560 q 273 717 189 682 q 465 753 357 753 q 615 729 549 753 q 731 649 682 706 q 846 726 774 700 q 1004 753 918 753 q 1149 730 1085 753 q 1257 665 1213 707 q 1326 562 1301 622 q 1350 426 1350 501 q 1345 360 1350 396 q 1331 293 1340 324 l 833 293 q 832 283 832 289 q 844 245 832 260 q 875 222 857 231 q 914 209 893 213 q 951 206 935 206 q 1019 217 986 206 q 1079 254 1053 229 l 1289 110 q 1124 7 1217 36 q 931 -22 1031 -22 q 856 -17 894 -22 q 783 1 818 -11 q 719 31 749 13 q 671 75 690 49 m 565 393 q 538 468 565 438 q 456 499 510 499 q 398 485 424 499 q 353 451 372 472 q 325 400 335 429 q 315 339 315 371 q 343 263 315 293 q 424 233 371 233 q 483 246 457 233 q 528 281 510 258 q 556 331 546 303 q 565 393 565 360 m 1079 458 q 1081 467 1081 463 q 1081 475 1081 472 q 1055 531 1081 510 q 983 551 1029 551 q 931 542 954 551 q 892 518 908 532 q 865 488 875 504 q 850 458 854 472 l 1079 458 z "},"Ŕ":{"ha":978,"x_min":10,"x_max":939,"o":"m 554 0 l 419 360 l 381 360 l 319 0 l 10 0 l 183 983 l 588 983 q 733 965 668 983 q 844 913 799 947 q 915 827 890 878 q 939 711 939 776 q 881 510 939 589 q 724 401 824 431 l 915 0 l 554 0 m 483 564 q 583 585 547 564 q 619 654 619 607 q 590 713 619 697 q 508 729 560 729 l 449 729 l 419 564 l 483 564 m 622 1061 l 393 1061 l 581 1261 l 869 1261 l 622 1061 z "},"ŕ":{"ha":611,"x_min":-8,"x_max":669,"o":"m 96 588 q 108 656 101 614 q 117 731 114 697 l 415 731 q 414 713 415 724 q 410 688 413 701 q 406 663 408 675 q 403 642 404 650 l 407 642 q 485 716 439 686 q 593 746 531 746 q 651 739 631 746 l 593 475 q 561 481 579 479 q 528 482 543 482 q 415 444 456 482 q 365 354 375 406 l 303 0 l -8 0 l 96 588 m 422 811 l 193 811 l 381 1011 l 669 1011 l 422 811 z "},"Ŗ":{"ha":978,"x_min":10,"x_max":939,"o":"m 554 0 l 419 360 l 381 360 l 319 0 l 10 0 l 183 983 l 588 983 q 733 965 668 983 q 844 913 799 947 q 915 827 890 878 q 939 711 939 776 q 881 510 939 589 q 724 401 824 431 l 915 0 l 554 0 m 483 564 q 583 585 547 564 q 619 654 619 607 q 590 713 619 697 q 508 729 560 729 l 449 729 l 419 564 l 483 564 m 381 -333 l 157 -333 l 314 -62 l 571 -62 l 381 -333 z "},"ŗ":{"ha":611,"x_min":-135,"x_max":651,"o":"m 96 588 q 108 656 101 614 q 117 731 114 697 l 415 731 q 414 713 415 724 q 410 688 413 701 q 406 663 408 675 q 403 642 404 650 l 407 642 q 485 716 439 686 q 593 746 531 746 q 651 739 631 746 l 593 475 q 561 481 579 479 q 528 482 543 482 q 415 444 456 482 q 365 354 375 406 l 303 0 l -8 0 l 96 588 m 89 -335 l -135 -335 l 22 -64 l 279 -64 l 89 -335 z "},"Ř":{"ha":978,"x_min":10,"x_max":939,"o":"m 554 0 l 419 360 l 381 360 l 319 0 l 10 0 l 183 983 l 588 983 q 733 965 668 983 q 844 913 799 947 q 915 827 890 878 q 939 711 939 776 q 881 510 939 589 q 724 401 824 431 l 915 0 l 554 0 m 483 564 q 583 585 547 564 q 619 654 619 607 q 590 713 619 697 q 508 729 560 729 l 449 729 l 419 564 l 483 564 m 657 1061 l 425 1061 l 271 1261 l 479 1261 l 556 1164 l 665 1261 l 876 1261 l 657 1061 z "},"ř":{"ha":611,"x_min":-8,"x_max":718,"o":"m 96 588 q 108 656 101 614 q 117 731 114 697 l 415 731 q 414 713 415 724 q 410 688 413 701 q 406 663 408 675 q 403 642 404 650 l 407 642 q 485 716 439 686 q 593 746 531 746 q 651 739 631 746 l 593 475 q 561 481 579 479 q 528 482 543 482 q 415 444 456 482 q 365 354 375 406 l 303 0 l -8 0 l 96 588 m 499 811 l 267 811 l 113 1011 l 321 1011 l 397 914 l 507 1011 l 718 1011 l 499 811 z "},"Ś":{"ha":835,"x_min":-71,"x_max":864,"o":"m 657 690 q 596 735 633 718 q 508 753 558 753 q 438 736 469 753 q 407 685 407 719 q 433 642 407 657 q 511 610 460 626 q 625 563 575 589 q 710 501 675 536 q 763 422 744 467 q 782 322 782 378 q 740 161 782 228 q 634 53 699 94 q 492 -8 569 11 q 340 -28 414 -28 q 224 -18 282 -28 q 112 10 165 -8 q 11 54 58 28 q -71 114 -36 81 l 149 317 q 189 282 165 297 q 238 256 213 267 q 290 240 264 246 q 339 233 317 233 q 417 249 388 233 q 446 296 446 265 q 422 340 446 321 q 331 381 397 360 q 231 419 278 397 q 151 473 185 442 q 97 548 117 504 q 78 654 78 592 q 109 796 78 731 q 198 909 140 861 q 335 984 256 957 q 511 1011 415 1011 q 615 1002 564 1011 q 713 977 667 993 q 797 939 758 961 q 863 889 836 917 l 657 690 m 617 1061 l 388 1061 l 575 1261 l 864 1261 l 617 1061 z "},"ś":{"ha":686,"x_min":-62,"x_max":732,"o":"m 96 264 q 179 210 132 228 q 267 192 226 192 q 310 199 294 192 q 326 224 326 207 q 305 251 326 240 q 250 272 283 263 q 163 304 201 286 q 98 347 125 322 q 56 406 71 372 q 42 483 42 439 q 72 603 42 551 q 151 688 101 654 q 262 738 200 721 q 386 754 324 754 q 552 730 472 754 q 682 661 632 706 l 522 478 q 457 520 499 503 q 375 538 415 538 q 330 530 347 538 q 313 506 313 522 q 327 484 313 492 q 378 467 342 476 q 472 435 429 454 q 544 390 514 417 q 592 328 575 364 q 608 243 608 292 q 576 118 608 169 q 492 35 543 67 q 380 -11 442 3 q 258 -25 318 -25 q 92 -3 179 -25 q -62 75 4 19 l 96 264 m 485 811 l 256 811 l 443 1011 l 732 1011 l 485 811 z "},"Ŝ":{"ha":835,"x_min":-71,"x_max":863,"o":"m 657 690 q 596 735 633 718 q 508 753 558 753 q 438 736 469 753 q 407 685 407 719 q 433 642 407 657 q 511 610 460 626 q 625 563 575 589 q 710 501 675 536 q 763 422 744 467 q 782 322 782 378 q 740 161 782 228 q 634 53 699 94 q 492 -8 569 11 q 340 -28 414 -28 q 224 -18 282 -28 q 112 10 165 -8 q 11 54 58 28 q -71 114 -36 81 l 149 317 q 189 282 165 297 q 238 256 213 267 q 290 240 264 246 q 339 233 317 233 q 417 249 388 233 q 446 296 446 265 q 422 340 446 321 q 331 381 397 360 q 231 419 278 397 q 151 473 185 442 q 97 548 117 504 q 78 654 78 592 q 109 796 78 731 q 198 909 140 861 q 335 984 256 957 q 511 1011 415 1011 q 615 1002 564 1011 q 713 977 667 993 q 797 939 758 961 q 863 889 836 917 l 657 690 m 642 1061 l 565 1157 l 456 1061 l 247 1061 l 471 1261 l 703 1261 l 853 1061 l 642 1061 z "},"ŝ":{"ha":686,"x_min":-62,"x_max":706,"o":"m 96 264 q 179 210 132 228 q 267 192 226 192 q 310 199 294 192 q 326 224 326 207 q 305 251 326 240 q 250 272 283 263 q 163 304 201 286 q 98 347 125 322 q 56 406 71 372 q 42 483 42 439 q 72 603 42 551 q 151 688 101 654 q 262 738 200 721 q 386 754 324 754 q 552 730 472 754 q 682 661 632 706 l 522 478 q 457 520 499 503 q 375 538 415 538 q 330 530 347 538 q 313 506 313 522 q 327 484 313 492 q 378 467 342 476 q 472 435 429 454 q 544 390 514 417 q 592 328 575 364 q 608 243 608 292 q 576 118 608 169 q 492 35 543 67 q 380 -11 442 3 q 258 -25 318 -25 q 92 -3 179 -25 q -62 75 4 19 l 96 264 m 494 811 l 418 907 l 308 811 l 100 811 l 324 1011 l 556 1011 l 706 811 l 494 811 z "},"Ş":{"ha":835,"x_min":-71,"x_max":863,"o":"m 492 -181 q 472 -251 492 -222 q 419 -299 451 -281 q 347 -324 388 -317 q 264 -332 306 -332 q 216 -329 242 -332 q 165 -322 190 -326 q 115 -312 139 -318 q 75 -300 92 -307 l 132 -194 q 190 -211 156 -206 q 250 -217 224 -217 q 288 -210 271 -217 q 304 -186 304 -204 q 290 -165 304 -171 q 257 -160 276 -160 q 227 -162 243 -160 q 197 -168 211 -164 l 147 -121 l 249 -21 q 70 25 154 -10 q -71 114 -14 60 l 149 317 q 189 282 165 297 q 238 256 213 267 q 290 240 264 246 q 339 233 317 233 q 417 249 388 233 q 446 296 446 265 q 422 340 446 321 q 331 381 397 360 q 231 419 278 397 q 151 473 185 442 q 97 548 117 504 q 78 654 78 592 q 109 796 78 731 q 198 909 140 861 q 335 984 256 957 q 511 1011 415 1011 q 615 1002 564 1011 q 713 977 667 993 q 797 939 758 961 q 863 889 836 917 l 657 690 q 596 735 633 718 q 508 753 558 753 q 438 736 469 753 q 407 685 407 719 q 433 642 407 657 q 511 610 460 626 q 625 563 575 589 q 710 501 675 536 q 763 422 744 467 q 782 322 782 378 q 748 174 782 236 q 660 70 714 113 q 537 5 606 28 q 400 -25 468 -18 l 347 -74 q 359 -72 354 -72 q 371 -72 364 -72 q 407 -77 386 -72 q 447 -94 428 -82 q 478 -126 465 -106 q 492 -181 492 -147 z "},"ş":{"ha":686,"x_min":-62,"x_max":682,"o":"m 431 -181 q 410 -251 431 -222 q 358 -299 390 -281 q 285 -324 326 -317 q 203 -332 244 -332 q 155 -329 181 -332 q 103 -322 129 -326 q 54 -312 78 -318 q 14 -300 31 -307 l 71 -194 q 128 -211 94 -206 q 189 -217 163 -217 q 226 -210 210 -217 q 243 -186 243 -204 q 229 -165 243 -171 q 196 -160 215 -160 q 166 -162 182 -160 q 136 -168 150 -164 l 86 -121 l 188 -21 q 55 8 121 -14 q -62 75 -11 31 l 96 264 q 179 210 132 228 q 267 192 226 192 q 310 199 294 192 q 326 224 326 207 q 305 251 326 240 q 250 272 283 263 q 163 304 201 286 q 98 347 125 322 q 56 406 71 372 q 42 483 42 439 q 72 603 42 551 q 151 688 101 654 q 262 738 200 721 q 386 754 324 754 q 552 730 472 754 q 682 661 632 706 l 522 478 q 457 520 499 503 q 375 538 415 538 q 330 530 347 538 q 313 506 313 522 q 327 484 313 492 q 378 467 342 476 q 472 435 429 454 q 544 390 514 417 q 592 328 575 364 q 608 243 608 292 q 586 138 608 182 q 528 61 564 93 q 444 10 492 29 q 347 -17 397 -8 l 286 -74 q 298 -72 293 -72 q 310 -72 303 -72 q 346 -77 325 -72 q 385 -94 367 -82 q 417 -126 404 -106 q 431 -181 431 -147 z "},"Š":{"ha":835,"x_min":-71,"x_max":863,"o":"m 657 690 q 596 735 633 718 q 508 753 558 753 q 438 736 469 753 q 407 685 407 719 q 433 642 407 657 q 511 610 460 626 q 625 563 575 589 q 710 501 675 536 q 763 422 744 467 q 782 322 782 378 q 740 161 782 228 q 634 53 699 94 q 492 -8 569 11 q 340 -28 414 -28 q 224 -18 282 -28 q 112 10 165 -8 q 11 54 58 28 q -71 114 -36 81 l 149 317 q 189 282 165 297 q 238 256 213 267 q 290 240 264 246 q 339 233 317 233 q 417 249 388 233 q 446 296 446 265 q 422 340 446 321 q 331 381 397 360 q 231 419 278 397 q 151 473 185 442 q 97 548 117 504 q 78 654 78 592 q 109 796 78 731 q 198 909 140 861 q 335 984 256 957 q 511 1011 415 1011 q 615 1002 564 1011 q 713 977 667 993 q 797 939 758 961 q 863 889 836 917 l 657 690 m 633 1061 l 401 1061 l 247 1261 l 456 1261 l 532 1164 l 642 1261 l 853 1261 l 633 1061 z "},"š":{"ha":686,"x_min":-62,"x_max":722,"o":"m 96 264 q 179 210 132 228 q 267 192 226 192 q 310 199 294 192 q 326 224 326 207 q 305 251 326 240 q 250 272 283 263 q 163 304 201 286 q 98 347 125 322 q 56 406 71 372 q 42 483 42 439 q 72 603 42 551 q 151 688 101 654 q 262 738 200 721 q 386 754 324 754 q 552 730 472 754 q 682 661 632 706 l 522 478 q 457 520 499 503 q 375 538 415 538 q 330 530 347 538 q 313 506 313 522 q 327 484 313 492 q 378 467 342 476 q 472 435 429 454 q 544 390 514 417 q 592 328 575 364 q 608 243 608 292 q 576 118 608 169 q 492 35 543 67 q 380 -11 442 3 q 258 -25 318 -25 q 92 -3 179 -25 q -62 75 4 19 l 96 264 m 503 811 l 271 811 l 117 1011 l 325 1011 l 401 914 l 511 1011 l 722 1011 l 503 811 z "},"Ţ":{"ha":810,"x_min":40,"x_max":900,"o":"m 611 713 l 486 0 l 164 0 l 289 713 l 40 713 l 89 983 l 900 983 l 851 713 l 611 713 m 268 -333 l 44 -333 l 201 -62 l 458 -62 l 268 -333 z "},"ţ":{"ha":557,"x_min":-42,"x_max":579,"o":"m 404 507 l 367 301 q 365 282 365 293 q 364 264 364 271 q 380 222 364 232 q 425 211 396 211 q 458 214 442 211 q 486 219 475 217 l 449 6 q 385 -12 431 -6 q 296 -19 339 -19 q 206 -11 250 -19 q 126 18 161 -3 q 70 75 92 39 q 49 168 49 111 q 51 203 49 183 q 56 239 53 222 l 104 507 l -4 507 l 35 731 l 138 731 l 167 896 l 468 896 l 439 731 l 579 731 l 540 507 l 404 507 m 182 -333 l -42 -333 l 115 -62 l 372 -62 l 182 -333 z "},"Ť":{"ha":810,"x_min":40,"x_max":900,"o":"m 611 713 l 486 0 l 164 0 l 289 713 l 40 713 l 89 983 l 900 983 l 851 713 l 611 713 m 615 1061 l 383 1061 l 229 1261 l 438 1261 l 514 1164 l 624 1261 l 835 1261 l 615 1061 z "},"ť":{"ha":557,"x_min":-4,"x_max":883,"o":"m 404 507 l 367 301 q 365 282 365 293 q 364 264 364 271 q 380 222 364 232 q 425 211 396 211 q 458 214 442 211 q 486 219 475 217 l 449 6 q 385 -12 431 -6 q 296 -19 339 -19 q 206 -11 250 -19 q 126 18 161 -3 q 70 75 92 39 q 49 168 49 111 q 51 203 49 183 q 56 239 53 222 l 104 507 l -4 507 l 35 731 l 138 731 l 167 896 l 468 896 l 439 731 l 579 731 l 540 507 l 404 507 m 701 763 l 478 763 l 626 1015 l 883 1015 l 701 763 z "},"Ŧ":{"ha":810,"x_min":40,"x_max":900,"o":"m 119 599 l 268 599 l 289 713 l 40 713 l 89 983 l 900 983 l 851 713 l 611 713 l 590 599 l 739 599 l 711 446 l 564 446 l 486 0 l 164 0 l 242 446 l 92 446 l 119 599 z "},"ŧ":{"ha":557,"x_min":-15,"x_max":579,"o":"m 13 443 l 92 443 l 104 507 l -4 507 l 35 731 l 138 731 l 167 896 l 468 896 l 439 731 l 579 731 l 540 507 l 404 507 l 392 443 l 497 443 l 469 290 l 365 290 q 364 276 364 283 q 364 264 364 268 q 380 222 364 232 q 425 211 396 211 q 458 214 442 211 q 486 219 475 217 l 449 6 q 385 -12 431 -6 q 296 -19 339 -19 q 206 -11 250 -19 q 126 18 161 -3 q 70 75 92 39 q 49 168 49 111 q 51 203 49 183 q 56 239 53 222 l 64 290 l -15 290 l 13 443 z "},"Ũ":{"ha":1071,"x_min":56,"x_max":1074,"o":"m 967 361 q 915 202 951 274 q 817 81 878 131 q 672 3 757 31 q 478 -25 588 -25 q 306 -4 383 -25 q 172 56 228 17 q 86 153 117 96 q 56 282 56 210 q 58 327 56 301 q 64 374 61 353 l 168 983 l 486 983 l 385 415 q 382 392 382 404 q 382 369 382 379 q 410 289 382 324 q 504 254 438 254 q 574 268 547 254 q 618 304 601 282 q 643 354 635 326 q 657 410 651 382 l 761 983 l 1074 983 l 967 361 m 928 1250 q 900 1174 918 1210 q 857 1113 882 1139 q 801 1072 832 1086 q 735 1057 771 1057 q 680 1065 706 1057 q 628 1089 654 1074 q 582 1113 597 1107 q 546 1119 567 1119 q 508 1105 524 1119 q 485 1069 492 1090 l 375 1069 q 402 1142 385 1108 q 444 1202 419 1176 q 499 1242 468 1228 q 565 1257 529 1257 q 622 1248 597 1257 q 674 1224 646 1239 q 721 1201 704 1208 q 760 1194 738 1194 q 795 1208 782 1194 q 819 1250 808 1222 l 928 1250 z "},"ũ":{"ha":914,"x_min":24,"x_max":883,"o":"m 781 143 q 769 75 775 117 q 760 0 763 33 l 460 0 q 464 48 461 21 q 469 94 467 75 l 464 94 q 374 17 432 50 q 247 -17 317 -17 q 144 1 186 -17 q 74 49 101 19 q 35 118 47 79 q 24 199 24 157 q 26 245 24 221 q 32 292 28 269 l 108 731 l 421 731 l 353 343 q 349 317 350 331 q 349 296 349 304 q 364 251 349 268 q 413 233 379 233 q 469 262 444 233 q 503 344 493 290 l 572 731 l 883 731 l 781 143 m 803 1000 q 775 924 793 960 q 732 863 757 889 q 676 822 707 836 q 610 807 646 807 q 555 815 581 807 q 503 839 529 824 q 457 863 472 857 q 421 869 442 869 q 383 855 399 869 q 360 819 367 840 l 250 819 q 277 892 260 858 q 319 952 294 926 q 374 992 343 978 q 440 1007 404 1007 q 497 998 472 1007 q 549 974 521 989 q 596 951 579 958 q 635 944 613 944 q 670 958 657 944 q 694 1000 683 972 l 803 1000 z "},"Ū":{"ha":1071,"x_min":56,"x_max":1074,"o":"m 967 361 q 915 202 951 274 q 817 81 878 131 q 672 3 757 31 q 478 -25 588 -25 q 306 -4 383 -25 q 172 56 228 17 q 86 153 117 96 q 56 282 56 210 q 58 327 56 301 q 64 374 61 353 l 168 983 l 486 983 l 385 415 q 382 392 382 404 q 382 369 382 379 q 410 289 382 324 q 504 254 438 254 q 574 268 547 254 q 618 304 601 282 q 643 354 635 326 q 657 410 651 382 l 761 983 l 1074 983 l 967 361 m 392 1099 l 414 1231 l 911 1231 l 889 1099 l 392 1099 z "},"ū":{"ha":914,"x_min":24,"x_max":883,"o":"m 781 143 q 769 75 775 117 q 760 0 763 33 l 460 0 q 464 48 461 21 q 469 94 467 75 l 464 94 q 374 17 432 50 q 247 -17 317 -17 q 144 1 186 -17 q 74 49 101 19 q 35 118 47 79 q 24 199 24 157 q 26 245 24 221 q 32 292 28 269 l 108 731 l 421 731 l 353 343 q 349 317 350 331 q 349 296 349 304 q 364 251 349 268 q 413 233 379 233 q 469 262 444 233 q 503 344 493 290 l 572 731 l 883 731 l 781 143 m 269 849 l 292 981 l 789 981 l 767 849 l 269 849 z "},"Ŭ":{"ha":1071,"x_min":56,"x_max":1074,"o":"m 967 361 q 915 202 951 274 q 817 81 878 131 q 672 3 757 31 q 478 -25 588 -25 q 306 -4 383 -25 q 172 56 228 17 q 86 153 117 96 q 56 282 56 210 q 58 327 56 301 q 64 374 61 353 l 168 983 l 486 983 l 385 415 q 382 392 382 404 q 382 369 382 379 q 410 289 382 324 q 504 254 438 254 q 574 268 547 254 q 618 304 601 282 q 643 354 635 326 q 657 410 651 382 l 761 983 l 1074 983 l 967 361 m 904 1261 q 866 1164 893 1203 q 803 1102 839 1125 q 724 1070 767 1079 q 636 1061 681 1061 q 549 1070 590 1061 q 476 1102 508 1079 q 426 1164 444 1125 q 407 1261 407 1203 l 556 1261 q 584 1216 556 1228 q 642 1204 613 1204 q 679 1207 660 1204 q 715 1216 699 1210 q 742 1233 731 1222 q 756 1261 753 1244 l 904 1261 z "},"ŭ":{"ha":914,"x_min":24,"x_max":883,"o":"m 781 143 q 769 75 775 117 q 760 0 763 33 l 460 0 q 464 48 461 21 q 469 94 467 75 l 464 94 q 374 17 432 50 q 247 -17 317 -17 q 144 1 186 -17 q 74 49 101 19 q 35 118 47 79 q 24 199 24 157 q 26 245 24 221 q 32 292 28 269 l 108 731 l 421 731 l 353 343 q 349 317 350 331 q 349 296 349 304 q 364 251 349 268 q 413 233 379 233 q 469 262 444 233 q 503 344 493 290 l 572 731 l 883 731 l 781 143 m 772 1011 q 734 914 761 953 q 671 852 707 875 q 592 820 635 829 q 504 811 549 811 q 417 820 458 811 q 344 852 376 829 q 294 914 313 875 q 275 1011 275 953 l 424 1011 q 452 966 424 978 q 510 954 481 954 q 547 957 528 954 q 583 966 567 960 q 610 983 599 972 q 624 1011 621 994 l 772 1011 z "},"Ů":{"ha":1071,"x_min":56,"x_max":1074,"o":"m 967 361 q 915 202 951 274 q 817 81 878 131 q 672 3 757 31 q 478 -25 588 -25 q 306 -4 383 -25 q 172 56 228 17 q 86 153 117 96 q 56 282 56 210 q 58 327 56 301 q 64 374 61 353 l 168 983 l 486 983 l 385 415 q 382 392 382 404 q 382 369 382 379 q 410 289 382 324 q 504 254 438 254 q 574 268 547 254 q 618 304 601 282 q 643 354 635 326 q 657 410 651 382 l 761 983 l 1074 983 l 967 361 m 631 1035 q 531 1070 569 1035 q 493 1163 493 1106 q 506 1233 493 1200 q 542 1292 519 1267 q 598 1331 565 1317 q 668 1346 631 1346 q 769 1311 731 1346 q 807 1218 807 1276 q 794 1147 807 1181 q 757 1089 781 1114 q 701 1049 733 1064 q 631 1035 669 1035 m 736 1211 q 717 1263 736 1242 q 663 1283 697 1283 q 592 1250 619 1283 q 564 1171 564 1217 q 583 1119 564 1139 q 636 1099 603 1099 q 708 1132 681 1099 q 736 1211 736 1165 z "},"ů":{"ha":914,"x_min":24,"x_max":883,"o":"m 781 143 q 769 75 775 117 q 760 0 763 33 l 460 0 q 464 48 461 21 q 469 94 467 75 l 464 94 q 374 17 432 50 q 247 -17 317 -17 q 144 1 186 -17 q 74 49 101 19 q 35 118 47 79 q 24 199 24 157 q 26 245 24 221 q 32 292 28 269 l 108 731 l 421 731 l 353 343 q 349 317 350 331 q 349 296 349 304 q 364 251 349 268 q 413 233 379 233 q 469 262 444 233 q 503 344 493 290 l 572 731 l 883 731 l 781 143 m 511 785 q 412 820 450 785 q 374 913 374 856 q 387 983 374 950 q 423 1042 400 1017 q 478 1081 446 1067 q 549 1096 511 1096 q 649 1061 611 1096 q 688 968 688 1026 q 674 897 688 931 q 638 839 661 864 q 582 799 614 814 q 511 785 550 785 m 617 961 q 597 1013 617 992 q 543 1033 578 1033 q 472 1000 500 1033 q 444 921 444 967 q 464 869 444 889 q 517 849 483 849 q 589 882 561 849 q 617 961 617 915 z "},"Ű":{"ha":1071,"x_min":56,"x_max":1154,"o":"m 967 361 q 915 202 951 274 q 817 81 878 131 q 672 3 757 31 q 478 -25 588 -25 q 306 -4 383 -25 q 172 56 228 17 q 86 153 117 96 q 56 282 56 210 q 58 327 56 301 q 64 374 61 353 l 168 983 l 486 983 l 385 415 q 382 392 382 404 q 382 369 382 379 q 410 289 382 324 q 504 254 438 254 q 574 268 547 254 q 618 304 601 282 q 643 354 635 326 q 657 410 651 382 l 761 983 l 1074 983 l 967 361 m 907 1061 l 679 1061 l 867 1261 l 1154 1261 l 907 1061 m 574 1061 l 344 1061 l 532 1261 l 821 1261 l 574 1061 z "},"ű":{"ha":914,"x_min":24,"x_max":1032,"o":"m 781 143 q 769 75 775 117 q 760 0 763 33 l 460 0 q 464 48 461 21 q 469 94 467 75 l 464 94 q 374 17 432 50 q 247 -17 317 -17 q 144 1 186 -17 q 74 49 101 19 q 35 118 47 79 q 24 199 24 157 q 26 245 24 221 q 32 292 28 269 l 108 731 l 421 731 l 353 343 q 349 317 350 331 q 349 296 349 304 q 364 251 349 268 q 413 233 379 233 q 469 262 444 233 q 503 344 493 290 l 572 731 l 883 731 l 781 143 m 785 811 l 557 811 l 744 1011 l 1032 1011 l 785 811 m 451 811 l 222 811 l 410 1011 l 699 1011 l 451 811 z "},"Ų":{"ha":1071,"x_min":56,"x_max":1074,"o":"m 581 -272 q 490 -316 539 -300 q 388 -332 440 -332 q 332 -327 360 -332 q 283 -308 304 -322 q 248 -272 261 -294 q 235 -211 235 -249 q 249 -155 235 -182 q 285 -103 263 -128 q 336 -58 308 -79 q 393 -19 364 -37 q 253 13 315 -11 q 147 76 192 38 q 79 166 103 114 q 56 282 56 218 q 58 327 56 301 q 64 374 61 353 l 168 983 l 486 983 l 385 415 q 382 392 382 404 q 382 369 382 379 q 410 289 382 324 q 504 254 438 254 q 574 268 547 254 q 618 304 601 282 q 643 354 635 326 q 657 410 651 382 l 761 983 l 1074 983 l 967 361 q 923 220 953 285 q 846 107 893 156 q 733 26 799 58 q 582 -18 667 -6 q 466 -103 503 -69 q 429 -161 429 -136 q 438 -178 429 -172 q 458 -185 447 -185 q 542 -160 496 -185 l 581 -272 l 581 -272 z "},"ų":{"ha":914,"x_min":24,"x_max":883,"o":"m 613 -272 q 522 -316 571 -300 q 419 -332 472 -332 q 364 -327 392 -332 q 315 -308 336 -322 q 280 -272 293 -294 q 267 -211 267 -249 q 285 -146 267 -176 q 332 -89 304 -115 q 394 -40 360 -62 q 460 0 428 -18 q 464 48 461 21 q 469 94 467 75 l 464 94 q 374 17 432 50 q 247 -17 317 -17 q 144 1 186 -17 q 74 49 101 19 q 35 118 47 79 q 24 199 24 157 q 26 245 24 221 q 32 292 28 269 l 108 731 l 421 731 l 353 343 q 349 317 350 331 q 349 296 349 304 q 364 251 349 268 q 413 233 379 233 q 469 262 444 233 q 503 344 493 290 l 572 731 l 883 731 l 781 143 q 769 75 775 117 q 760 0 763 33 l 642 0 q 504 -97 547 -60 q 461 -161 461 -133 q 470 -178 461 -172 q 490 -185 479 -185 q 574 -160 528 -185 l 613 -272 l 613 -272 z "},"Ŵ":{"ha":1458,"x_min":89,"x_max":1578,"o":"m 1114 0 l 783 0 l 756 567 l 750 567 l 492 0 l 165 0 l 89 983 l 429 983 l 429 421 l 435 421 l 665 983 l 996 983 l 1007 421 l 1013 421 l 1243 983 l 1578 983 l 1114 0 m 935 1061 l 858 1157 l 749 1061 l 540 1061 l 764 1261 l 996 1261 l 1146 1061 l 935 1061 z "},"ŵ":{"ha":1338,"x_min":39,"x_max":1389,"o":"m 988 0 l 678 0 l 640 381 l 638 381 l 447 0 l 139 0 l 39 731 l 364 731 l 379 343 l 385 343 l 561 731 l 863 731 l 888 343 l 892 343 l 1063 731 l 1389 731 l 988 0 m 807 811 l 731 907 l 621 811 l 413 811 l 636 1011 l 868 1011 l 1018 811 l 807 811 z "},"Ŷ":{"ha":940,"x_min":31,"x_max":1096,"o":"m 611 404 l 540 0 l 219 0 l 290 404 l 31 983 l 389 983 l 494 679 l 704 983 l 1096 983 l 611 404 m 657 1061 l 581 1157 l 471 1061 l 263 1061 l 486 1261 l 718 1261 l 868 1061 l 657 1061 z "},"ŷ":{"ha":876,"x_min":-53,"x_max":932,"o":"m 208 10 l 33 731 l 378 731 l 422 331 l 428 331 l 599 731 l 932 731 l 508 -44 q 434 -167 471 -114 q 351 -258 397 -221 q 247 -314 306 -294 q 107 -333 188 -333 q 15 -326 57 -333 q -53 -311 -26 -319 l 0 -65 q 35 -77 17 -72 q 74 -82 53 -82 q 153 -60 125 -82 q 200 -6 182 -39 l 208 10 m 599 811 l 522 907 l 413 811 l 204 811 l 428 1011 l 660 1011 l 810 811 l 599 811 z "},"Ÿ":{"ha":940,"x_min":31,"x_max":1096,"o":"m 611 404 l 540 0 l 219 0 l 290 404 l 31 983 l 389 983 l 494 679 l 704 983 l 1096 983 l 611 404 m 397 1060 q 303 1094 338 1060 q 268 1174 268 1129 q 278 1231 268 1204 q 309 1279 289 1258 q 356 1312 329 1300 q 417 1324 383 1324 q 468 1314 444 1324 q 508 1289 492 1304 q 535 1253 525 1274 q 544 1210 544 1232 q 534 1152 544 1179 q 504 1104 524 1125 q 458 1072 485 1083 q 397 1060 431 1060 m 746 1060 q 651 1094 686 1060 q 617 1174 617 1129 q 627 1231 617 1204 q 658 1279 638 1258 q 705 1312 678 1300 q 765 1324 732 1324 q 817 1314 793 1324 q 857 1289 840 1304 q 883 1253 874 1274 q 893 1210 893 1232 q 883 1152 893 1179 q 853 1104 872 1125 q 806 1072 833 1083 q 746 1060 779 1060 z "},"Ź":{"ha":928,"x_min":-24,"x_max":947,"o":"m -24 0 l 24 269 l 482 717 l 118 717 l 165 983 l 947 983 l 906 750 l 422 274 l 833 274 l 785 0 l -24 0 m 650 1061 l 421 1061 l 608 1261 l 897 1261 l 650 1061 z "},"ź":{"ha":767,"x_min":-37,"x_max":775,"o":"m -37 0 l 1 219 l 331 500 l 58 500 l 99 731 l 757 731 l 721 526 l 368 232 l 676 232 l 636 0 l -37 0 m 528 811 l 299 811 l 486 1011 l 775 1011 l 528 811 z "},"Ż":{"ha":928,"x_min":-24,"x_max":947,"o":"m -24 0 l 24 269 l 482 717 l 118 717 l 165 983 l 947 983 l 906 750 l 422 274 l 833 274 l 785 0 l -24 0 m 572 1051 q 471 1088 508 1051 q 433 1174 433 1125 q 444 1236 433 1207 q 476 1288 456 1265 q 526 1322 497 1310 q 592 1335 556 1335 q 692 1298 654 1335 q 729 1213 729 1261 q 718 1150 729 1179 q 686 1099 707 1121 q 636 1064 665 1076 q 572 1051 607 1051 z "},"ż":{"ha":767,"x_min":-37,"x_max":757,"o":"m -37 0 l 1 219 l 331 500 l 58 500 l 99 731 l 757 731 l 721 526 l 368 232 l 676 232 l 636 0 l -37 0 m 453 801 q 351 838 389 801 q 314 924 314 875 q 325 986 314 957 q 357 1038 336 1015 q 407 1072 378 1060 q 472 1085 436 1085 q 572 1048 535 1085 q 610 963 610 1011 q 599 900 610 929 q 567 849 588 871 q 517 814 546 826 q 453 801 488 801 z "},"Ž":{"ha":928,"x_min":-24,"x_max":947,"o":"m -24 0 l 24 269 l 482 717 l 118 717 l 165 983 l 947 983 l 906 750 l 422 274 l 833 274 l 785 0 l -24 0 m 682 1061 l 450 1061 l 296 1261 l 504 1261 l 581 1164 l 690 1261 l 901 1261 l 682 1061 z "},"ž":{"ha":767,"x_min":-37,"x_max":767,"o":"m -37 0 l 1 219 l 331 500 l 58 500 l 99 731 l 757 731 l 721 526 l 368 232 l 676 232 l 636 0 l -37 0 m 547 811 l 315 811 l 161 1011 l 369 1011 l 446 914 l 556 1011 l 767 1011 l 547 811 z "},"ƒ":{"ha":965,"x_min":-86,"x_max":1014,"o":"m 876 736 q 832 756 853 751 q 796 760 811 760 q 741 744 764 760 q 696 676 718 729 l 678 626 l 861 626 l 825 422 l 600 422 l 465 69 q 414 -37 443 11 q 343 -119 385 -85 q 245 -174 301 -154 q 113 -193 189 -193 q 6 -181 60 -193 q -86 -144 -49 -168 l 38 78 q 77 58 57 63 q 111 53 97 53 q 166 77 144 53 q 206 146 188 101 l 311 422 l 153 422 l 189 626 l 382 626 q 440 771 410 701 q 515 894 471 840 q 626 979 560 947 q 790 1011 692 1011 q 923 995 865 1011 q 1014 956 981 979 l 876 736 l 876 736 z "},"Ș":{"ha":835,"x_min":-71,"x_max":863,"o":"m 657 690 q 596 735 633 718 q 508 753 558 753 q 438 736 469 753 q 407 685 407 719 q 433 642 407 657 q 511 610 460 626 q 625 563 575 589 q 710 501 675 536 q 763 422 744 467 q 782 322 782 378 q 740 161 782 228 q 634 53 699 94 q 492 -8 569 11 q 340 -28 414 -28 q 224 -18 282 -28 q 112 10 165 -8 q 11 54 58 28 q -71 114 -36 81 l 149 317 q 189 282 165 297 q 238 256 213 267 q 290 240 264 246 q 339 233 317 233 q 417 249 388 233 q 446 296 446 265 q 422 340 446 321 q 331 381 397 360 q 231 419 278 397 q 151 473 185 442 q 97 548 117 504 q 78 654 78 592 q 109 796 78 731 q 198 909 140 861 q 335 984 256 957 q 511 1011 415 1011 q 615 1002 564 1011 q 713 977 667 993 q 797 939 758 961 q 863 889 836 917 l 657 690 m 269 -333 l 46 -333 l 203 -62 l 460 -62 l 269 -333 z "},"ș":{"ha":686,"x_min":-62,"x_max":682,"o":"m 96 264 q 179 210 132 228 q 267 192 226 192 q 310 199 294 192 q 326 224 326 207 q 305 251 326 240 q 250 272 283 263 q 163 304 201 286 q 98 347 125 322 q 56 406 71 372 q 42 483 42 439 q 72 603 42 551 q 151 688 101 654 q 262 738 200 721 q 386 754 324 754 q 552 730 472 754 q 682 661 632 706 l 522 478 q 457 520 499 503 q 375 538 415 538 q 330 530 347 538 q 313 506 313 522 q 327 484 313 492 q 378 467 342 476 q 472 435 429 454 q 544 390 514 417 q 592 328 575 364 q 608 243 608 292 q 576 118 608 169 q 492 35 543 67 q 380 -11 442 3 q 258 -25 318 -25 q 92 -3 179 -25 q -62 75 4 19 l 96 264 m 188 -333 l -36 -333 l 121 -62 l 378 -62 l 188 -333 z "},"Ț":{"ha":810,"x_min":40,"x_max":900,"o":"m 611 713 l 486 0 l 164 0 l 289 713 l 40 713 l 89 983 l 900 983 l 851 713 l 611 713 m 268 -333 l 44 -333 l 201 -62 l 458 -62 l 268 -333 z "},"ț":{"ha":557,"x_min":-42,"x_max":579,"o":"m 404 507 l 367 301 q 365 282 365 293 q 364 264 364 271 q 380 222 364 232 q 425 211 396 211 q 458 214 442 211 q 486 219 475 217 l 449 6 q 385 -12 431 -6 q 296 -19 339 -19 q 206 -11 250 -19 q 126 18 161 -3 q 70 75 92 39 q 49 168 49 111 q 51 203 49 183 q 56 239 53 222 l 104 507 l -4 507 l 35 731 l 138 731 l 167 896 l 468 896 l 439 731 l 579 731 l 540 507 l 404 507 m 182 -333 l -42 -333 l 115 -62 l 372 -62 l 182 -333 z "},"ˆ":{"ha":500,"x_min":3,"x_max":608,"o":"m 397 811 l 321 907 l 211 811 l 3 811 l 226 1011 l 458 1011 l 608 811 l 397 811 z "},"ˇ":{"ha":500,"x_min":38,"x_max":643,"o":"m 424 811 l 192 811 l 38 1011 l 246 1011 l 322 914 l 432 1011 l 643 1011 l 424 811 z "},"ˉ":{"ha":500,"x_min":64,"x_max":583,"o":"m 64 1099 l 86 1231 l 583 1231 l 561 1099 l 64 1099 z "},"˘":{"ha":500,"x_min":92,"x_max":589,"o":"m 589 1011 q 551 914 578 953 q 488 852 524 875 q 408 820 451 829 q 321 811 365 811 q 234 820 275 811 q 161 852 193 829 q 110 914 129 875 q 92 1011 92 953 l 240 1011 q 269 966 240 978 q 326 954 297 954 q 364 957 344 954 q 399 966 383 960 q 426 983 415 972 q 440 1011 438 994 l 589 1011 l 589 1011 z "},"˙":{"ha":500,"x_min":172,"x_max":468,"o":"m 311 801 q 210 838 247 801 q 172 924 172 875 q 183 986 172 957 q 215 1038 194 1015 q 265 1072 236 1060 q 331 1085 294 1085 q 431 1048 393 1085 q 468 963 468 1011 q 457 900 468 929 q 425 849 446 871 q 375 814 404 826 q 311 801 346 801 z "},"˚":{"ha":500,"x_min":172,"x_max":486,"o":"m 310 785 q 210 820 249 785 q 172 913 172 856 q 185 983 172 950 q 222 1042 199 1017 q 277 1081 244 1067 q 347 1096 310 1096 q 448 1061 410 1096 q 486 968 486 1026 q 473 897 486 931 q 436 839 460 864 q 381 799 413 814 q 310 785 349 785 m 415 961 q 396 1013 415 992 q 342 1033 376 1033 q 271 1000 299 1033 q 243 921 243 967 q 263 869 243 889 q 315 849 282 849 q 388 882 360 849 q 415 961 415 915 z "},"˛":{"ha":500,"x_min":-72,"x_max":306,"o":"m 274 -272 q 183 -316 232 -300 q 81 -332 133 -332 q 25 -327 53 -332 q -24 -308 -3 -322 q -59 -272 -46 -294 q -72 -211 -72 -249 q -53 -146 -72 -176 q -6 -89 -35 -115 q 56 -40 22 -62 q 122 1 90 -17 l 306 1 q 166 -97 210 -60 q 122 -161 122 -133 q 131 -178 122 -172 q 151 -185 140 -185 q 235 -160 189 -185 l 274 -272 l 274 -272 z "},"˜":{"ha":500,"x_min":46,"x_max":599,"o":"m 599 1000 q 571 924 589 960 q 528 863 553 889 q 472 822 503 836 q 406 807 442 807 q 351 815 376 807 q 299 839 325 824 q 253 863 268 857 q 217 869 238 869 q 178 855 194 869 q 156 819 163 840 l 46 819 q 73 892 56 858 q 115 952 90 926 q 169 992 139 978 q 236 1007 200 1007 q 292 998 268 1007 q 344 974 317 989 q 392 951 375 958 q 431 944 408 944 q 466 958 453 944 q 490 1000 479 972 l 599 1000 l 599 1000 z "},"˝":{"ha":500,"x_min":-14,"x_max":796,"o":"m 549 811 l 321 811 l 508 1011 l 796 1011 l 549 811 m 215 811 l -14 811 l 174 1011 l 463 1011 l 215 811 z "},"–":{"ha":556,"x_min":26,"x_max":529,"o":"m 57 479 l 529 479 l 499 313 l 26 313 l 57 479 z "},"—":{"ha":833,"x_min":26,"x_max":807,"o":"m 57 479 l 807 479 l 776 313 l 26 313 l 57 479 z "},"‘":{"ha":486,"x_min":89,"x_max":518,"o":"m 346 593 l 89 593 l 296 983 l 518 983 l 346 593 z "},"’":{"ha":486,"x_min":90,"x_max":519,"o":"m 314 593 l 90 593 l 263 983 l 519 983 l 314 593 z "},"‚":{"ha":486,"x_min":-44,"x_max":383,"o":"m 179 -175 l -44 -175 l 126 215 l 383 215 l 179 -175 z "},"“":{"ha":781,"x_min":79,"x_max":818,"o":"m 647 593 l 397 593 l 596 983 l 818 983 l 647 593 m 329 593 l 79 593 l 285 983 l 507 983 l 329 593 z "},"”":{"ha":781,"x_min":81,"x_max":819,"o":"m 614 593 l 392 593 l 569 983 l 819 983 l 614 593 m 303 593 l 81 593 l 253 983 l 503 983 l 303 593 z "},"„":{"ha":781,"x_min":-54,"x_max":683,"o":"m 479 -175 l 257 -175 l 433 215 l 683 215 l 479 -175 m 168 -175 l -54 -175 l 117 215 l 367 215 l 168 -175 z "},"Δ":{"ha":1021,"x_min":-56,"x_max":938,"o":"m -56 0 q 233 492 89 249 q 522 983 378 735 l 751 983 q 844 492 799 735 q 938 0 890 249 l -56 0 m 586 263 q 567 422 576 343 q 547 582 558 501 q 379 263 461 419 l 586 263 z "},"Ω":{"ha":1088,"x_min":0,"x_max":1083,"o":"m 513 0 l 594 388 q 708 454 669 404 q 763 574 747 504 q 767 613 767 594 q 730 705 767 669 q 631 740 693 740 q 561 728 594 740 q 499 692 528 715 q 451 639 471 669 q 424 572 432 608 q 417 514 417 538 q 440 433 417 467 q 517 388 463 400 l 435 0 l 0 0 l 53 251 l 250 251 l 253 267 q 150 349 186 289 q 114 496 114 410 q 125 592 114 539 q 200 769 146 692 q 331 897 254 846 q 499 975 407 949 q 686 1001 590 1001 q 844 981 771 1001 q 969 922 917 961 q 1053 823 1022 882 q 1083 686 1083 764 q 1074 593 1083 640 q 1035 478 1061 532 q 974 383 1010 425 q 897 310 939 340 q 808 267 854 281 l 806 251 l 1001 251 l 949 0 l 513 0 z "},"μ":{"ha":1053,"x_min":-25,"x_max":1038,"o":"m 521 731 l 443 365 q 438 336 440 354 q 436 306 436 318 q 451 243 436 269 q 504 217 465 217 q 591 257 561 217 q 633 356 621 297 l 713 731 l 1038 731 l 883 0 l 569 0 l 579 51 q 524 13 556 28 q 450 -3 493 -3 q 369 19 399 -3 l 300 -311 l -25 -311 l 196 731 l 521 731 z "},"π":{"ha":1026,"x_min":61,"x_max":1036,"o":"m 889 32 q 805 -4 853 8 q 717 -17 757 -17 q 572 17 622 -17 q 521 128 521 50 q 522 158 521 143 q 528 192 524 174 l 588 472 l 471 472 l 371 0 l 61 0 l 161 472 l 88 472 l 142 731 l 1036 731 l 982 472 l 889 472 l 846 269 q 843 251 843 258 q 876 225 843 225 q 902 229 890 225 q 935 244 914 233 l 889 32 l 889 32 z "},"†":{"ha":857,"x_min":49,"x_max":851,"o":"m 551 479 l 435 -185 l 185 -185 l 301 479 l 49 479 l 89 710 l 340 710 l 389 983 l 639 983 l 590 710 l 851 710 l 811 479 l 551 479 z "},"‡":{"ha":857,"x_min":-25,"x_max":858,"o":"m 479 51 l 438 -185 l 189 -185 l 231 51 l -25 51 l 14 274 l 269 274 l 314 525 l 58 525 l 97 747 l 351 747 l 393 983 l 642 983 l 600 747 l 858 747 l 819 525 l 561 525 l 517 274 l 775 274 l 736 51 l 479 51 z "},"•":{"ha":694,"x_min":101,"x_max":593,"o":"m 101 492 q 121 588 101 543 q 174 665 140 632 q 251 718 207 699 q 347 738 296 738 q 443 718 399 738 q 521 665 488 699 q 574 588 554 632 q 593 492 593 543 q 574 396 593 440 q 521 318 554 351 q 443 265 488 285 q 347 246 399 246 q 251 265 296 246 q 174 318 207 285 q 121 396 140 351 q 101 492 101 440 z "},"…":{"ha":1389,"x_min":8,"x_max":1296,"o":"m 176 -17 q 106 -5 138 -17 q 53 28 75 7 q 20 75 32 49 q 8 131 8 101 q 22 206 8 171 q 62 268 36 242 q 123 310 88 294 q 201 325 158 325 q 269 313 239 325 q 322 281 300 301 q 356 233 343 260 q 368 178 368 207 q 354 102 368 138 q 315 40 340 67 q 255 -1 290 14 q 176 -17 219 -17 m 640 -17 q 570 -5 601 -17 q 517 28 539 7 q 484 75 496 49 q 472 131 472 101 q 486 206 472 171 q 526 268 500 242 q 587 310 551 294 q 665 325 622 325 q 733 313 703 325 q 785 281 764 301 q 819 233 807 260 q 832 178 832 207 q 818 102 832 138 q 779 40 804 67 q 719 -1 754 14 q 640 -17 683 -17 m 1104 -17 q 1034 -5 1065 -17 q 981 28 1003 7 q 948 75 960 49 q 936 131 936 101 q 950 206 936 171 q 990 268 964 242 q 1051 310 1015 294 q 1129 325 1086 325 q 1197 313 1167 325 q 1249 281 1228 301 q 1283 233 1271 260 q 1296 178 1296 207 q 1282 102 1296 138 q 1243 40 1268 67 q 1183 -1 1218 14 q 1104 -17 1147 -17 z "},"‰":{"ha":1753,"x_min":72,"x_max":1706,"o":"m 313 501 q 216 515 260 501 q 140 556 172 529 q 90 624 108 583 q 72 715 72 664 q 93 826 72 775 q 151 917 114 878 q 240 978 188 956 q 354 1000 292 1000 q 451 985 407 1000 q 528 944 496 971 q 579 877 561 917 q 597 786 597 838 q 576 674 597 726 q 517 584 554 622 q 427 524 479 546 q 313 501 375 501 m 413 769 q 395 817 413 797 q 344 836 378 836 q 281 806 304 836 q 257 733 257 775 q 274 685 257 704 q 324 667 292 667 q 388 697 364 667 q 413 769 413 726 m 857 -17 q 760 -3 804 -17 q 685 38 717 11 q 635 106 653 65 q 617 197 617 146 q 638 308 617 257 q 695 399 658 360 q 784 460 732 438 q 899 482 836 482 q 996 467 951 482 q 1073 426 1040 453 q 1124 359 1106 399 q 1142 268 1142 319 q 1120 156 1142 208 q 1061 66 1099 104 q 972 6 1024 28 q 857 -17 919 -17 m 957 251 q 940 299 957 279 q 889 318 922 318 q 825 288 849 318 q 801 215 801 257 q 819 167 801 186 q 868 149 836 149 q 933 178 908 149 q 957 251 957 208 m 1421 -17 q 1324 -3 1368 -17 q 1249 38 1281 11 q 1199 106 1217 65 q 1181 197 1181 146 q 1201 308 1181 257 q 1259 399 1222 360 q 1348 460 1296 438 q 1463 482 1400 482 q 1560 467 1515 482 q 1637 426 1604 453 q 1688 359 1669 399 q 1706 268 1706 319 q 1684 156 1706 208 q 1625 66 1663 104 q 1535 6 1588 28 q 1421 -17 1483 -17 m 1521 251 q 1503 299 1521 279 q 1453 318 1486 318 q 1389 288 1413 318 q 1365 215 1365 257 q 1383 167 1365 186 q 1432 149 1400 149 q 1497 178 1472 149 q 1521 251 1521 208 m 274 -54 l 154 26 l 913 1026 l 1033 949 l 274 -54 z "},"‹":{"ha":483,"x_min":8,"x_max":463,"o":"m 310 729 l 463 617 l 253 379 l 372 149 l 190 49 l 8 392 l 310 729 z "},"›":{"ha":483,"x_min":0,"x_max":454,"o":"m 153 49 l 0 161 l 210 399 l 90 631 l 272 729 l 454 386 l 153 49 z "},"⁄":{"ha":139,"x_min":-319,"x_max":472,"o":"m -201 -49 l -319 26 l 353 1026 l 472 954 l -201 -49 z "},"€":{"ha":965,"x_min":15,"x_max":968,"o":"m 171 465 q 174 492 171 472 q 181 522 178 511 l 60 522 l 157 704 l 231 704 q 427 929 297 847 q 747 1011 557 1011 q 801 1009 772 1011 q 860 1003 831 1007 q 918 992 890 999 q 968 978 946 986 l 860 751 q 728 775 803 775 q 628 756 676 775 q 556 704 579 736 l 842 704 l 753 522 l 474 522 q 468 496 471 511 q 464 465 465 481 l 738 465 l 650 286 l 468 286 q 488 255 474 268 q 524 233 503 242 q 569 219 544 224 q 621 214 594 214 q 716 224 669 214 q 794 251 763 235 l 817 18 q 713 -15 781 -1 q 567 -28 646 -28 q 411 -6 481 -28 q 290 58 342 17 q 207 158 239 100 q 165 286 175 215 l 15 286 l 106 465 l 171 465 l 171 465 z "},"ℓ":{"ha":694,"x_min":-36,"x_max":713,"o":"m 713 814 q 692 703 713 757 q 626 594 671 649 q 513 484 582 540 q 346 365 443 428 q 326 285 333 315 q 316 236 319 254 q 312 209 313 218 q 311 194 311 200 q 327 151 311 165 q 367 138 343 138 q 422 149 392 138 q 501 192 453 161 l 504 192 l 557 67 q 429 1 490 22 q 300 -19 368 -19 q 147 30 199 -19 q 94 156 94 79 q 97 181 94 165 q 104 225 99 196 l 24 169 l 21 169 l -36 292 l 142 406 l 208 724 q 318 926 236 851 q 518 1001 400 1001 q 597 987 561 1001 q 659 947 633 972 q 699 887 685 921 q 713 814 713 853 m 533 804 q 523 844 533 828 q 494 860 513 860 q 435 778 453 860 l 386 553 q 492 672 450 606 q 533 804 533 739 z "},"™":{"ha":1389,"x_min":139,"x_max":1396,"o":"m 294 840 l 139 840 l 139 983 l 619 983 l 619 840 l 464 840 l 464 411 l 294 411 l 294 840 m 703 983 l 931 983 l 1054 639 l 1169 983 l 1396 983 l 1396 411 l 1240 411 l 1240 751 l 1238 751 l 1110 411 l 983 411 l 860 751 l 857 751 l 857 411 l 703 411 l 703 983 z "},"Ω":{"ha":1088,"x_min":0,"x_max":1083,"o":"m 513 0 l 594 388 q 708 454 669 404 q 763 574 747 504 q 767 613 767 594 q 730 705 767 669 q 631 740 693 740 q 561 728 594 740 q 499 692 528 715 q 451 639 471 669 q 424 572 432 608 q 417 514 417 538 q 440 433 417 467 q 517 388 463 400 l 435 0 l 0 0 l 53 251 l 250 251 l 253 267 q 150 349 186 289 q 114 496 114 410 q 125 592 114 539 q 200 769 146 692 q 331 897 254 846 q 499 975 407 949 q 686 1001 590 1001 q 844 981 771 1001 q 969 922 917 961 q 1053 823 1022 882 q 1083 686 1083 764 q 1074 593 1083 640 q 1035 478 1061 532 q 974 383 1010 425 q 897 310 939 340 q 808 267 854 281 l 806 251 l 1001 251 l 949 0 l 513 0 z "},"℮":{"ha":1111,"x_min":83,"x_max":1035,"o":"m 826 558 l 826 826 q 557 936 713 936 q 292 826 401 936 l 292 558 l 826 558 m 292 493 l 292 160 q 558 51 397 51 q 758 103 674 51 q 914 272 843 156 l 978 233 q 892 119 936 167 q 799 42 849 72 q 690 -2 749 13 q 558 -17 631 -17 q 363 23 450 -17 q 213 132 275 63 q 117 294 150 201 q 83 493 83 386 q 117 692 83 600 q 213 853 150 785 q 363 961 275 922 q 558 1000 450 1000 q 752 963 664 1000 q 903 858 840 925 q 1000 697 965 790 q 1035 493 1035 604 l 292 493 z "},"∂":{"ha":1078,"x_min":129,"x_max":922,"o":"m 922 500 q 916 392 922 450 q 894 276 910 333 q 849 165 878 218 q 776 72 821 113 q 667 6 731 31 q 518 -18 604 -18 q 366 6 436 -18 q 244 74 296 29 q 165 183 193 119 q 136 328 136 247 q 159 456 136 396 q 227 559 182 515 q 340 628 272 603 q 499 654 408 654 q 560 648 528 654 q 619 631 593 642 q 582 708 614 675 q 476 740 550 740 q 378 722 433 740 q 261 653 322 703 q 195 760 228 706 q 129 867 163 814 q 303 969 208 936 q 494 1001 399 1001 q 701 954 619 1001 q 833 834 783 907 q 902 672 882 761 q 922 500 922 583 m 633 424 q 587 441 613 436 q 540 446 561 446 q 464 419 492 446 q 436 342 436 393 q 445 292 436 313 q 468 259 454 272 q 497 240 482 246 q 524 235 511 235 q 608 282 586 235 q 633 421 631 329 l 633 424 z "},"∆":{"ha":1021,"x_min":-56,"x_max":938,"o":"m -56 0 q 233 492 89 249 q 522 983 378 735 l 751 983 q 844 492 799 735 q 938 0 890 249 l -56 0 m 586 263 q 567 422 576 343 q 547 582 558 501 q 379 263 461 419 l 586 263 z "},"∏":{"ha":1063,"x_min":78,"x_max":988,"o":"m 724 -297 l 724 865 l 339 865 l 339 -297 l 78 -297 l 78 1092 l 988 1092 l 988 -297 l 724 -297 z "},"∑":{"ha":950,"x_min":38,"x_max":922,"o":"m 38 -297 l 38 -112 q 233 147 135 18 q 428 406 331 275 q 240 656 335 532 q 53 907 146 781 l 53 1092 l 907 1092 l 907 865 l 376 865 q 541 636 458 750 q 706 407 624 522 q 530 168 618 286 q 354 -71 442 50 l 922 -71 l 922 -297 l 38 -297 z "},"−":{"ha":925,"x_min":103,"x_max":822,"o":"m 822 522 l 822 322 l 103 322 l 103 522 l 822 522 z "},"∕":{"ha":139,"x_min":-319,"x_max":472,"o":"m -201 -49 l -319 26 l 353 1026 l 472 954 l -201 -49 z "},"∙":{"ha":492,"x_min":51,"x_max":411,"o":"m 219 233 q 149 245 181 233 q 97 278 118 257 q 63 325 75 299 q 51 381 51 351 q 65 456 51 421 q 105 518 79 492 q 166 560 131 544 q 244 575 201 575 q 313 563 282 575 q 365 531 343 551 q 399 483 386 510 q 411 428 411 457 q 397 352 411 388 q 358 290 383 317 q 298 249 333 264 q 219 233 263 233 z "},"√":{"ha":835,"x_min":-14,"x_max":846,"o":"m 846 1092 q 695 397 771 743 q 544 -297 619 51 l 342 -297 q 246 -101 294 -199 q 150 96 197 -3 q 115 80 132 88 q 79 64 97 72 q 33 160 56 113 q -14 256 10 207 q 126 318 57 286 q 267 381 196 350 q 333 238 299 308 q 399 96 367 168 q 501 594 451 347 q 604 1092 551 840 l 846 1092 l 846 1092 z "},"∞":{"ha":1193,"x_min":63,"x_max":1131,"o":"m 1131 374 q 1113 266 1131 317 q 1060 178 1094 215 q 974 118 1025 140 q 857 96 922 96 q 709 135 772 96 q 597 226 646 174 q 546 176 572 200 q 489 135 519 153 q 422 108 458 118 q 342 97 385 97 q 226 118 278 97 q 138 176 175 139 q 82 264 101 214 q 63 372 63 314 q 81 478 63 428 q 135 564 100 528 q 220 622 169 600 q 336 643 271 643 q 419 632 382 643 q 488 601 457 621 q 547 557 519 582 q 597 506 574 532 q 648 558 621 533 q 707 603 675 583 q 776 633 739 622 q 858 644 814 644 q 973 623 922 644 q 1059 565 1024 601 q 1113 479 1094 529 q 1131 374 1131 429 m 928 369 q 908 426 928 406 q 853 447 888 447 q 783 422 817 447 q 724 368 750 396 q 785 315 751 338 q 857 293 819 293 q 908 315 889 293 q 928 369 928 336 m 469 368 q 403 421 439 396 q 336 446 368 446 q 285 424 306 446 q 265 369 265 401 q 285 315 265 335 q 340 294 306 294 q 408 317 375 294 q 469 368 440 339 z "},"∫":{"ha":910,"x_min":93,"x_max":767,"o":"m 767 949 q 736 869 767 903 q 656 835 706 835 q 619 842 635 835 q 593 859 604 849 q 574 881 582 869 q 558 900 567 892 q 551 870 553 888 q 549 836 549 853 q 549 810 549 822 q 550 789 550 799 q 550 817 550 804 q 549 846 550 831 l 549 822 q 549 775 549 799 q 550 728 550 751 l 550 160 q 549 85 550 124 q 544 10 549 46 q 527 -102 540 -47 q 485 -200 514 -157 q 407 -269 456 -243 q 283 -296 358 -296 q 222 -287 256 -296 q 160 -262 189 -279 q 113 -216 132 -244 q 93 -146 93 -187 q 107 -96 93 -119 q 148 -56 122 -71 q 206 -42 174 -42 q 240 -49 226 -42 q 264 -65 254 -56 q 281 -84 274 -74 q 297 -101 289 -94 q 305 -68 303 -86 q 307 -35 307 -50 q 308 -21 308 -28 q 308 -7 308 -14 q 308 20 308 7 q 307 46 307 33 l 307 721 q 317 850 307 785 q 357 969 328 915 q 439 1056 386 1022 q 578 1089 492 1089 q 634 1082 601 1089 q 696 1059 667 1075 q 746 1016 725 1043 q 767 949 767 989 z "},"≈":{"ha":925,"x_min":64,"x_max":860,"o":"m 860 674 q 831 535 853 592 q 775 444 808 479 q 701 394 742 410 q 619 379 661 379 q 534 392 578 379 q 447 420 490 404 q 363 449 404 436 q 288 461 322 461 q 255 445 268 461 q 235 404 242 429 l 67 404 q 86 503 71 456 q 131 589 101 551 q 205 649 160 626 q 314 672 250 672 q 396 661 356 672 q 476 636 436 650 q 556 611 517 622 q 636 600 596 600 q 672 615 658 600 q 689 674 685 631 l 860 674 m 860 349 q 840 256 854 304 q 799 168 826 208 q 729 102 772 128 q 624 76 686 76 q 535 90 581 76 q 445 119 489 103 q 361 148 401 135 q 288 161 321 161 q 253 143 268 161 q 232 83 239 125 l 64 83 q 83 187 68 135 q 126 281 99 239 q 197 349 154 322 q 300 375 240 375 q 385 363 343 375 q 469 335 428 350 q 553 309 511 321 q 639 297 596 297 q 689 349 672 297 l 860 349 z "},"≠":{"ha":925,"x_min":96,"x_max":829,"o":"m 438 81 l 335 -125 q 236 -78 286 -101 q 138 -32 186 -56 q 168 24 153 -4 q 199 81 183 53 l 96 81 l 96 292 l 308 292 q 342 354 324 324 q 375 417 360 385 l 96 417 l 96 628 l 485 628 q 539 730 513 678 q 593 832 565 782 q 690 786 642 810 q 788 740 739 763 q 758 684 772 713 q 728 628 743 656 l 829 628 l 829 417 l 618 417 q 585 354 603 385 q 551 292 567 324 l 829 292 l 829 81 l 438 81 z "},"≤":{"ha":925,"x_min":108,"x_max":817,"o":"m 108 10 l 108 203 l 817 203 l 817 10 l 108 10 m 817 226 q 463 367 639 297 q 108 508 286 438 l 108 694 q 463 835 286 765 q 817 976 639 906 l 817 751 q 626 674 721 711 q 436 597 532 638 q 626 526 532 561 q 817 454 721 490 l 817 226 z "},"≥":{"ha":925,"x_min":108,"x_max":817,"o":"m 108 10 l 108 203 l 817 203 l 817 10 l 108 10 m 108 226 l 108 454 q 299 526 204 490 q 489 597 393 561 q 299 674 393 638 q 108 751 204 711 l 108 976 q 463 835 286 906 q 817 694 639 765 l 817 508 q 463 367 639 438 q 108 226 286 297 z "},"◊":{"ha":860,"x_min":74,"x_max":789,"o":"m 789 494 q 657 223 722 358 q 525 -49 592 88 l 331 -49 q 202 223 267 88 q 74 494 138 358 q 203 766 140 631 q 333 1038 267 901 l 525 1038 q 657 766 592 901 q 789 494 722 631 m 549 494 q 488 631 519 563 q 428 768 457 700 q 369 631 397 700 q 311 494 342 563 q 369 358 342 426 q 428 222 397 290 q 488 358 457 290 q 549 494 519 426 z "},"":{"ha":474,"x_min":-189,"x_max":444,"o":"m 315 1 q 280 -131 303 -68 q 215 -241 257 -193 q 106 -317 172 -289 q -61 -346 39 -346 q -126 -342 -89 -346 q -189 -329 -162 -337 l -136 -76 q -108 -82 -121 -81 q -86 -83 -96 -83 q -26 -61 -49 -83 q 6 10 -3 -39 l 133 731 l 444 731 l 315 1 l 315 1 z "},"":{"ha":500,"x_min":-10,"x_max":404,"o":"m 214 -333 l -10 -333 l 147 -62 l 404 -62 l 214 -333 z "},"ﬂ":{"ha":1042,"x_min":7,"x_max":1067,"o":"m 564 0 l 749 1050 l 1067 1050 l 882 0 l 564 0 m 635 836 q 608 845 624 842 q 575 849 592 849 q 507 820 526 849 q 479 747 488 792 l 476 731 l 631 731 l 592 507 l 442 507 l 351 0 l 42 0 l 132 507 l 7 507 l 46 731 l 167 731 l 171 753 q 206 882 183 821 q 272 990 229 943 q 381 1063 314 1036 q 546 1090 447 1090 q 618 1085 578 1090 q 685 1069 658 1081 l 635 836 z "},"":{"ha":1217,"x_min":144,"x_max":1064,"o":"m 672 922 q 749 983 706 963 q 821 1003 792 1003 q 757 838 821 910 q 604 765 693 765 q 624 850 604 808 q 672 922 635 874 m 942 329 q 1003 258 968 289 q 1064 219 1039 226 q 1051 185 1057 200 q 1040 158 1046 169 q 974 50 1008 89 q 893 -29 918 -11 q 810 -53 857 -53 q 714 -29 769 -53 q 632 -7 661 -7 q 528 -37 606 -7 q 461 -53 486 -53 q 318 28 393 -53 q 257 106 288 60 q 172 266 200 189 q 144 443 144 343 q 219 664 144 565 q 422 769 300 769 q 521 753 481 769 q 629 717 608 717 q 708 733 667 717 q 833 769 800 769 q 958 738 914 769 q 1042 649 979 721 q 949 566 983 622 q 914 446 914 510 q 942 329 914 369 z "},"ﬁ":{"ha":1038,"x_min":7,"x_max":1043,"o":"m 635 836 q 608 845 624 842 q 575 849 592 849 q 507 820 526 849 q 479 747 488 792 l 476 731 l 631 731 l 592 507 l 442 507 l 351 0 l 42 0 l 132 507 l 7 507 l 46 731 l 167 731 l 171 753 q 206 882 183 821 q 272 990 229 943 q 381 1063 314 1036 q 546 1090 447 1090 q 618 1085 578 1090 q 685 1069 658 1081 l 635 836 m 565 0 l 694 731 l 1006 731 l 876 0 l 565 0 m 868 785 q 803 796 832 785 q 756 826 775 807 q 725 869 736 844 q 714 919 714 893 q 726 990 714 957 q 763 1047 739 1022 q 818 1085 786 1071 q 890 1099 850 1099 q 952 1088 924 1099 q 1001 1058 981 1076 q 1032 1015 1021 1039 q 1043 964 1043 990 q 1031 894 1043 926 q 995 837 1018 861 q 940 799 972 813 q 868 785 907 785 z "},"͏":{"ha":0,"x_min":0,"x_max":0,"o":""},"​":{"ha":0,"x_min":0,"x_max":0,"o":""},"‌":{"ha":0,"x_min":0,"x_max":0,"o":""},"‍":{"ha":0,"x_min":0,"x_max":0,"o":""}}}
